<svg xmlns="http://www.w3.org/2000/svg" viewBox="0 0 391.45 133.75"><defs><style>.cls-1{fill:#080f45;}</style></defs><title>KAKA</title><g id="图层_2" data-name="图层 2"><g id="图层_1-2" data-name="图层 1"><g id="图层_2-2" data-name="图层 2"><g id="图层_1-2-2" data-name="图层 1-2"><path class="cls-1" d="M65.93,45.28,99.07,26.14a3.77,3.77,0,0,0,0-6.51L65.93.5a3.76,3.76,0,0,0-5.64,3.25V42a3.76,3.76,0,0,0,3.76,3.77,3.66,3.66,0,0,0,1.88-.51"/><path class="cls-1" d="M114.93,35.3l-49,28.29a3.76,3.76,0,0,0,0,6.51l49,28.33a3.74,3.74,0,0,0,5.12-1.36,3.67,3.67,0,0,0,.51-1.89V38.55a3.76,3.76,0,0,0-5.63-3.25"/><path class="cls-1" d="M60.29,91.71V130a3.75,3.75,0,0,0,5.64,3.25l33.14-19.13a3.77,3.77,0,0,0,0-6.51L65.93,88.45a3.76,3.76,0,0,0-5.64,3.26"/><path class="cls-1" d="M38.8,9.66,4.85,29.25A9.73,9.73,0,0,0,0,37.66V96.07a9.71,9.71,0,0,0,4.85,8.41L38.8,124.07a3.74,3.74,0,0,0,5.12-1.36,3.67,3.67,0,0,0,.51-1.89V12.91A3.76,3.76,0,0,0,38.8,9.66"/><polygon class="cls-1" points="159.02 92.89 162.46 92.89 173.12 108.8 173.18 108.8 173.18 92.89 175.8 92.89 175.8 112.25 172.47 112.25 161.7 96.34 161.64 96.34 161.64 112.25 159.02 112.25 159.02 92.89"/><polygon class="cls-1" points="180.78 92.89 192.94 92.89 192.94 95.35 183.4 95.35 183.4 101.42 192.28 101.42 192.28 103.88 183.4 103.88 183.4 112.25 180.78 112.25 180.78 92.89"/><polygon class="cls-1" points="200.51 95.35 194.28 95.35 194.28 92.89 209.37 92.89 209.37 95.35 203.14 95.35 203.14 112.25 200.51 112.25 200.51 95.35"/><polygon class="cls-1" points="217.29 92.89 220.03 92.89 224.31 108.37 224.36 108.37 228.91 92.89 231.92 92.89 236.47 108.37 236.53 108.37 240.8 92.89 243.54 92.89 237.91 112.25 235.12 112.25 230.44 96.45 230.39 96.45 225.74 112.25 222.95 112.25 217.29 92.89"/><path class="cls-1" d="M254.94,112.74a10.36,10.36,0,0,1-4.08-.78,9.18,9.18,0,0,1-3.18-2.15,9.64,9.64,0,0,1-2.08-3.22,11.15,11.15,0,0,1,0-8,9.74,9.74,0,0,1,2.08-3.22,9.62,9.62,0,0,1,3.18-2.15,11,11,0,0,1,8.15,0,9.62,9.62,0,0,1,3.18,2.15,9.74,9.74,0,0,1,2.08,3.22,11.15,11.15,0,0,1,0,8,9.64,9.64,0,0,1-2.08,3.22A9.17,9.17,0,0,1,259,112a10.31,10.31,0,0,1-4.07.78m0-2.46a6.9,6.9,0,0,0,3-.62,7,7,0,0,0,3.77-4.1,8.83,8.83,0,0,0,0-6,7.31,7.31,0,0,0-9.43-4.24l-.35.14a7.41,7.41,0,0,0-2.3,1.65,7.22,7.22,0,0,0-1.47,2.45,8.83,8.83,0,0,0,0,6,7,7,0,0,0,3.77,4.1,6.9,6.9,0,0,0,3,.62"/><path class="cls-1" d="M268.8,92.89h6.8a8,8,0,0,1,3.06.51,5.5,5.5,0,0,1,1.9,1.28,4.32,4.32,0,0,1,1,1.75,7.13,7.13,0,0,1,.28,1.88,4.94,4.94,0,0,1-.33,1.79,5.11,5.11,0,0,1-.94,1.55,5.41,5.41,0,0,1-1.51,1.18,4.87,4.87,0,0,1-2,.59l5.49,8.83h-3.28l-4.92-8.53h-2.92v8.53H268.8Zm2.62,8.53h3.44a9.64,9.64,0,0,0,1.52-.12,3.79,3.79,0,0,0,1.34-.45,2.43,2.43,0,0,0,.94-.94,3.74,3.74,0,0,0,0-3.2,2.51,2.51,0,0,0-.94-1,4.51,4.51,0,0,0-1.34-.45,9.64,9.64,0,0,0-1.52-.12h-3.44Z"/><polygon class="cls-1" points="285.5 92.89 288.12 92.89 288.12 109.79 297 109.79 297 112.25 285.5 112.25 285.5 92.89"/><path class="cls-1" d="M299.25,92.89H306a12.83,12.83,0,0,1,3.59.47,10.06,10.06,0,0,1,2.68,1.24,8.24,8.24,0,0,1,1.89,1.79,10.26,10.26,0,0,1,1.19,2.08,11.32,11.32,0,0,1,.63,2.13,12.2,12.2,0,0,1,.19,2,9.61,9.61,0,0,1-.69,3.6,8.91,8.91,0,0,1-2,3.08,9.77,9.77,0,0,1-3.32,2.18,11.94,11.94,0,0,1-4.58.82h-6.31Zm2.62,16.9h3.31a10.59,10.59,0,0,0,3.16-.45A7.61,7.61,0,0,0,311,108a6.49,6.49,0,0,0,1.77-2.25,7.15,7.15,0,0,0,.66-3.16,10,10,0,0,0-.3-2.17A6.52,6.52,0,0,0,311.94,98a7,7,0,0,0-2.31-1.9,8.24,8.24,0,0,0-3.82-.78h-3.94Z"/><polygon class="cls-1" points="159.02 20.99 171.74 20.99 171.74 44.98 194.18 20.99 210.82 20.99 185.12 47.83 213.03 78.75 195.24 78.75 171.74 51.34 171.74 78.75 159.02 78.75 159.02 20.99"/><path class="cls-1" d="M236.44,21H247l25.13,57.76h-14.4l-5-12.24H230.32l-4.81,12.24h-14Zm4.89,16.81-7,17.94h14.11Z"/><polygon class="cls-1" points="278.37 20.99 291.1 20.99 291.1 44.98 313.54 20.99 330.18 20.99 304.48 47.83 332.38 78.75 314.6 78.75 291.1 51.34 291.1 78.75 278.37 78.75 278.37 20.99"/><path class="cls-1" d="M355.8,21h10.52l25.13,57.76H377.09l-5-12.24H349.68l-4.82,12.24h-14Zm4.89,16.81-7,17.94h14.12Z"/><path class="cls-1" d="M330.83,106.9a5.84,5.84,0,1,1-5.84-5.84h0a5.84,5.84,0,0,1,5.84,5.84"/></g></g></g></g></svg>