<svg width="4707" height="1148" viewBox="0 0 4707 1148" fill="none" xmlns="http://www.w3.org/2000/svg">
<path d="M916.026 1148H230.349C103.585 1148 0 1044.14 0 917.325V230.675C0 103.732 103.585 0 230.349 0H916.026C1042.66 0 1146.37 103.732 1146.37 230.675V917.325C1146.37 1044.14 1042.66 1148 916.026 1148Z" fill="#5A66F9"/>
<path d="M708.096 378.513C700.108 381.267 703.12 390.709 711.501 390.578L754.847 389.66L668.155 622.434L586.309 471.754C559.594 422.576 511.403 391.89 457.057 387.955H432.83H432.699C368.662 392.808 315.102 433.33 293.233 493.785L159.659 861.109C158.742 863.6 160.576 866.223 163.195 866.223H363.162C364.734 866.223 366.174 865.174 366.698 863.732L450.64 632.4L532.093 782.425C562.606 838.684 621.273 870.944 684.917 866.354C748.692 861.896 802.252 821.898 824.777 761.836L963.981 387.955L1000.52 285.928C1001.56 282.912 998.684 280.027 995.672 281.076L708.096 378.513Z" fill="white"/>
<path opacity="0.3" d="M293.086 493.692L159.643 861.146C158.727 863.638 160.56 866.261 163.179 866.261H363.147C364.718 866.261 366.159 865.211 366.682 863.769L450.624 632.438L532.078 782.462C558.792 831.64 606.853 862.457 661.199 866.392H685.032L432.683 387.993C368.516 392.714 315.086 433.236 293.086 493.692Z" fill="#5A66F9"/>
<path d="M356.216 612.726L263.369 861.236C262.452 863.728 264.286 866.351 266.905 866.351H363.287C364.859 866.351 366.299 865.301 366.823 863.859L450.765 632.528L433.872 606.169C416.455 578.761 368.264 582.564 356.216 612.726Z" fill="white"/>
<path opacity="0.3" d="M762.813 642.628L855.398 400.019C857.362 395.035 853.564 389.659 848.326 389.659H754.825L668.133 622.957L685.026 649.316C702.574 676.593 750.765 672.79 762.813 642.628Z" fill="#5A66F9"/>
<path d="M1885.7 681.583L1553.21 359.704C1527.16 334.436 1486.17 325.675 1449.01 337.483C1411.86 349.292 1387.72 378.496 1387.72 412.017V815.54H1506.22V466.362L1838.71 788.241C1857.1 806.017 1882.89 815.667 1909.45 815.667C1920.56 815.667 1931.93 814.016 1942.91 810.461C1980.06 798.653 2004.2 769.449 2004.2 735.927V337.737H1885.7V681.583V681.583Z" fill="#151D51"/>
<path d="M2085.41 458.879V805.517H2203.9V458.879C2203.9 444.657 2218.2 432.595 2235.06 432.595H2633.95V332.667H2235.06C2152.57 332.667 2085.41 389.297 2085.41 458.879Z" fill="#151D51"/>
<path d="M2633.95 523.629H2250.12V623.558H2633.95V523.629Z" fill="#151D51"/>
<path d="M2734.44 432.595H2970.02V805.645H3088.51V432.595H3324.1V332.667H2734.44V432.595Z" fill="#151D51"/>
<path d="M3509.63 621.78V523.248C3509.63 473.348 3557.77 432.716 3616.88 432.716H3966.36V332.788H3616.88C3492.39 332.788 3391.13 418.241 3391.13 523.248V621.78C3391.13 726.788 3492.39 812.241 3616.88 812.241H3834.46V712.313H3616.88C3557.77 712.186 3509.63 671.681 3509.63 621.78Z" fill="#151D51"/>
<path d="M3849.51 522.524H3629.13V622.452H3849.51C3866.24 622.452 3880.29 631.341 3880.29 641.879V805.676H3998.78V641.879C3998.78 575.98 3931.87 522.524 3849.51 522.524Z" fill="#5A66F9"/>
<path d="M4463.83 337.016H4316.74C4183.05 337.016 4074.39 428.818 4074.39 541.571V607.725C4074.39 720.478 4183.05 812.28 4316.74 812.28H4463.83C4597.52 812.28 4706.18 720.478 4706.18 607.725V541.571C4706.18 428.691 4597.52 337.016 4463.83 337.016ZM4587.82 607.725C4587.82 665.371 4532.27 712.351 4463.96 712.351H4316.86C4248.55 712.351 4193.01 665.498 4193.01 607.725V541.571C4193.01 483.925 4248.55 436.945 4316.86 436.945H4463.96C4532.27 436.945 4587.82 483.798 4587.82 541.571V607.725Z" fill="#151D51"/>
</svg>
