<svg xmlns="http://www.w3.org/2000/svg" viewBox="0 0 326 62"><defs><style>.cls-1{fill:#1450f0;}</style></defs><title>Nftscan</title><g id="图层_2" data-name="图层 2"><g id="图层_1-2" data-name="图层 1"><path class="cls-1" d="M210,16a4,4,0,0,1,4,4h16a20,20,0,0,0-40,0v4a20,20,0,0,0,40,0H214a4,4,0,0,1-8,0V20A4,4,0,0,1,210,16Z"/><polygon class="cls-1" points="50 0 48 0 48 44 64 44 64 40 84 40 84 24 64 24 64 16 88 16 88 0 64 0 50 0"/><path class="cls-1" d="M32,0H0V44H16V20a4,4,0,0,1,8,0V44H40V8A8,8,0,0,0,32,0Z"/><path class="cls-1" d="M306,0a20,20,0,0,0-20,20V44h16V20a4,4,0,0,1,8,0V44h16V20A20,20,0,0,0,306,0Z"/><path class="cls-1" d="M258,0a20,20,0,0,0-20,20V44h16V40h8v4h16V20A20,20,0,0,0,258,0Zm4,24h-8V20a4,4,0,0,1,8,0Z"/><polygon class="cls-1" points="96 16 107 16 107 44 123 44 123 16 134 16 134 0 96 0 96 16"/><path class="cls-1" d="M162,16a4,4,0,0,1,4,4h16a20,20,0,1,0-20,20,4,4,0,0,1,4,4,3.91,3.91,0,0,1-.56,2H181.9c.06-.66.1-1.32.1-2a20,20,0,0,0-20-20,4,4,0,0,1,0-8Z"/><path class="cls-1" d="M158,44H142c0,.68,0,1.34.1,2h16.46A3.91,3.91,0,0,1,158,44Z"/><path class="cls-1" d="M142.92,50h38.16a18.92,18.92,0,0,0,.52-2H142.4A18.92,18.92,0,0,0,142.92,50Z"/><path class="cls-1" d="M144.7,54h34.6a18.8,18.8,0,0,0,1-2H143.68A18.8,18.8,0,0,0,144.7,54Z"/><path class="cls-1" d="M147.73,58h28.54a20.18,20.18,0,0,0,1.7-2H146A20.18,20.18,0,0,0,147.73,58Z"/><path class="cls-1" d="M153.33,62h17.34A19.25,19.25,0,0,0,174,60H150A19.25,19.25,0,0,0,153.33,62Z"/></g></g></svg>