<svg xmlns="http://www.w3.org/2000/svg" viewBox="0 0 31.92 24.76"><defs><style>.cls-1{fill:#fc7823;fill-rule:evenodd;}</style></defs><title>coinask</title><g id="图层_2" data-name="图层 2"><g id="图层_1-2" data-name="图层 1"><g id="页面-1"><g id="logo-_1_" data-name="logo-(1)"><path id="形状" class="cls-1" d="M15.11,4.65a1,1,0,0,1,1.8,0l3.5,6a2.11,2.11,0,0,0,3.3.6h0a2.24,2.24,0,0,0,.2-2.7l-1.3-2.3-2.2-3.7a5.16,5.16,0,0,0-8.9,0L.31,21.65a2,2,0,0,0,.7,2.8,2.08,2.08,0,0,0,2.8-.7Zm15.3,14.8a2.1,2.1,0,0,0-3-.5h0a2,2,0,0,0-.6,2.6l1.3,2.2a2,2,0,1,0,3.5-2.1Z"/><path id="路径" class="cls-1" d="M27.41,14.25a2.33,2.33,0,0,0-3.4-.5,12.79,12.79,0,0,1-7.9,2.7,12.09,12.09,0,0,1-3.8-.6,2.42,2.42,0,0,0-2.8,1h0a1.81,1.81,0,0,0,.9,2.7,17.3,17.3,0,0,0,5.6.9,16.86,16.86,0,0,0,11-4,1.66,1.66,0,0,0,.4-2.2Z"/></g></g></g></g></svg>