<svg xmlns="http://www.w3.org/2000/svg" viewBox="0 0 52.3 14.54"><defs><style>.cls-1{fill:#0777b0;}</style></defs><title>Bluna</title><g id="图层_2" data-name="图层 2"><g id="图层_1-2" data-name="图层 1"><g id="h5"><g id="h5-new"><path id="Bluna" class="cls-1" d="M6.92,14.28A7.32,7.32,0,0,0,8.79,14a5,5,0,0,0,1.62-.74A3.62,3.62,0,0,0,11.54,12,3.94,3.94,0,0,0,12,10.14a4,4,0,0,0-.65-2.29,3.42,3.42,0,0,0-2-1.33,3.61,3.61,0,0,0,1.45-1.18,3.1,3.1,0,0,0,.49-1.8A3.81,3.81,0,0,0,11,1.86,2.74,2.74,0,0,0,10,.77,4.08,4.08,0,0,0,8.58.18,8.89,8.89,0,0,0,6.72,0H0V14.28Zm-.6-8.5H3.14V2.44H6.08a4.28,4.28,0,0,1,.81.07,2.1,2.1,0,0,1,.69.25,1.36,1.36,0,0,1,.48.5,1.66,1.66,0,0,1,.18.82,1.51,1.51,0,0,1-.54,1.3A2.24,2.24,0,0,1,6.32,5.78Zm.18,6.06H3.14V7.92H6.56a2.66,2.66,0,0,1,1.64.47A1.86,1.86,0,0,1,8.82,10a1.93,1.93,0,0,1-.19.92,1.57,1.57,0,0,1-.51.57,2.13,2.13,0,0,1-.74.3A4.17,4.17,0,0,1,6.5,11.84Zm10.2,2.44V0H13.86V14.28Zm6,.26a4.07,4.07,0,0,0,1.76-.4,3.23,3.23,0,0,0,1.4-1.3h.06v1.44h2.7V3.94H25.8V9.36a3.82,3.82,0,0,1-.52,2.27,2,2,0,0,1-1.68.69,1.55,1.55,0,0,1-1.42-.63,3.6,3.6,0,0,1-.4-1.91V3.94H18.94V10.3a8.59,8.59,0,0,0,.17,1.75,3.28,3.28,0,0,0,.59,1.34,2.65,2.65,0,0,0,1.15.85A5,5,0,0,0,22.72,14.54Zm10.92-.26V8.86a3.82,3.82,0,0,1,.52-2.27,2,2,0,0,1,1.68-.69,1.55,1.55,0,0,1,1.42.63,3.6,3.6,0,0,1,.4,1.91v5.84H40.5V7.92a8.59,8.59,0,0,0-.17-1.75,3.28,3.28,0,0,0-.59-1.34A2.75,2.75,0,0,0,38.59,4a4.77,4.77,0,0,0-1.87-.31A4.09,4.09,0,0,0,35,4.07a3.26,3.26,0,0,0-1.4,1.31H33.5V3.94H30.8V14.28Zm12.1.26a6.3,6.3,0,0,0,1.88-.28,3.7,3.7,0,0,0,1.6-1,4.46,4.46,0,0,0,.07.51,3.92,3.92,0,0,0,.13.49H52.3a2.39,2.39,0,0,1-.28-1A11.49,11.49,0,0,1,51.94,12h0V6.6a2.48,2.48,0,0,0-.42-1.51,2.85,2.85,0,0,0-1.08-.89A4.86,4.86,0,0,0,49,3.77a12.11,12.11,0,0,0-1.58-.11,9,9,0,0,0-1.71.17,4.67,4.67,0,0,0-1.53.57A3.44,3.44,0,0,0,43,5.46a3.32,3.32,0,0,0-.5,1.66h2.84a1.6,1.6,0,0,1,.56-1.2,2.16,2.16,0,0,1,1.32-.36,5.27,5.27,0,0,1,.71.05,1.54,1.54,0,0,1,.58.2,1.08,1.08,0,0,1,.4.42A1.5,1.5,0,0,1,49.1,7a.77.77,0,0,1-.26.67,2,2,0,0,1-.76.35,7.65,7.65,0,0,1-1.1.18c-.41,0-.83.09-1.26.16s-.85.16-1.27.27a3.47,3.47,0,0,0-1.12.51,2.62,2.62,0,0,0-.8.91,3,3,0,0,0-.31,1.45,3.27,3.27,0,0,0,.27,1.38,2.55,2.55,0,0,0,.75,1,3.19,3.19,0,0,0,1.12.56A5.11,5.11,0,0,0,45.74,14.54Zm1.06-1.88a3.52,3.52,0,0,1-.66-.06,1.63,1.63,0,0,1-.56-.21A1.07,1.07,0,0,1,45.2,12a1.38,1.38,0,0,1-.14-.64,1.4,1.4,0,0,1,.14-.66,1.28,1.28,0,0,1,.37-.43,2,2,0,0,1,.54-.27,4.85,4.85,0,0,1,.63-.16l.68-.1.65-.1a4.45,4.45,0,0,0,.58-.15,1.22,1.22,0,0,0,.45-.25h0v1.06a6.33,6.33,0,0,1-.05.64,2,2,0,0,1-.27.79,1.9,1.9,0,0,1-.68.67A2.49,2.49,0,0,1,46.8,12.66Z"/></g></g></g></g></svg>