<svg xmlns="http://www.w3.org/2000/svg" xmlns:xlink="http://www.w3.org/1999/xlink" viewBox="0 0 179.99 28.94"><defs><style>.cls-1{fill:none;}.cls-2{clip-path:url(#clip-path);}.cls-3{fill:#0053f1;}</style><clipPath id="clip-path" transform="translate(0.02)"><rect class="cls-1" width="180" height="28.9"/></clipPath></defs><title>Coldstack</title><g id="图层_2" data-name="图层 2"><g id="图层_1-2" data-name="图层 1"><g class="cls-2"><path class="cls-3" d="M45.11,25a2.64,2.64,0,0,0-1.35-.89,6.16,6.16,0,0,1-4.19,1.28c-3.47,0-5.46-2.3-5.46-5.6s2-5.71,5.32-5.71a4.56,4.56,0,0,1,3,.88v1.85c0,.28.18.57.64,1a1.72,1.72,0,0,0,1,.56c.28,0,.56-.17,1-.56s.64-.75.64-1V13.4c0-.56-.64-1.2-1.84-1.84a8.86,8.86,0,0,0-4.36-1,9.24,9.24,0,0,0-6.81,2.59,8.83,8.83,0,0,0-2.66,6.56A11.59,11.59,0,0,0,30,21l-15.46-8.8,6.28-3.58A1.82,1.82,0,1,0,19,5.43L12.66,9V1.81A1.81,1.81,0,1,0,9,1.81V9L2.7,5.43A1.84,1.84,0,0,0,.21,6.1,1.85,1.85,0,0,0,.89,8.58L7.2,12.16.92,15.74a1.84,1.84,0,0,0-.67,2.49,1.87,1.87,0,0,0,1.56.92,1.6,1.6,0,0,0,.89-.25L9,15.28v7.27a1.81,1.81,0,0,0,3.62,0v-7.3L33.55,27.13l1.63.92,0,0a1.78,1.78,0,0,0,.36.14,11,11,0,0,0,3.83.64A9,9,0,0,0,46,26.35C46.06,26.06,45.74,25.57,45.11,25Z" transform="translate(0.02)"/><path class="cls-3" d="M57,10.6a8.9,8.9,0,0,0-6.67,2.63,8.8,8.8,0,0,0-2.62,6.56,8.87,8.87,0,0,0,2.62,6.56A9.19,9.19,0,0,0,57,28.94a9,9,0,0,0,9.32-9.15,8.73,8.73,0,0,0-2.66-6.56A8.94,8.94,0,0,0,57,10.6ZM60.6,23.87a5,5,0,0,1-7.23,0A6.16,6.16,0,0,1,52,19.79a6.06,6.06,0,0,1,1.35-4.08,5,5,0,0,1,7.23,0A6,6,0,0,1,62,19.79,5.85,5.85,0,0,1,60.6,23.87Z" transform="translate(0.02)"/><path class="cls-3" d="M73.4.71c-.39-.43-.7-.64-1-.64h-5c-.28,0-.56.18-1,.64a1.53,1.53,0,0,0-.56,1,1.85,1.85,0,0,0,.56,1,1.7,1.7,0,0,0,1,.57H70V28.55h4V1.67C74,1.38,73.83,1.1,73.4.71Z" transform="translate(0.02)"/><path class="cls-3" d="M94.65,24.11V1.67c0-.29-.22-.57-.64-1s-.71-.64-1-.64H89.22c-.28,0-.57.18-1,.64a1.56,1.56,0,0,0-.57,1,1.88,1.88,0,0,0,.57,1,1.7,1.7,0,0,0,1,.57h1.42v7.91a10.78,10.78,0,0,0-3.44-.57,9.16,9.16,0,0,0-6.81,2.63,8.71,8.71,0,0,0-2.69,6.66,9,9,0,0,0,2.37,6.42,8,8,0,0,0,6,2.59,7.24,7.24,0,0,0,4.79-1.7c.46.64,1.31,1.35,1.73,1.35H95v-.47l-.11-.31A16.18,16.18,0,0,1,94.65,24.11Zm-4.05.22a5.53,5.53,0,0,1-3.51,1.1c-3.15,0-5.14-2.31-5.14-5.61s2-5.74,5.43-5.74a6.83,6.83,0,0,1,3.22.74Z" transform="translate(0.02)"/><path class="cls-3" d="M105.64,18.08c-1.07-.42-1.7-.74-2-.88-.92-.46-1.42-1-1.42-1.6,0-1.06,1-1.7,2.66-1.7a4.59,4.59,0,0,1,3.41,1.21c.28,0,.74-.32,1.31-.89a2.71,2.71,0,0,0,.89-1.31,7.53,7.53,0,0,0-5.71-2.27c-4.19,0-6.31,1.91-6.31,5.18,0,2.62,1.34,3.9,5.1,5.46l2.06.88c1.13.5,1.67,1.1,1.67,1.67,0,1.13-1.21,1.84-3,1.84a5.44,5.44,0,0,1-4-1.59c-.28,0-.74.32-1.34.92s-.89,1.1-.89,1.35a8.77,8.77,0,0,0,6.42,2.52c4.22,0,6.63-2,6.63-5.22a4.09,4.09,0,0,0-1.24-3.12A15.56,15.56,0,0,0,105.64,18.08Z" transform="translate(0.02)"/><path class="cls-3" d="M125.28,25.32c-.49-.53-.92-.82-1.2-.82a3.5,3.5,0,0,1-2.66,1c-1.28,0-2-.71-2-2.06V14.18h5.64V11h-5.64V4.57h-1.14L115.67,6v5h-1.91a1.59,1.59,0,0,0-1,.57,1.61,1.61,0,0,0-.57,1c0,.28.18.57.57,1a1.65,1.65,0,0,0,1,.56h1.67v9.93c0,3.2,1.7,4.79,5.1,4.79a7.58,7.58,0,0,0,5.53-2.37C126.1,26.24,125.82,25.82,125.28,25.32Z" transform="translate(0.02)"/><path class="cls-3" d="M142.06,24.11V16.74c0-4-2.38-6.14-7-6.14a9.26,9.26,0,0,0-6.88,2.63c0,.35.32.81.92,1.45s1.1.89,1.42.89a5.72,5.72,0,0,1,4.18-1.63c2.06,0,3.37,1,3.37,2.9v1.35a22,22,0,0,0-2.48-.14c-5.11,0-7.84,2.06-7.84,5.71,0,3.3,2.38,5.14,5.82,5.14a6.78,6.78,0,0,0,4.75-1.74c.49.68,1.35,1.42,1.81,1.42h2.41v-.46l-.11-.32A12.17,12.17,0,0,1,142.06,24.11Zm-4,.15a4.78,4.78,0,0,1-3.51,1.41c-1.88,0-2.8-.74-2.8-2.23,0-1.67,1.27-2.48,3.86-2.48a20.17,20.17,0,0,1,2.45.17Z" transform="translate(0.02)"/><path class="cls-3" d="M160.71,25c-.6-.57-1.06-.89-1.35-.89a6.15,6.15,0,0,1-4.18,1.28c-3.48,0-5.46-2.3-5.46-5.6s2-5.71,5.32-5.71a4.53,4.53,0,0,1,3,.88v1.85c0,.28.18.57.64,1a1.7,1.7,0,0,0,1,.56c.28,0,.56-.17.95-.56s.64-.75.64-1V13.4c0-.56-.64-1.2-1.84-1.84a8.86,8.86,0,0,0-4.36-1,9.23,9.23,0,0,0-6.81,2.59,8.68,8.68,0,0,0-2.66,6.56,8.77,8.77,0,0,0,2.66,6.6,9.44,9.44,0,0,0,6.88,2.59,9,9,0,0,0,6.63-2.52A3.66,3.66,0,0,0,160.71,25Z" transform="translate(0.02)"/><path class="cls-3" d="M174,19.5l5.6-6.49c0-.32-.39-.78-1.17-1.45a3.06,3.06,0,0,0-1.6-1l-6.17,7.09-1.56.22V1.67c0-.29-.17-.57-.63-1s-.71-.64-1-.64h-3.83c-.28,0-.56.18-1,.64a1.53,1.53,0,0,0-.56,1,1.85,1.85,0,0,0,.56,1,1.7,1.7,0,0,0,1,.57h1.42V28.55h4V21.42l1.45-.18,6.7,7.7c.32,0,.86-.36,1.6-1S180,26.7,180,26.38Z" transform="translate(0.02)"/></g></g></g></svg>