<svg xmlns="http://www.w3.org/2000/svg" xmlns:xlink="http://www.w3.org/1999/xlink" viewBox="0 0 79.87 103.24"><defs><style>.cls-1{fill:url(#未命名的渐变_10);}.cls-2{fill:url(#未命名的渐变_10-2);}.cls-3{fill:url(#未命名的渐变_10-3);}.cls-4{fill:url(#未命名的渐变_10-4);}.cls-5{fill:url(#未命名的渐变_10-5);}.cls-6{fill:url(#未命名的渐变_10-6);}.cls-7{fill:url(#未命名的渐变_10-7);}.cls-8{fill:url(#未命名的渐变_10-8);}.cls-9{fill:url(#未命名的渐变_10-9);}.cls-10{fill:url(#未命名的渐变_10-10);}</style><linearGradient id="未命名的渐变_10" x1="-9.41" y1="85.06" x2="45.26" y2="12.51" gradientTransform="matrix(1, 0, 0, -1, 0, 102.49)" gradientUnits="userSpaceOnUse"><stop offset="0" stop-color="#00365a"/><stop offset="0.25" stop-color="#00365a"/><stop offset="0.57" stop-color="#054e80"/><stop offset="0.73" stop-color="#075b93"/><stop offset="0.84" stop-color="#054e80"/><stop offset="1" stop-color="#054e80"/></linearGradient><linearGradient id="未命名的渐变_10-2" x1="-28.71" y1="67.57" x2="23.7" y2="-1.99" xlink:href="#未命名的渐变_10"/><linearGradient id="未命名的渐变_10-3" x1="28.76" y1="105.14" x2="79.93" y2="37.22" xlink:href="#未命名的渐变_10"/><linearGradient id="未命名的渐变_10-4" x1="3.38" y1="88.75" x2="55.41" y2="19.71" xlink:href="#未命名的渐变_10"/><linearGradient id="未命名的渐变_10-5" x1="21.28" y1="102.67" x2="74.35" y2="32.24" xlink:href="#未命名的渐变_10"/><linearGradient id="未命名的渐变_10-6" x1="4.06" y1="89.66" x2="56.58" y2="19.96" xlink:href="#未命名的渐变_10"/><linearGradient id="未命名的渐变_10-7" x1="-17.65" y1="74.5" x2="33.99" y2="5.97" xlink:href="#未命名的渐变_10"/><linearGradient id="未命名的渐变_10-8" x1="22.66" y1="103.14" x2="76.15" y2="32.14" xlink:href="#未命名的渐变_10"/><linearGradient id="未命名的渐变_10-9" x1="-25.2" y1="67.11" x2="24.42" y2="1.27" xlink:href="#未命名的渐变_10"/><linearGradient id="未命名的渐变_10-10" x1="0.6" y1="87.76" x2="52.46" y2="18.94" xlink:href="#未命名的渐变_10"/></defs><title>cruTransfer</title><g id="图层_2" data-name="图层 2"><g id="图层_1-2" data-name="图层 1"><path class="cls-1" d="M27.07,78.9l7.4,13.8q8.7-5.4,17.1-11.4L28.37,77C27,76.8,26.37,77.6,27.07,78.9Z"/><path class="cls-2" d="M18.87,75.3c-.3-.1-1.4.6-2.6,1.4L.17,88.7c-1.6,12.2,8.5,19.1,22.1,11.1,2.6-1.4,5.2-2.9,7.7-4.4l-9.4-17.7A9.11,9.11,0,0,0,18.87,75.3Z"/><path class="cls-3" d="M64.87,40.7l-9.5,7a2.16,2.16,0,0,0-.2,3.4L71.07,67c10-7.4,11.3-17.5,4.8-25.9l-6.4-1.4A6.21,6.21,0,0,0,64.87,40.7Z"/><path class="cls-4" d="M51,54.2a3.17,3.17,0,0,0-3.9-.3l-21,15.6c-1.1.8-.9,1.8.5,2l30.9,5.7c3.2-2.3,6.3-4.7,9.4-7.1Z"/><path class="cls-5" d="M57.67,37.1l-18.5-4c-1.4-.3-1.7.3-.7,1.3l9.3,9.3a3.17,3.17,0,0,0,3.9.3l6.4-4.8C59.27,38.4,59.07,37.4,57.67,37.1Z"/><path class="cls-6" d="M21.27,24.5,1.77,5c-2.4,4-2.5,10,.6,16.8l18.1,3.9C22,26.1,22.27,25.5,21.27,24.5Z"/><path class="cls-7" d="M15.07,67.3l-8.5-16a124.76,124.76,0,0,1-1.1,16.2l8.3,1.5C15.07,69.4,15.67,68.5,15.07,67.3Z"/><path class="cls-8" d="M35,28.9l26.2,5.7a6.21,6.21,0,0,0,4.6-1l.9-.7C52.37,22,38.07,12.1,22.27,3.4c-6.8-4-12.8-4.2-16.8-2l25.1,25.1A10.54,10.54,0,0,0,35,28.9Z"/><path class="cls-9" d="M8.87,73.5l-4.3-.8q-.75,3.9-1.8,7.8l6.6-4.9C10.47,74.6,10.27,73.7,8.87,73.5Z"/><path class="cls-10" d="M19.47,64.7a2.1,2.1,0,0,0,3.3.7l20.5-15.3a2.16,2.16,0,0,0,.2-3.4L29.17,32.4a10.54,10.54,0,0,0-4.4-2.4L3.37,25.4A101.73,101.73,0,0,1,5.77,39Z"/></g></g></svg>