<svg xmlns="http://www.w3.org/2000/svg" xmlns:xlink="http://www.w3.org/1999/xlink" viewBox="0 0 89.32 36"><defs><style>.cls-1{fill:url(#未命名的渐变);}.cls-2{fill:#8c175b;}</style><linearGradient id="未命名的渐变" x1="69.01" y1="17.58" x2="89.29" y2="17.58" gradientTransform="matrix(1, 0, 0, -1, 0, 33.89)" gradientUnits="userSpaceOnUse"><stop offset="0.24" stop-color="#f96943"/><stop offset="0.78" stop-color="#ce4e2c"/></linearGradient></defs><title>KILT</title><g id="图层_2" data-name="图层 2"><g id="e4ac0026-4202-48e5-9372-61150a1e7fb8"><path class="cls-1" d="M80,4.26,74,8.42,69,4.89V.69A.75.75,0,0,1,69.82,0h4.1Zm9.34,6.54-3.4-2.38L80,12.57l5.32,3.72,4,2.82ZM73.85,16.86l-2.89,2a5.11,5.11,0,0,0-1.85,3L74,25.31,80,21.15Zm12.06,8.45L80,29.46l4.54,3.17h4a1,1,0,0,0,.34-.06.76.76,0,0,0,.23-.13h0a.6.6,0,0,0,.24-.48V27.68Z"/><path class="cls-2" d="M87.23,14.93h0L69,27.69V36L89.31,21.78v-11A5.16,5.16,0,0,1,87.23,14.93Z"/><path class="cls-2" d="M89.31.55V4.89L71,17.74a5.14,5.14,0,0,0-2,4v-11L84.41,0h4.13A.77.77,0,0,1,89.31.55Z"/><path class="cls-2" d="M27.5.68V31.9a.71.71,0,0,1-.19.48h0a.46.46,0,0,1-.18.13.67.67,0,0,1-.28.06H22.66A.66.66,0,0,1,22,31.9V.68A.67.67,0,0,1,22.66,0h4.22A.68.68,0,0,1,27.5.68Z"/><path class="cls-2" d="M62.21.66V4a.66.66,0,0,1-.66.66H53.38L56,6.49a.32.32,0,0,1,.14.27V31.92a.66.66,0,0,1-.66.66H51.3a.67.67,0,0,1-.66-.66V5.35a.64.64,0,0,0-.59-.65H45.21A.66.66,0,0,1,44.55,4V.66A.67.67,0,0,1,45.21,0H61.55a.67.67,0,0,1,.66.66Z"/><path class="cls-2" d="M46.26,27.9H38.12a.65.65,0,0,1-.57-.53V.66A.67.67,0,0,0,36.89,0H32.66A.68.68,0,0,0,32,.66V31.92a.67.67,0,0,0,.66.66h13.6a.66.66,0,0,0,.66-.66V28.56A.67.67,0,0,0,46.26,27.9Z"/><path class="cls-2" d="M18.6,31.6,10.05,16a.64.64,0,0,1,0-.63L18,1a.66.66,0,0,0-.27-.89A.68.68,0,0,0,17.4,0H12.66a.67.67,0,0,0-.58.34L5.55,12.15V.66A.67.67,0,0,0,4.89,0H.66A.68.68,0,0,0,0,.66V31.92a.67.67,0,0,0,.66.66H4.88a.66.66,0,0,0,.66-.66V24.71l-2-9,9.12,16.53a.64.64,0,0,0,.57.34H18a.66.66,0,0,0,.66-.66A.72.72,0,0,0,18.6,31.6Z"/></g></g></svg>