<svg width="118" height="26" viewBox="0 0 118 26" fill="none" xmlns="http://www.w3.org/2000/svg">
<path fill-rule="evenodd" clip-rule="evenodd" d="M73.8912 13.1098L83.9913 25.67C84.0724 25.7691 84.1751 25.8484 84.2914 25.9019C84.4077 25.9554 84.5347 25.9816 84.6627 25.9787H90.318C90.4585 25.9936 90.6003 25.9673 90.7262 25.9031C90.8521 25.8389 90.9567 25.7396 91.0273 25.6172C91.0978 25.4947 91.1313 25.3544 91.1238 25.2133C91.1162 25.0722 91.0678 24.9364 90.9845 24.8222L81.5802 13.1098C81.3499 12.8246 81.2301 12.466 81.2427 12.0997C81.2553 11.7334 81.3995 11.3839 81.6489 11.1152L90.8081 1.20134C90.9044 1.09056 90.9649 0.95313 90.9815 0.807233C90.9981 0.661336 90.97 0.51384 90.901 0.384248C90.8319 0.254657 90.7252 0.149073 90.5948 0.0814609C90.4645 0.013849 90.3167 -0.0126053 90.171 0.00559201H84.6284C84.5093 0.00381958 84.3912 0.0268673 84.2815 0.0732728C84.1718 0.119678 84.073 0.188426 83.9913 0.275126L73.9598 11.1103C73.711 11.3803 73.5673 11.7305 73.5547 12.0973C73.5421 12.4642 73.6615 12.8234 73.8912 13.1098ZM32.432 0.00722882H28.8546C28.2186 0.00722882 27.703 0.522835 27.703 1.15887V24.8287C27.703 25.4648 28.2186 25.9804 28.8546 25.9804H32.432C33.0681 25.9804 33.5837 25.4648 33.5837 24.8287V1.15887C33.5837 0.522835 33.0681 0.00722882 32.432 0.00722882ZM117.384 13.9322V11.6534C117.384 10.9985 116.853 10.4675 116.198 10.4675H101.418C100.763 10.4675 100.232 10.9985 100.232 11.6534V13.9322C100.232 14.5872 100.763 15.1182 101.418 15.1182H116.198C116.853 15.1182 117.384 14.5872 117.384 13.9322ZM117.384 22.5127V24.7915C117.384 25.4465 116.853 25.9774 116.198 25.9774H101.418C100.763 25.9774 100.232 25.4465 100.232 24.7915V22.5127C100.232 21.8577 100.763 21.3268 101.418 21.3268H116.198C116.853 21.3268 117.384 21.8577 117.384 22.5127ZM117.379 3.47195V1.19316C117.379 0.538185 116.848 0.00722882 116.193 0.00722882H101.413C100.758 0.00722882 100.227 0.538186 100.227 1.19316V3.47195C100.227 4.12693 100.758 4.65789 101.413 4.65789H116.193C116.848 4.65789 117.379 4.12693 117.379 3.47195ZM55.9014 0.00723239C59.5278 0.00723239 64.3745 2.54084 64.4578 11.5285V11.5726V25.0003C64.4578 25.2602 64.3546 25.5095 64.1708 25.6933C63.987 25.8771 63.7377 25.9804 63.4777 25.9804H59.5572C59.2973 25.9804 59.048 25.8771 58.8642 25.6933C58.6804 25.5095 58.5771 25.2602 58.5771 25.0003V12.7488C58.5771 5.88795 55.2055 5.88795 53.6765 5.88795H50.2461C49.9862 5.88795 49.7369 5.99121 49.5531 6.17501C49.3693 6.35882 49.266 6.60812 49.266 6.86806V25.0003C49.266 25.2602 49.1627 25.5095 48.9789 25.6933C48.7951 25.8771 48.5458 25.9804 48.2859 25.9804H44.3654C44.1055 25.9804 43.8562 25.8771 43.6723 25.6933C43.4885 25.5095 43.3853 25.2602 43.3853 25.0003V3.38374C43.3846 2.94015 43.4715 2.50079 43.641 2.09084C43.8104 1.6809 44.0591 1.30841 44.3728 0.994747C44.6865 0.68108 45.0589 0.432397 45.4689 0.26294C45.8788 0.0934833 46.3182 0.00658716 46.7618 0.00723239H55.9014ZM5.45777 0.410562C5.19952 0.152312 4.84926 0.00722882 4.48404 0.00722882H1.37707C1.01184 0.00722882 0.661583 0.152312 0.403333 0.410562C0.145083 0.668812 0 1.01907 0 1.38429V14.6649C0 21.2317 3.18538 26 11.3302 26H16.8041C17.1694 26 17.5196 25.8549 17.7779 25.5966C18.0361 25.3384 18.1812 24.9881 18.1812 24.6229V21.1484C18.1812 20.7832 18.0361 20.4329 17.7779 20.1747C17.5196 19.9164 17.1694 19.7713 16.8041 19.7713H11.6487C6.84122 19.7713 5.86111 17.7817 5.86111 14.6159V1.38429C5.86111 1.01907 5.71602 0.668812 5.45777 0.410562Z" fill="#333333"/>
</svg>
