<svg xmlns="http://www.w3.org/2000/svg" viewBox="0 0 133.96 18.38"><defs><style>.cls-1{fill-rule:evenodd;}.cls-2{fill:#c91d27;}</style></defs><title>SOCBAY</title><g id="图层_2" data-name="图层 2"><g id="图层_1-2" data-name="图层 1"><g id="Layer"><path id="Layer-2" data-name="Layer" class="cls-1" d="M111.6,3.8c.12.05,8,10.56,7.94,10.63a7,7,0,0,1-1.22.06c-1.39,0-1.1.2-2.51-1.68l-1-1.31h-6.48l-1,1.39c-.57.77-1.09,1.44-1.15,1.5a10.51,10.51,0,0,1-2.5,0,1.44,1.44,0,0,1,.29-.5c.19-.23,2-2.61,4-5.29S111.55,3.79,111.6,3.8Zm0,3.45A14.62,14.62,0,0,0,110,9.33s.75,0,1.63,0l1.58,0-.76-1A8.74,8.74,0,0,0,111.6,7.25ZM120,4.33h.9a6.4,6.4,0,0,1,1,0c.1,0,.12.18.12.69a2.39,2.39,0,0,0,.42,1.6A4.15,4.15,0,0,0,124.39,8a8.54,8.54,0,0,0,6.34-.58,2.51,2.51,0,0,0,1.2-2.24,2.64,2.64,0,0,1,.09-.78,4.34,4.34,0,0,1,1,0l.93,0v.91a3.7,3.7,0,0,1-.18,1.43,4.38,4.38,0,0,1-1.26,1.89,7.25,7.25,0,0,1-4.19,1.76l-.3,0v1.71a20.31,20.31,0,0,1-.06,2l0,.31h-2v-2c0-1.69,0-2-.12-2.06a2.56,2.56,0,0,0-.61-.11,6.19,6.19,0,0,1-4.74-2.91A4.3,4.3,0,0,1,120,5.17Zm-80.86.09h5.81V6.46H39.34c-6.26,0-6.05,0-6.27.53a.9.9,0,0,0,.59,1.28c.16,0,2.14.09,4.46.1l4.17,0,.57.2a4.94,4.94,0,0,1,.89.43,3.09,3.09,0,0,1,1,3.42A2.81,2.81,0,0,1,43,14.27l-.45.18-5.81,0-5.81,0V12.36h5.75l5.75,0,.2-.2A1,1,0,0,0,42.77,11c-.32-.49-.13-.47-4.93-.52-4.27,0-4.38-.05-4.84-.22a3,3,0,0,1-2.07-3.14,2.88,2.88,0,0,1,2-2.58A54.43,54.43,0,0,1,39.12,4.42Zm21.13.15c2,.16,2.85.76,3.15,2.16a31.42,31.42,0,0,1,0,5.06,2.7,2.7,0,0,1-2.35,2.51,49.35,49.35,0,0,1-7.08.21c-2.27-.12-2.89-.29-3.6-1s-.82-1.56-.82-3.83a11.65,11.65,0,0,1,.32-3.35A2.48,2.48,0,0,1,51.25,5c.75-.29,1.33-.35,3.6-.4A52,52,0,0,1,60.25,4.57ZM52.48,6.76c-.65.15-.69.19-.79,1a24.88,24.88,0,0,0,.07,4.15c.2.48.77.55,4.5.54A22.27,22.27,0,0,0,61,12.2c.44-.13.47-.32.47-2.83A11.54,11.54,0,0,0,61.33,7a.78.78,0,0,0-.46-.26A58.93,58.93,0,0,0,52.48,6.76ZM92.36,4.49c6.37,0,6.22,0,7.13.62a2.58,2.58,0,0,1,1.05,1.36,3.49,3.49,0,0,1-.29,2.78c-.17.25-.19.33-.12.44a4.6,4.6,0,0,1,.31.55,2.33,2.33,0,0,1,.21,1.34,2.27,2.27,0,0,1-.23,1.36,3,3,0,0,1-2.13,1.55c-.26.06-2.37.07-6,.06l-5.59,0,0-4.92c0-2.71,0-5,0-5A50.14,50.14,0,0,1,92.36,4.49Zm.83,2.05h-4.4l0,1,0,1,4.34,0c3,0,4.45,0,4.74-.06.53-.12.73-.36.73-.87a.86.86,0,0,0-.69-.9C97.64,6.55,97,6.54,93.19,6.54Zm0,4H88.79l0,1,0,1,4.38,0c3.71,0,4.42,0,4.78-.11.51-.15.65-.33.65-.87a.81.81,0,0,0-.69-.88A44.7,44.7,0,0,0,93.21,10.55ZM82.06,4.65a5.22,5.22,0,0,1,0,1l0,.94h-3.8c-2.09,0-4,0-4.34.07C72.1,7,71,7.56,70.46,8.54a1.74,1.74,0,0,0-.21,1,1.75,1.75,0,0,0,.23,1c.6,1.07,1.91,1.67,4.11,1.83.67.06,2.42.08,4.27.06l3.15,0,0,1a5.1,5.1,0,0,1,0,1c-.08.09-6.24.11-7.56,0C71.06,14.28,69,13,68.31,10.67a5.37,5.37,0,0,1,.07-2.46,5,5,0,0,1,3.09-3,7.43,7.43,0,0,1,2.09-.52C74.49,4.55,82,4.53,82.06,4.65Z"/><path id="Layer-3" data-name="Layer" class="cls-2" d="M9.49,4c0,3.16,0,4,.12,3.84l1.76-1.91A15.48,15.48,0,0,0,13,4a2.27,2.27,0,0,0-.5-.71C10.43,1,10,.61,9.78.32L9.49,0ZM3,2.6S4.22,3.9,5.74,5.41L8.49,8.16,8.43,5.87c0-1.27-.08-2.48-.12-2.71l-.06-.41L6.7,2.69A25.13,25.13,0,0,0,3,2.6ZM13.12,5.66,10.36,8.44l.4,0c.48,0,4.88-.14,4.93-.2s.25-5,.2-5.24A24.26,24.26,0,0,0,13.12,5.66Zm-9.6.1L1.92,7.25.37,8.69,0,9H8l-.55-.52L5.67,6.86A12.67,12.67,0,0,0,4,5.37,4.52,4.52,0,0,0,3.52,5.76Zm5.5,3c-.21.1-.26.2-.26.45a.53.53,0,0,0,.6.6c.35,0,.5-.19.5-.64a.4.4,0,0,0-.28-.42C9.27,8.55,9.33,8.55,9,8.72Zm2,1.21c1.5,1.42,3,2.78,3.22,3l.28.25.24-.21c.48-.42,3.64-3.4,3.64-3.43s-1.76,0-3.92,0H10.55ZM7.83,10s-1.14.06-2.51.1-2.49.08-2.52.1-.17,2.88-.18,4.3v1.1l2.76-2.75C6.88,11.33,8.12,10.06,8.12,10S7.91,9.92,7.83,10ZM10,10.8c0,.26.08,1.48.11,2.7l.06,2.21.47.06c.26,0,1.48.07,2.72.11l2.24,0L12.8,13.12c-1.55-1.54-2.82-2.8-2.84-2.8A1.48,1.48,0,0,0,10,10.8Zm-1.56.37L6.62,13.11a12,12,0,0,0-1.24,1.43s.51.58,1.09,1.21l1.74,1.87a6.78,6.78,0,0,0,.76.76S9,16.64,9,14.49s0-3.9,0-3.9A5.93,5.93,0,0,0,8.43,11.17Z"/></g></g></g></svg>