<svg xmlns="http://www.w3.org/2000/svg" viewBox="0 0 486.68 118.57"><defs><style>.cls-1{fill:#262a29;}.cls-2{fill:#078e3e;}</style></defs><title>HECO</title><g id="图层_2" data-name="图层 2"><g id="图层_1-2" data-name="图层 1"><path class="cls-1" d="M205.54,109.14V67.32H172.2v37.07a4.75,4.75,0,0,1-4.75,4.75H153v-95a4.74,4.74,0,0,1,4.75-4.74H172.2V50.3h33.34V14.15a4.75,4.75,0,0,1,4.75-4.74h14.48v95a4.75,4.75,0,0,1-4.75,4.75Z"/><path class="cls-1" d="M247.74,109.14v-95a4.75,4.75,0,0,1,4.75-4.74h60.14v12.4a4.75,4.75,0,0,1-4.75,4.75H267V50.3h38.88V62.71a4.75,4.75,0,0,1-4.75,4.74H267V92h45.66v12.4a4.75,4.75,0,0,1-4.75,4.75Z"/><path class="cls-1" d="M364.37,109.37a36.27,36.27,0,0,1-26.56-10.79c-10-10-9.68-22.27-9.68-39.29S327.85,30,337.81,20A36.27,36.27,0,0,1,364.37,9.21c18.4,0,32.79,10.51,36.25,31.13h-16a4.73,4.73,0,0,1-4.43-3.05c-2.41-6.35-7.27-10.92-15.66-10.92-5.26,0-9.55,1.93-12.31,5.11-3.74,4.15-4.84,8.86-4.84,27.81S348.46,83,352.2,87.1c2.76,3.18,7.05,5.12,12.31,5.12,9.69,0,14.67-6.09,16.6-14h13.52a4.73,4.73,0,0,1,4.57,6.06C394.12,100.92,380.75,109.37,364.37,109.37Z"/><path class="cls-1" d="M476.85,98.58c-6.91,6.92-15.35,10.79-26.56,10.79s-19.78-3.87-26.7-10.79c-10-10-9.69-22.27-9.69-39.29S413.63,30,423.59,20c6.92-6.92,15.49-10.79,26.7-10.79S469.94,13.08,476.85,20c10,10,9.83,22.27,9.83,39.29S486.81,88.62,476.85,98.58Zm-14.25-67a16,16,0,0,0-12.31-5.25,16.3,16.3,0,0,0-12.45,5.25c-3.74,4.15-4.71,8.72-4.71,27.67s1,23.52,4.71,27.67a16.3,16.3,0,0,0,12.45,5.26A16,16,0,0,0,462.6,87c3.74-4.15,4.84-8.72,4.84-27.67S466.34,35.77,462.6,31.62Z"/><path class="cls-2" d="M29.76,5.79V21.38A58,58,0,0,0,0,46.51V0H24A5.78,5.78,0,0,1,29.76,5.79Z"/><path class="cls-2" d="M71.07,25.52V40.45A14.92,14.92,0,0,1,56.15,55.37H51.29a21.5,21.5,0,0,0-21.5,21.46v41.74h-24A5.78,5.78,0,0,1,0,112.79V77.44c0-.62,0-1.24,0-1.86a50.1,50.1,0,0,1,50.09-50.1c.63,0,1.25,0,1.86,0Z"/><path class="cls-2" d="M78.79,112.78V97.2a58,58,0,0,0,29.72-25.14v46.51H84.57A5.79,5.79,0,0,1,78.79,112.78Z"/><path class="cls-2" d="M37.49,93.05V78.12A14.9,14.9,0,0,1,52.4,63.21h4.86a21.5,21.5,0,0,0,21.5-21.47V0h24a5.78,5.78,0,0,1,5.78,5.79V41.14c0,.62,0,1.23,0,1.86A50.09,50.09,0,0,1,58.46,93.09c-.63,0-1.24,0-1.86,0Z"/></g></g></svg>