<svg xmlns="http://www.w3.org/2000/svg" viewBox="0 0 342 90"><title>NEAR</title><g id="图层_2" data-name="图层 2"><g id="图层_1-2" data-name="图层 1"><g id="Layer_1" data-name="Layer 1"><path d="M171.21,18.75v52.5a.77.77,0,0,1-.75.75H165a7.49,7.49,0,0,1-6.3-3.43l-24.78-38.3.85,19.13V71.25A.77.77,0,0,1,134,72H126.8a.77.77,0,0,1-.75-.75V18.75a.77.77,0,0,1,.75-.75h5.43a7.53,7.53,0,0,1,6.3,3.42l24.78,38.24-.77-19.06V18.75a.76.76,0,0,1,.75-.75h7.22A.76.76,0,0,1,171.21,18.75Z"/><path d="M245,72h-7.64a.74.74,0,0,1-.74-.76.67.67,0,0,1,0-.24L256.9,18.72A1.14,1.14,0,0,1,258,18h9.57a1.14,1.14,0,0,1,1.05.72L288.8,71a.75.75,0,0,1-.46,1,1,1,0,0,1-.24,0h-7.64a.77.77,0,0,1-.71-.48l-16.31-43a.75.75,0,0,0-1-.45.77.77,0,0,0-.45.45l-16.31,43A.76.76,0,0,1,245,72Z"/><path d="M341.84,70.79,326.66,51.4c8.57-1.62,13.58-7.4,13.58-16.27,0-10.19-6.63-17.13-18.36-17.13H300.71a1.12,1.12,0,0,0-1.12,1.12h0a7.2,7.2,0,0,0,7.2,7.2H321c7.09,0,10.49,3.63,10.49,8.87s-3.32,9-10.49,9H300.71a1.13,1.13,0,0,0-1.12,1.13v26a.76.76,0,0,0,.75.75h7.22a.77.77,0,0,0,.75-.75V51.87h8.33l13.17,17.19a7.53,7.53,0,0,0,6,2.94h5.48a.76.76,0,0,0,.71-.79A.8.8,0,0,0,341.84,70.79Z"/><path d="M222.17,18h-33.5a1,1,0,0,0-1,1h0A7.33,7.33,0,0,0,195,26.33h27.17a.74.74,0,0,0,.75-.73V18.75A.76.76,0,0,0,222.17,18Zm0,45.67h-25a.77.77,0,0,1-.75-.75V49.38a.76.76,0,0,1,.75-.75h23.11a.76.76,0,0,0,.75-.75V41a.76.76,0,0,0-.75-.75H188.79a1.13,1.13,0,0,0-1.12,1.13V70.84A1.12,1.12,0,0,0,188.79,72h33.38a.76.76,0,0,0,.75-.75V64.38A.74.74,0,0,0,222.17,63.67Z"/><path d="M72.24,4.57,53.42,32.5a2,2,0,0,0,3,2.63l18.52-16a.73.73,0,0,1,1,.05.78.78,0,0,1,.19.51V70a.74.74,0,0,1-.76.74.76.76,0,0,1-.56-.26l-56-67A9.6,9.6,0,0,0,11.54,0H9.59A9.59,9.59,0,0,0,0,9.59H0V80.41A9.59,9.59,0,0,0,9.59,90h0a9.59,9.59,0,0,0,8.17-4.57L36.58,57.5a2,2,0,0,0-3-2.63l-18.52,16A.73.73,0,0,1,14,70.82a.78.78,0,0,1-.19-.51V20.07a.74.74,0,0,1,.76-.74.76.76,0,0,1,.56.26l56,67A9.59,9.59,0,0,0,78.47,90h2a9.59,9.59,0,0,0,9.59-9.59h0V9.59A9.59,9.59,0,0,0,80.47,0h-.06A9.59,9.59,0,0,0,72.24,4.57Z"/></g></g></g></svg>