<svg xmlns="http://www.w3.org/2000/svg" viewBox="0 0 21.19 4.74"><defs><style>.cls-1{fill:#212121;}.cls-2{fill:#8247e5;}</style></defs><title>Polygon</title><g id="图层_2" data-name="图层 2"><g id="Layer_1" data-name="Layer 1"><path class="cls-1" d="M8.29,1.51a.79.79,0,0,1,.31.34,1.12,1.12,0,0,1,.12.53,1,1,0,0,1-.13.52.82.82,0,0,1-.35.34,1.24,1.24,0,0,1-.52.11.81.81,0,0,1-.31-.06.63.63,0,0,1-.26-.16v1H6.57V1.43h.5l0,.22a1.13,1.13,0,0,1,.71-.27A.8.8,0,0,1,8.29,1.51ZM8,2.75a.5.5,0,0,0,.16-.36A.53.53,0,0,0,8,2a.46.46,0,0,0-.35-.14A.54.54,0,0,0,7.35,2a.46.46,0,0,0-.19.2V2.6a.37.37,0,0,0,.16.21.51.51,0,0,0,.28.08A.53.53,0,0,0,8,2.75Z"/><path class="cls-1" d="M9.06,1.86a.94.94,0,0,1,.37-.34A1.12,1.12,0,0,1,10,1.39a1.08,1.08,0,0,1,.54.13.88.88,0,0,1,.35.34,1,1,0,0,1,.13.51,1,1,0,0,1-.13.5.84.84,0,0,1-.35.35,1.09,1.09,0,0,1-.55.13,1.19,1.19,0,0,1-.54-.12.87.87,0,0,1-.37-.34,1.09,1.09,0,0,1,0-1Zm.59.87a.37.37,0,0,0,.31.14.4.4,0,0,0,.33-.14.52.52,0,0,0,.12-.36A.52.52,0,0,0,10.29,2,.41.41,0,0,0,10,1.86.37.37,0,0,0,9.65,2a.48.48,0,0,0-.13.36A.52.52,0,0,0,9.65,2.73Z"/><path class="cls-1" d="M11.94,0V3.3h-.59V0Z"/><path class="cls-1" d="M14.32,1.48l-1.18,2.7h-.56l.44-1-.85-1.72h.66l.48,1.07.48-1.07Z"/><path class="cls-1" d="M16.54,1.48V3.3a.8.8,0,0,1-.15.47,1.08,1.08,0,0,1-.4.33,1.26,1.26,0,0,1-.55.12,1.25,1.25,0,0,1-.4-.06A.85.85,0,0,1,14.77,4a1.49,1.49,0,0,1-.24-.18l.34-.4a1,1,0,0,0,.25.18.57.57,0,0,0,.31.07.62.62,0,0,0,.37-.11A.37.37,0,0,0,16,3.29V3a.54.54,0,0,1-.26.23.87.87,0,0,1-.42.09.84.84,0,0,1-.46-.13.86.86,0,0,1-.33-.35.92.92,0,0,1-.13-.49,1.1,1.1,0,0,1,.13-.51,1.1,1.1,0,0,1,.35-.36.9.9,0,0,1,.45-.13,1.19,1.19,0,0,1,.4.07.6.6,0,0,1,.27.17L16,1.48ZM16,2.6V2.15a.43.43,0,0,0-.19-.21.65.65,0,0,0-.31-.08.5.5,0,0,0-.51.5.5.5,0,0,0,.15.37.49.49,0,0,0,.36.14A.53.53,0,0,0,16,2.6Z"/><path class="cls-1" d="M17,1.86a.94.94,0,0,1,.37-.34,1.09,1.09,0,0,1,.55-.13,1,1,0,0,1,.53.13.85.85,0,0,1,.36.34,1,1,0,0,1,0,1,.81.81,0,0,1-.36.35,1,1,0,0,1-.54.13,1.19,1.19,0,0,1-.54-.12A.87.87,0,0,1,17,2.89a1,1,0,0,1-.13-.52A1,1,0,0,1,17,1.86Zm.58.87a.4.4,0,0,0,.32.14.39.39,0,0,0,.32-.14.48.48,0,0,0,.13-.36A.48.48,0,0,0,18.24,2a.39.39,0,0,0-.32-.15A.41.41,0,0,0,17.6,2a.52.52,0,0,0-.12.36A.56.56,0,0,0,17.6,2.73Z"/><path class="cls-1" d="M21,1.54a.52.52,0,0,1,.18.4V3.3H20.6V2.15a.23.23,0,0,0-.26-.26.36.36,0,0,0-.32.18.91.91,0,0,0-.13.49V3.3h-.58V1.48h.53l0,.29a.75.75,0,0,1,.28-.28.82.82,0,0,1,.42-.1A.63.63,0,0,1,21,1.54Z"/><path class="cls-2" d="M4.09,1.45a.32.32,0,0,0-.33,0L3,1.91l-.53.3-.78.46a.34.34,0,0,1-.34,0L.7,2.31A.34.34,0,0,1,.53,2V1.31A.34.34,0,0,1,.7,1L1.32.66a.34.34,0,0,1,.34,0L2.27,1a.34.34,0,0,1,.17.29v.46L3,1.46V1A.32.32,0,0,0,2.8.71L1.66.05a.3.3,0,0,0-.34,0L.17.71A.32.32,0,0,0,0,1V2.33a.32.32,0,0,0,.17.29l1.15.66a.34.34,0,0,0,.34,0l.78-.45L3,2.52l.79-.45a.33.33,0,0,1,.33,0l.62.36a.34.34,0,0,1,.17.29v.71a.34.34,0,0,1-.17.29l-.62.35a.33.33,0,0,1-.33,0l-.62-.35A.34.34,0,0,1,3,3.43V3l-.53.31v.46A.32.32,0,0,0,2.61,4l1.15.66a.33.33,0,0,0,.33,0L5.24,4a.32.32,0,0,0,.17-.29V2.41a.32.32,0,0,0-.17-.29Z"/></g></g></svg>