<svg xmlns="http://www.w3.org/2000/svg" xmlns:xlink="http://www.w3.org/1999/xlink" viewBox="0 0 792 96"><defs><style>.cls-1{fill:none;}.cls-2{fill-rule:evenodd;fill:url(#未命名的渐变);}</style><linearGradient id="未命名的渐变" x1="5.22" y1="-2.23" x2="105.42" y2="97.97" gradientTransform="matrix(1, 0, 0, -1, 0, 95.89)" gradientUnits="userSpaceOnUse"><stop offset="0" stop-color="#9945ff"/><stop offset="0.14" stop-color="#8a53f4"/><stop offset="0.42" stop-color="#6377d6"/><stop offset="0.79" stop-color="#24b0a7"/><stop offset="0.99" stop-color="#00d18c"/><stop offset="1" stop-color="#00d18c"/></linearGradient></defs><title>SOLANA</title><g id="图层_2" data-name="图层 2"><g id="图层_1-2" data-name="图层 1"><rect class="cls-1" width="792" height="96"/><path d="M233.53,38.4H175.8V19.2h72.68V0H175.67A19.05,19.05,0,0,0,156.6,19.07V38.53A19.05,19.05,0,0,0,175.67,57.6H233.4V76.8H158V96h75.56A19.07,19.07,0,0,0,252.6,76.93V57.47A19.07,19.07,0,0,0,233.53,38.4Z"/><path d="M345.33,0H287.39a19.06,19.06,0,0,0-19.06,19.07V76.93A19,19,0,0,0,287.39,96h57.94A19.05,19.05,0,0,0,364.4,76.93V19.07A19.05,19.05,0,0,0,345.33,0Zm-.13,76.8H287.6V19.2h57.6Z"/><path d="M548.13,0h-56.5a19.05,19.05,0,0,0-19.07,19.07V96h19.2V64.45H548V96h19.2V19.07A19.06,19.06,0,0,0,548.13,0ZM548,45.25H491.76v-26H548Z"/><path d="M772.93,0H716.44a18.91,18.91,0,0,0-7.31,1.44,19.09,19.09,0,0,0-11.8,17.63V96h19.2V64.45H772.8V96H792V19.07A19.05,19.05,0,0,0,772.93,0Zm-.13,45.25H716.57v-26H772.8Z"/><path d="M661.08,76.8H653.4L625.88,8a12.7,12.7,0,0,0-11.8-8H597a12.7,12.7,0,0,0-12.71,12.71V96h19.2V19.2h7.68L638.67,88a12.68,12.68,0,0,0,11.78,8h17.1a12.7,12.7,0,0,0,12.7-12.71V0h-19.2Z"/><path d="M400.61,0h-19.2V76.93A19.07,19.07,0,0,0,400.48,96h57.73V76.8h-57.6Z"/><path class="cls-2" d="M20.32,73.2a3.6,3.6,0,0,1,1.21-.87A3.66,3.66,0,0,1,23,72h83.78a1.79,1.79,0,0,1,1,.31,1.94,1.94,0,0,1,.67.8,1.81,1.81,0,0,1,.12,1,1.84,1.84,0,0,1-.45.94L90.35,94.8A3.75,3.75,0,0,1,87.68,96H3.84a1.76,1.76,0,0,1-1-.31,1.85,1.85,0,0,1-.8-1.83,1.85,1.85,0,0,1,.46-.94Zm87.87-16.35a1.88,1.88,0,0,1,.45.94,1.82,1.82,0,0,1-.79,1.83,1.79,1.79,0,0,1-1,.31L23,60a3.75,3.75,0,0,1-2.67-1.2L2.48,39.15a1.82,1.82,0,0,1-.33-2,1.75,1.75,0,0,1,.67-.8,1.76,1.76,0,0,1,1-.31L87.63,36a3.65,3.65,0,0,1,1.45.33,3.6,3.6,0,0,1,1.21.87ZM20.32,1.2A3.6,3.6,0,0,1,21.53.33,3.66,3.66,0,0,1,23,0l83.84.07a1.76,1.76,0,0,1,1,.31,1.75,1.75,0,0,1,.67.8,1.9,1.9,0,0,1,.13,1,1.89,1.89,0,0,1-.46.94L90.35,22.8A3.75,3.75,0,0,1,87.68,24H3.84a1.76,1.76,0,0,1-1-.31,1.85,1.85,0,0,1-.8-1.83,1.85,1.85,0,0,1,.46-.94Z"/></g></g></svg>