<svg xmlns="http://www.w3.org/2000/svg" viewBox="0 0 200 194.9"><defs><style>.cls-1{fill:#fc7823;}</style></defs><title>github</title><g id="图层_2" data-name="图层 2"><g id="图层_1-2" data-name="图层 1"><path class="cls-1" d="M0,100A98.18,98.18,0,0,1,7.91,61.12,97.85,97.85,0,0,1,61.14,7.9a99.47,99.47,0,0,1,77.72,0,97.83,97.83,0,0,1,53.23,53.23A98,98,0,0,1,200,100,97.07,97.07,0,0,1,181,158.68q-19,26.07-48.92,36.22a3.88,3.88,0,0,1-2.34-.58,2,2,0,0,1-.88-1.17,11.47,11.47,0,0,1-.1-1.76,1.52,1.52,0,0,1-.19-.58v-25.2a27.68,27.68,0,0,0-8.4-20.31q22.45-3.9,33.59-16.69t11.14-31A43.28,43.28,0,0,0,153.9,68.16q3.91-12.51-1.36-26.37a29.75,29.75,0,0,0-11.91,1.86,50.2,50.2,0,0,0-9.58,4.19q-3.12,1.95-5.66,3.71a95.18,95.18,0,0,0-25.29-3.12A93.1,93.1,0,0,0,75,51.55c-1.43-1-3.1-2.18-5-3.41a54.13,54.13,0,0,0-9.87-4.49A30.25,30.25,0,0,0,47.46,41.4Q42,55.46,46.29,68.15a43.84,43.84,0,0,0-10.74,29.5q0,18.15,10.93,30.85t33.6,16.8A27.77,27.77,0,0,0,72.27,159q-16.6,4.1-23.24-5.87-12.31-18-22.08-12.88c-.91.91-.78,1.85.39,2.83s2.93,2.28,5.28,3.9a17.86,17.86,0,0,1,5.27,5.38c.13.25.49,1.2,1.08,2.83s1.14,3.13,1.75,4.68a17,17,0,0,0,3.33,5,22.53,22.53,0,0,0,5.66,4.6,26.34,26.34,0,0,0,8.88,2.73,50.47,50.47,0,0,0,12.89.1v19.62a8.62,8.62,0,0,1-.09,1,1.72,1.72,0,0,1-.39,1,3.86,3.86,0,0,1-.79.6,2.49,2.49,0,0,1-1.26.29,12.45,12.45,0,0,1-2-.2,98.24,98.24,0,0,1-48.34-36.23A97.29,97.29,0,0,1,0,100Z"/></g></g></svg>