<svg xmlns="http://www.w3.org/2000/svg" viewBox="0 0 30.5 24.21"><defs><style>.cls-1{fill:#fc7823;}</style></defs><title>medium</title><g id="图层_2" data-name="图层 2"><g id="图层_1-2" data-name="图层 1"><g id="页面-1"><g id="crust-pc"><g id="Footer-2"><g id="Footer"><g id="编组-9"><g id="编组-18"><g id="编组-8"><g id="medium"><path id="路径" class="cls-1" d="M3.62,4.94a1.18,1.18,0,0,0-.39-1L.39.51V0H9.23l6.83,15,6-15H30.5V.51L28.06,2.85a.71.71,0,0,0-.27.68V20.68a.73.73,0,0,0,.27.69l2.38,2.33v.51h-12V23.7l2.46-2.39c.24-.24.24-.31.24-.68V6.76l-6.85,17.4h-.92l-8-17.4V18.42a1.59,1.59,0,0,0,.44,1.34l3.2,3.89v.51H0v-.52l3.2-3.88a1.55,1.55,0,0,0,.42-1.34V4.94Z"/></g></g></g></g></g></g></g></g></g></g></svg>