<svg xmlns="http://www.w3.org/2000/svg" viewBox="0 0 188.21 188.44"><defs><style>.cls-1{fill:#fff;}</style></defs><title>SUBSCRIBE</title><g id="图层_2" data-name="图层 2"><g id="图层_1-2" data-name="图层 1"><path class="cls-1" d="M114.08,188.44h-.16a4.51,4.51,0,0,1-4.06-3.28l-23-83.28L3.29,78.59A4.5,4.5,0,0,1,0,74.53a4.43,4.43,0,0,1,2.82-4.37L182.2.31a4.32,4.32,0,0,1,4.69.94,4.1,4.1,0,0,1,.94,4.69L118.29,185.62A4.59,4.59,0,0,1,114.08,188.44Z"/><path class="cls-1" d="M18.45,73.59,91.73,94.06a4.53,4.53,0,0,1,3.13,3.13l20,72.65,61.25-157.5Z"/><path class="cls-1" d="M94.08,34.69h10.31v5.62H94.08Z"/></g></g></svg>