<svg xmlns="http://www.w3.org/2000/svg" viewBox="0 0 200 171.45"><defs><style>.cls-1{fill:#fc7823;}</style></defs><title>twitter</title><g id="图层_2" data-name="图层 2"><g id="图层_1-2" data-name="图层 1"><path class="cls-1" d="M179.64,48.8c0-1.87,0-3.73-.12-5.57a84.35,84.35,0,0,0,20.48-22,78.55,78.55,0,0,1-23.57,6.45,42.11,42.11,0,0,0,18-23.57,78.94,78.94,0,0,1-26,10.05A40.83,40.83,0,0,0,138.47,0c-22.66-.38-41,18.77-41,42.76a45.53,45.53,0,0,0,1.07,9.91C64.38,50.49,34.14,32.73,13.91,6a45.4,45.4,0,0,0-5.55,22A45.2,45.2,0,0,0,26.61,64.57,39.17,39.17,0,0,1,8,58.88v.56c0,21.24,14.15,39,32.92,43.19a38.64,38.64,0,0,1-10.8,1.47,37.87,37.87,0,0,1-7.72-.85c5.22,17.41,20.38,30.13,38.33,30.55A79.2,79.2,0,0,1,9.8,152.36a79.2,79.2,0,0,1-9.8-.63,110.71,110.71,0,0,0,62.91,19.72c75.46,0,116.73-65.66,116.73-122.65Z"/></g></g></svg>