<svg xmlns="http://www.w3.org/2000/svg" viewBox="0 0 36.79 30.39"><defs><style>.cls-1{fill:#fc7823;}</style></defs><title>WeChat</title><g id="图层_2" data-name="图层 2"><g id="图层_1-2" data-name="图层 1"><g id="页面-1"><g id="crust-pc"><g id="Footer-2"><g id="Footer"><g id="编组-9"><g id="编组-18"><g id="编组-8"><g id="weixin"><path id="形状" class="cls-1" d="M10.65.23C-.21,2.17-3.82,14.44,4.81,20.06c.48.3.48.27-.23,2.39L4,24.26l2.18-1.17,2.19-1.17,1.16.28a18.17,18.17,0,0,0,3.81.52h.62l-.21-.83C12,15.62,17.9,9.41,25.56,9.41h1l-.21-.74C24.7,2.79,17.61-1,10.65.23Zm-.94,5.5a1.91,1.91,0,1,1-2.58.53A2,2,0,0,1,9.71,5.73Zm9.24,0A1.9,1.9,0,1,1,17,5.68,2.08,2.08,0,0,1,19,5.73Zm4.18,4.64c-5.37,1-9.11,5.06-8.89,9.75.28,6.28,7.64,10.61,14.71,8.67l.84-.22,1.75.95a9.58,9.58,0,0,0,1.81.86,11,11,0,0,0-.42-1.51c-.56-1.73-.57-1.61.18-2.15C41.61,20.62,34.15,8.38,23.13,10.37Zm-.21,5.06a1.58,1.58,0,0,1,.52,1.68,1.49,1.49,0,1,1-.52-1.68Zm7.53.14a1.47,1.47,0,0,1-.25,2.37,1.48,1.48,0,1,1,.25-2.37Z"/></g></g></g></g></g></g></g></g></g></g></svg>