<svg width="80" height="80" viewBox="0 0 80 80" fill="none" xmlns="http://www.w3.org/2000/svg">
<path d="M27.8418 31.3158H52.1576C53.1997 31.3158 53.8945 30.6211 53.8945 29.5789V7H26.105V29.5789C26.105 30.6211 26.7997 31.3158 27.8418 31.3158ZM43.4734 14.8158C43.4734 13.4263 44.6892 12.2105 46.0787 12.2105C47.4681 12.2105 48.6839 13.4263 48.6839 14.8158V23.5C48.6839 24.8895 47.4681 26.1053 46.0787 26.1053C44.6892 26.1053 43.4734 24.8895 43.4734 23.5V14.8158Z" fill="#FC7823"/>
<path d="M66.0526 7H59.1053V29.5789C59.1053 33.4 55.9789 36.5263 52.1579 36.5263H27.8421C24.0211 36.5263 20.8947 33.4 20.8947 29.5789V7H13.9474C10.1263 7 7 10.1263 7 13.9474V66.0526C7 69.8737 10.1263 73 13.9474 73H66.0526C69.8737 73 73 69.8737 73 66.0526V13.9474C73 10.1263 69.8737 7 66.0526 7ZM63.4474 62.5789H16.5526C15.1632 62.5789 13.9474 61.3632 13.9474 59.9737C13.9474 58.5842 15.1632 57.3684 16.5526 57.3684H63.4474C64.8368 57.3684 66.0526 58.5842 66.0526 59.9737C66.0526 61.3632 64.8368 62.5789 63.4474 62.5789Z" fill="#FC7823"/>
</svg>
