<svg width="80" height="80" viewBox="0 0 80 80" fill="none" xmlns="http://www.w3.org/2000/svg">
<path d="M17.1446 10H68.2351C71.0218 10 72.8797 11.8578 72.8797 14.6446V69.9152C72.8797 72.702 71.0218 74.5598 68.2351 74.5598C67.3061 74.5598 66.8417 74.5598 65.9128 74.0953L45.0121 62.4839C43.6187 61.5549 41.7609 61.5549 40.3675 62.4839L19.4669 74.0953C17.1446 75.4887 14.3578 74.5598 12.9645 72.2375C12.5 71.773 12.5 70.8441 12.5 69.9152V14.6446C12.5 11.8578 14.3578 10 17.1446 10ZM29.685 23.9338C27.8271 23.9338 26.4338 25.3271 26.4338 27.185C26.4338 29.0428 27.8271 30.4362 30.1494 30.4362H55.6947C57.5525 30.4362 59.4103 29.0428 59.4103 27.185C59.4103 25.3271 57.5525 23.9338 55.6947 23.9338H29.685ZM29.685 42.5121C27.8271 42.5121 26.4338 43.9055 26.4338 45.7633C26.4338 47.6212 27.8271 49.479 30.1494 49.479H55.6947C57.5525 49.479 59.4103 48.0856 59.4103 45.7633C59.4103 43.441 57.5525 42.5121 55.6947 42.5121H29.685Z" fill="#FC7823"/>
</svg>
