<svg width="80" height="80" viewBox="0 0 80 80" fill="none" xmlns="http://www.w3.org/2000/svg">
<path d="M17.0867 39.7523C17.0867 31.5556 21.4497 23.9797 28.5346 19.8839C32.0135 17.8703 35.9612 16.8101 39.98 16.8101C43.9988 16.8101 47.9465 17.8703 51.4254 19.8839C54.9064 21.9004 57.7961 24.7977 59.8046 28.2851C61.8131 31.7725 62.8696 35.7272 62.8682 39.7523C62.8682 47.9441 58.5052 55.5199 51.4254 59.6208C47.9465 61.6343 43.9988 62.6945 39.98 62.6945C35.9612 62.6945 32.0135 61.6343 28.5346 59.6208C25.0527 57.6049 22.1619 54.7078 20.1525 51.2204C18.1432 47.733 17.0858 43.778 17.0867 39.7523ZM44.2704 74.2317C45.0348 74.2317 45.7678 74.5356 46.3083 75.0765C46.8488 75.6174 47.1524 76.3509 47.1524 77.1159C47.1524 77.8808 46.8488 78.6144 46.3083 79.1553C45.7678 79.6961 45.0348 80 44.2704 80H35.6895C34.9252 80 34.1921 79.6961 33.6517 79.1553C33.1112 78.6144 32.8076 77.8808 32.8076 77.1159C32.8076 76.3509 33.1112 75.6174 33.6517 75.0765C34.1921 74.5356 34.9252 74.2317 35.6895 74.2317H44.2704ZM39.9775 14.2007C39.5993 14.2007 39.2247 14.1261 38.8754 13.9811C38.526 13.8361 38.2086 13.6236 37.9414 13.3557C37.6742 13.0878 37.4624 12.7698 37.3181 12.4199C37.1738 12.07 37.0998 11.6951 37.1005 11.3166V2.71426C37.1438 1.98002 37.4658 1.29008 38.0005 0.785542C38.5353 0.281005 39.2425 0 39.9775 0C40.7124 0 41.4196 0.281005 41.9544 0.785542C42.4892 1.29008 42.8112 1.98002 42.8545 2.71426V11.3166C42.8545 12.0806 42.5515 12.8135 42.0121 13.3542C41.4727 13.8949 40.741 14.1994 39.9775 14.2007ZM17.7722 21.7515L11.698 15.6678C11.2181 15.1164 10.965 14.4034 10.9896 13.6726C11.0143 12.9417 11.315 12.2475 11.8311 11.7298C12.3471 11.2121 13.0401 10.9094 13.7704 10.8829C14.5006 10.8564 15.2137 11.108 15.7658 11.587L21.84 17.6757C22.3124 18.2282 22.5591 18.9386 22.5311 19.6652C22.5032 20.3918 22.2024 21.0811 21.689 21.5956C21.1755 22.11 20.4871 22.4118 19.7611 22.4407C19.0351 22.4697 18.3249 22.2235 17.7722 21.7515ZM11.4629 37.0585C12.2272 37.0585 12.9603 37.3623 13.5007 37.9032C14.0412 38.4441 14.3449 39.1777 14.3449 39.9426C14.3449 40.7075 14.0412 41.4411 13.5007 41.982C12.9603 42.5229 12.2272 42.8267 11.4629 42.8267H2.88198C2.11763 42.8267 1.38459 42.5229 0.844113 41.982C0.303636 41.4411 0 40.7075 0 39.9426C0 39.1777 0.303636 38.4441 0.844113 37.9032C1.38459 37.3623 2.11763 37.0585 2.88198 37.0585H11.4679H11.4629ZM77.118 37.0084C77.4965 37.0084 77.8712 37.083 78.2209 37.2279C78.5706 37.3729 78.8883 37.5853 79.1559 37.8531C79.4235 38.121 79.6358 38.4389 79.7806 38.7888C79.9255 39.1387 80 39.5138 80 39.8925C80 40.2713 79.9255 40.6463 79.7806 40.9962C79.6358 41.3462 79.4235 41.6641 79.1559 41.9319C78.8883 42.1997 78.5706 42.4122 78.2209 42.5571C77.8712 42.7021 77.4965 42.7767 77.118 42.7767H68.5371C68.1587 42.7767 67.7839 42.7021 67.4342 42.5571C67.0846 42.4122 66.7669 42.1997 66.4993 41.9319C66.2316 41.6641 66.0193 41.3462 65.8745 40.9962C65.7297 40.6463 65.6551 40.2713 65.6551 39.8925C65.6551 39.5138 65.7297 39.1387 65.8745 38.7888C66.0193 38.4389 66.2316 38.121 66.4993 37.8531C66.7669 37.5853 67.0846 37.3729 67.4342 37.2279C67.7839 37.083 68.1587 37.0084 68.5371 37.0084H77.118ZM62.1978 21.7115C61.657 22.252 60.9239 22.5554 60.1596 22.5549C59.3953 22.5544 58.6625 22.2501 58.1225 21.709C57.5824 21.1678 57.2792 20.4341 57.2797 19.6693C57.2802 18.9044 57.5842 18.1711 58.125 17.6306L64.1991 11.5519C64.4669 11.2843 64.7847 11.0721 65.1344 10.9274C65.4841 10.7827 65.8589 10.7083 66.2373 10.7085C66.6157 10.7088 66.9904 10.7836 67.3399 10.9287C67.6895 11.0739 68.007 11.2865 68.2744 11.5544C68.5419 11.8224 68.7539 12.1404 68.8985 12.4904C69.0431 12.8404 69.1174 13.2154 69.1172 13.5941C69.117 13.9728 69.0422 14.3478 68.8972 14.6976C68.7521 15.0474 68.5397 15.3651 68.2719 15.6328L62.2028 21.7115H62.1978ZM49.3189 65.5693C50.0833 65.5693 50.8163 65.8732 51.3568 66.4141C51.8973 66.9549 52.2009 67.6885 52.2009 68.4535C52.2009 69.2184 51.8973 69.952 51.3568 70.4928C50.8163 71.0337 50.0833 71.3376 49.3189 71.3376H30.6311C29.8667 71.3376 29.1337 71.0337 28.5932 70.4928C28.0527 69.952 27.7491 69.2184 27.7491 68.4535C27.7491 67.6885 28.0527 66.9549 28.5932 66.4141C29.1337 65.8732 29.8667 65.5693 30.6311 65.5693H49.3239H49.3189Z" fill="#FC7823"/>
</svg>
