<svg xmlns="http://www.w3.org/2000/svg" viewBox="0 0 38.98 48"><defs><style>.cls-1{fill:#ee752b;}.cls-2{fill:#fdf7f3;}</style></defs><title>Assurance</title><g id="图层_2" data-name="图层 2"><g id="图层_1-2" data-name="图层 1"><path class="cls-1" d="M19.49,48h0A26.06,26.06,0,0,0,39,22.78V6.84L19.49,0,0,6.84V22.78A26.06,26.06,0,0,0,19.49,48Z"/><path class="cls-2" d="M19.49,45.7A24.3,24.3,0,0,1,2.28,22.62V8.3L19.49,2.39,36.7,8.3V22.62A24.3,24.3,0,0,1,19.49,45.7Z"/><path class="cls-1" d="M23.45,22.18V16.86a4,4,0,0,0-7.92,0v5.32H13V16.86a6.48,6.48,0,0,1,13,0v5.32Z"/><path class="cls-2" d="M19.49,10.63a6.24,6.24,0,0,1,6.23,6.23v5.07h-2V16.86a4.21,4.21,0,0,0-8.42,0v5.07h-2V16.86a6.24,6.24,0,0,1,6.23-6.23m0-.5a6.74,6.74,0,0,0-6.73,6.73v5.57h3V16.86a3.71,3.71,0,0,1,7.42,0v5.57h3V16.86a6.74,6.74,0,0,0-6.73-6.73Z"/><path class="cls-2" d="M19.49,36.87a8.44,8.44,0,1,1,8.44-8.44A8.45,8.45,0,0,1,19.49,36.87Z"/><path class="cls-1" d="M19.49,21a7.45,7.45,0,1,1-7.44,7.45A7.45,7.45,0,0,1,19.49,21m0-2a9.45,9.45,0,1,0,9.44,9.45A9.45,9.45,0,0,0,19.49,19Z"/><path class="cls-1" d="M20.41,28.89l.69,2H17.88l.69-2a1.61,1.61,0,1,1,1.84,0Z"/></g></g></svg>