<?xml version="1.0" encoding="UTF-8"?>
<svg width="44px" height="33px" viewBox="0 0 44 33" version="1.1" xmlns="http://www.w3.org/2000/svg" xmlns:xlink="http://www.w3.org/1999/xlink">
    <title>cloud-server</title>
    <g id="页面-1" stroke="none" stroke-width="1" fill-rule="evenodd">
        <g id="crust-pc" transform="translate(-1047.000000, -824.000000)"  fill-rule="nonzero">
            <g id="编组-26" transform="translate(705.000000, 769.000000)">
                <g transform="translate(328.000000, 0.000000)">
                    <g id="编组-20" transform="translate(14.000000, 46.000000)">
                        <g id="cloud-server" transform="translate(0.000000, 9.000000)">
                            <path d="M31.2988281,13.0747768 L12.5488281,13.0747768 C12.3339844,13.0747768 12.1582031,13.2405134 12.1582031,13.4430804 L12.1582031,31.9503348 C12.1582031,32.1529018 12.3339844,32.3186384 12.5488281,32.3186384 L31.2988281,32.3186384 C31.5136719,32.3186384 31.6894531,32.1529018 31.6894531,31.9503348 L31.6894531,13.4430804 C31.6894531,13.2405134 31.5136719,13.0747768 31.2988281,13.0747768 Z M15.2832031,16.0212054 L28.5644531,16.0212054 L28.5644531,21.4076451 L15.2832031,21.4076451 L15.2832031,16.0212054 Z M28.5644531,29.3722098 L15.2832031,29.3722098 L15.2832031,23.9857701 L28.5644531,23.9857701 L28.5644531,29.3722098 Z" id="形状"></path>
                            <path d="M17.6269531,26.9782366 C17.6269531,27.7918704 18.3265082,28.4514509 19.1894531,28.4514509 C20.052398,28.4514509 20.7519531,27.7918704 20.7519531,26.9782366 C20.7519531,26.1646028 20.052398,25.5050223 19.1894531,25.5050223 C18.3265082,25.5050223 17.6269531,26.1646028 17.6269531,26.9782366 Z" id="路径"></path>
                            <path d="M17.6269531,18.7834821 C17.6269531,19.5971159 18.3265082,20.2566964 19.1894531,20.2566964 C20.052398,20.2566964 20.7519531,19.5971159 20.7519531,18.7834821 C20.7519531,17.9698484 20.052398,17.3102679 19.1894531,17.3102679 C18.3265082,17.3102679 17.6269531,17.9698484 17.6269531,18.7834821 Z" id="路径"></path>
                            <path d="M36.5429688,9.52525112 C34.3066406,3.95926339 28.6083984,0 21.9335938,0 C15.2587891,0 9.56054688,3.9546596 7.32421875,9.52064732 C3.12011719,10.5657087 0.0244140625,14.1888951 0.0486847293,18.4888393 C0.078125,23.2952009 4.03320312,27.2038225 9.01367188,27.6227679 C9.24316406,27.641183 9.43847656,27.4708426 9.43847656,27.2544643 L9.43847656,24.4737723 C9.43847656,24.2896205 9.29199219,24.1330915 9.09667969,24.1100725 C7.77832031,23.9535435 6.53320313,23.4102958 5.57617188,22.5217634 C4.40429688,21.4398717 3.75976562,19.9850725 3.75976562,18.4428013 C3.75976562,17.1537388 4.20410156,15.9383371 5.0390625,14.9255022 C5.85449219,13.9402902 7.00195312,13.226702 8.26660156,12.913644 L10.1171875,12.4532645 L10.7958984,10.7636719 C11.2158203,9.7140067 11.8017578,8.72879464 12.5390625,7.84026228 C13.2666016,6.95633371 14.1308594,6.18289621 15.0976562,5.53836496 C17.1044922,4.2078683 19.4677734,3.50348772 21.9335938,3.50348772 C24.3994141,3.50348772 26.7626953,4.2078683 28.7695313,5.54296875 C29.7412109,6.1875 30.6005859,6.9609375 31.328125,7.84486607 C32.0654297,8.73339844 32.6513672,9.71861049 33.0712891,10.7682757 L33.7451172,12.4532645 L35.5908203,12.913644 C38.2373047,13.5765904 40.0878906,15.8462612 40.0878906,18.4381975 C40.0878906,19.9850725 39.4433594,21.4352679 38.2714844,22.5171596 C37.3193359,23.4010882 36.0791016,23.9489397 34.7607422,24.1054687 C34.5654297,24.1284877 34.4238281,24.2850167 34.4238281,24.4691685 L34.4238281,27.2544643 C34.4238281,27.4708426 34.6240234,27.641183 34.8535156,27.6227679 C39.8193359,27.1992187 43.7646484,23.2952009 43.7990347,18.4980469 C43.828125,14.1981027 40.7373047,10.5749163 36.5429688,9.52525112 L36.5429688,9.52525112 Z" id="路径"></path>
                        </g>
                    </g>
                </g>
            </g>
        </g>
    </g>
</svg>
