<?xml version="1.0" encoding="UTF-8"?>
<svg width="38px" height="36px" viewBox="0 0 38 36" version="1.1" xmlns="http://www.w3.org/2000/svg" xmlns:xlink="http://www.w3.org/1999/xlink">
    <title>cluster</title>
    <g id="页面-1" stroke="none" stroke-width="1" fill-rule="evenodd">
        <g id="crust-pc" transform="translate(-724.000000, -1010.000000)" fill-rule="nonzero">
            <g id="编组-23" transform="translate(705.000000, 769.000000)">
                <g transform="translate(0.000000, 184.000000)">
                    <g id="编组-10" transform="translate(16.000000, 46.000000)">
                        <g id="cluster" transform="translate(3.000000, 11.000000)">
                            <path d="M37.109375,25.78125 L34.4726562,25.78125 L34.4726562,18.9453125 L20.4101562,18.9453125 L20.4101562,14.453125 L32.03125,14.453125 C32.4609375,14.453125 32.8125,14.1015625 32.8125,13.671875 L32.8125,0.78125 C32.8125,0.3515625 32.4609375,0 32.03125,0 L5.46875,0 C5.0390625,0 4.6875,0.3515625 4.6875,0.78125 L4.6875,13.671875 C4.6875,14.1015625 5.0390625,14.453125 5.46875,14.453125 L17.0898438,14.453125 L17.0898438,18.9453125 L3.02734375,18.9453125 L3.02734375,25.78125 L0.390625,25.78125 C0.17578125,25.78125 0,25.9570313 0,26.171875 L0,34.765625 C0,34.9804688 0.17578125,35.15625 0.390625,35.15625 L8.984375,35.15625 C9.19921875,35.15625 9.375,34.9804688 9.375,34.765625 L9.375,26.171875 C9.375,25.9570313 9.19921875,25.78125 8.984375,25.78125 L6.34765625,25.78125 L6.34765625,22.265625 L17.0898438,22.265625 L17.0898438,25.78125 L14.453125,25.78125 C14.2382812,25.78125 14.0625,25.9570313 14.0625,26.171875 L14.0625,34.765625 C14.0625,34.9804688 14.2382812,35.15625 14.453125,35.15625 L23.046875,35.15625 C23.2617187,35.15625 23.4375,34.9804688 23.4375,34.765625 L23.4375,26.171875 C23.4375,25.9570313 23.2617187,25.78125 23.046875,25.78125 L20.4101562,25.78125 L20.4101562,22.265625 L31.1523438,22.265625 L31.1523438,25.78125 L28.515625,25.78125 C28.3007813,25.78125 28.125,25.9570313 28.125,26.171875 L28.125,34.765625 C28.125,34.9804688 28.3007813,35.15625 28.515625,35.15625 L37.109375,35.15625 C37.3242188,35.15625 37.5,34.9804688 37.5,34.765625 L37.5,26.171875 C37.5,25.9570313 37.3242188,25.78125 37.109375,25.78125 Z M6.25,31.8994141 C6.25,31.9726562 6.19140625,32.03125 6.11816406,32.03125 L3.25195313,32.03125 C3.17871094,32.03125 3.12011719,31.9726562 3.12011719,31.8994141 L3.12011719,29.0332031 C3.12011719,28.9599609 3.17871094,28.9013672 3.25195313,28.9013672 L6.11816406,28.9013672 C6.19140625,28.9013672 6.25,28.9599609 6.25,29.0332031 L6.25,31.8994141 Z M20.3125,31.8994141 C20.3125,31.9726562 20.2539062,32.03125 20.1806641,32.03125 L17.3144531,32.03125 C17.2412109,32.03125 17.1826172,31.9726562 17.1826172,31.8994141 L17.1826172,29.0332031 C17.1826172,28.9599609 17.2412109,28.9013672 17.3144531,28.9013672 L20.1806641,28.9013672 C20.2539062,28.9013672 20.3125,28.9599609 20.3125,29.0332031 L20.3125,31.8994141 Z M7.8125,11.328125 L7.8125,3.125 L29.6875,3.125 L29.6875,11.328125 L7.8125,11.328125 Z M34.375,31.8994141 C34.375,31.9726562 34.3164062,32.03125 34.2431641,32.03125 L31.3769531,32.03125 C31.3037109,32.03125 31.2451172,31.9726562 31.2451172,31.8994141 L31.2451172,29.0332031 C31.2451172,28.9599609 31.3037109,28.9013672 31.3769531,28.9013672 L34.2431641,28.9013672 C34.3164062,28.9013672 34.375,28.9599609 34.375,29.0332031 L34.375,31.8994141 Z" id="形状"></path>
                            <path d="M11.328125,7.2265625 C11.328125,8.30524365 12.2025688,9.1796875 13.28125,9.1796875 C14.3599312,9.1796875 15.234375,8.30524365 15.234375,7.2265625 C15.234375,6.14788135 14.3599312,5.2734375 13.28125,5.2734375 C12.2025688,5.2734375 11.328125,6.14788135 11.328125,7.2265625 Z" id="路径"></path>
                        </g>
                    </g>
                </g>
            </g>
        </g>
    </g>
</svg>
