<?xml version="1.0" encoding="UTF-8"?>
<svg width="37px" height="43px" viewBox="0 0 37 43" version="1.1" xmlns="http://www.w3.org/2000/svg" xmlns:xlink="http://www.w3.org/1999/xlink">
  <title>fileprotect</title>
  <g id="页面-1" stroke="none" stroke-width="1" fill-rule="evenodd">
    <g id="crust-pc" transform="translate(-1053.000000, -1164.000000)" fill-rule="nonzero">
      <g id="编组-20" transform="translate(705.000000, 769.000000)">
        <g transform="translate(328.000000, 342.000000)">
          <g id="编组-10" transform="translate(16.000000, 47.000000)">
            <g id="fileprotect" transform="translate(4.000000, 6.000000)">
              <path d="M24.8388672,28.9648438 C24.765625,28.8623047 24.6484375,28.8037109 24.5214844,28.8037109 L22.3632813,28.8037109 C22.0458984,28.8037109 21.8603516,29.1650391 22.0458984,29.4238281 L25.6494141,34.4091797 C25.8056641,34.6240234 26.1230469,34.6240234 26.2792969,34.4091797 L31.8554688,26.6943359 C32.0410156,26.4355469 31.8554688,26.0742188 31.5380859,26.0742188 L29.375,26.0742188 C29.2480469,26.0742188 29.1308594,26.1328125 29.0576172,26.2353516 L25.9570313,30.5224609 L24.8388672,28.9648438 Z M26.953125,11.2304688 L26.953125,8.88671875 C26.953125,8.671875 26.7773438,8.49609375 26.5625,8.49609375 L7.8125,8.49609375 C7.59765625,8.49609375 7.421875,8.671875 7.421875,8.88671875 L7.421875,11.2304688 C7.421875,11.4453125 7.59765625,11.6210938 7.8125,11.6210938 L26.5625,11.6210938 C26.7773438,11.6210938 26.953125,11.4453125 26.953125,11.2304688 Z M7.8125,15.5273438 C7.59765625,15.5273438 7.421875,15.703125 7.421875,15.9179688 L7.421875,18.2617188 C7.421875,18.4765625 7.59765625,18.6523438 7.8125,18.6523438 L16.796875,18.6523438 C17.0117188,18.6523438 17.1875,18.4765625 17.1875,18.2617188 L17.1875,15.9179688 C17.1875,15.703125 17.0117188,15.5273438 16.796875,15.5273438 L7.8125,15.5273438 Z" id="形状"></path>
              <path d="M16.796875,37.890625 L3.515625,37.890625 L3.515625,3.515625 L30.859375,3.515625 L30.859375,17.96875 C30.859375,18.1835938 31.0351562,18.359375 31.25,18.359375 L33.984375,18.359375 C34.1992188,18.359375 34.375,18.1835938 34.375,17.96875 L34.375,1.5625 C34.375,0.698242187 33.6767578,0 32.8125,0 L1.5625,0 C0.698242188,0 0,0.698242187 0,1.5625 L0,39.84375 C0,40.7080078 0.698242188,41.40625 1.5625,41.40625 L16.796875,41.40625 C17.0117188,41.40625 17.1875,41.2304688 17.1875,41.015625 L17.1875,38.28125 C17.1875,38.0664062 17.0117188,37.890625 16.796875,37.890625 Z" id="路径"></path>
              <path d="M36.4550781,22.2265625 L27.0800781,18.9697266 C27.0361328,18.9550781 26.9970703,18.9501953 26.953125,18.9501953 C26.9091797,18.9501953 26.8652344,18.9550781 26.8261719,18.9697266 L17.4511719,22.2265625 C17.2949219,22.2802734 17.1875,22.4267578 17.1875,22.5927734 L17.1875,34.8535156 C17.1875,34.9755859 17.2412109,35.0878906 17.3388672,35.1611328 L26.7138672,42.4951172 C26.7822266,42.5488281 26.8701172,42.578125 26.953125,42.578125 C27.0361328,42.578125 27.1240234,42.5488281 27.1923828,42.4951172 L36.5673828,35.1611328 C36.6601562,35.0878906 36.71875,34.9755859 36.71875,34.8535156 L36.71875,22.5927734 C36.71875,22.4267578 36.6113281,22.2802734 36.4550781,22.2265625 Z M33.6914062,33.5791016 L26.953125,38.8476562 L20.2148438,33.5791016 L20.2148438,24.4628906 L26.953125,22.1191406 L33.6914062,24.4628906 L33.6914062,33.5791016 Z" id="形状"></path>
            </g>
          </g>
        </g>
      </g>
    </g>
  </g>
</svg>
