<?xml version="1.0" encoding="UTF-8"?>
<svg width="33px" height="28px" viewBox="0 0 33 28" version="1.1" xmlns="http://www.w3.org/2000/svg" xmlns:xlink="http://www.w3.org/1999/xlink">
    <title>twitter</title>
    <g id="页面-1" stroke="none" stroke-width="1" fill="none" fill-rule="evenodd" opacity="0.5">
        <g id="crust-pc" transform="translate(-504.000000, -4872.000000)" fill="#FFFFFF" fill-rule="nonzero">
            <g id="Footer" transform="translate(-275.000000, 4299.000000)">
                <g id="编组-18" transform="translate(498.000000, 493.000000)">
                    <g id="编组-8" transform="translate(0.000000, 77.000000)">
                        <g id="twitter" transform="translate(281.000000, 3.000000)">
                            <path d="M32.5126953,4.04472656 C31.67286,5.16444366 30.6577082,6.14118429 29.5064453,6.93722658 L29.5064453,7.83097655 C29.515669,13.1427411 27.392927,18.2360348 23.6140952,21.9690441 C19.8352634,25.7020533 14.7164521,27.7625011 9.40519533,27.6884766 C6.33464283,27.6987291 3.30340975,26.9979303 0.5489453,25.6409766 C0.40042488,25.5761581 0.30463102,25.4292742 0.3051953,25.2672266 L0.3051953,25.0884765 C0.3051953,24.9764226 0.349708569,24.868958 0.428942695,24.7897239 C0.50817682,24.7104898 0.615641355,24.6659766 0.727695325,24.6659766 C3.74597502,24.5665472 6.6565767,23.5205498 9.04769531,21.6759765 C6.3157346,21.6209889 3.85766556,20.0033394 2.72644533,17.5159766 C2.66930629,17.3801152 2.68709747,17.2242971 2.77339165,17.1048128 C2.85968583,16.9853286 3.00200889,16.9194501 3.14894531,16.9309766 C3.9792489,17.0143982 4.81784865,16.9371588 5.6189453,16.7034765 C2.60308677,16.0777352 0.337007224,13.5751952 0.0126952998,10.5122265 C0.00116880574,10.3652901 0.0670472925,10.2229671 0.186531543,10.1366729 C0.306015793,10.0503787 0.461833968,10.0325875 0.5976953,10.0897266 C1.40702049,10.4466722 2.28068392,10.6346757 3.16519533,10.6422266 C0.522588937,8.90857697 -0.618842376,5.61110872 0.386445325,2.61472655 C0.490214749,2.32356377 0.739520041,2.10847206 1.04274667,2.04849316 C1.34597331,1.98851427 1.65839198,2.09249574 1.8651953,2.32222655 C5.43122855,6.11575324 10.3310153,8.37629696 15.5314453,8.62722656 C15.3982385,8.0959394 15.3327192,7.54994566 15.3364453,7.00222655 C15.3850838,4.13024747 17.1629308,1.57183169 19.8376664,0.524731458 C22.5124021,-0.522368772 25.5546694,0.149078169 27.5401953,2.22472655 C28.8936433,1.96701313 30.2020906,1.51261512 31.4239453,0.875976563 C31.5134467,0.820124337 31.626944,0.820124337 31.7164453,0.875976563 C31.7722975,0.965477919 31.7722975,1.07897521 31.7164453,1.16847656 C31.1246211,2.52308246 30.1248126,3.65922855 28.8564453,4.41847655 C29.9671358,4.28973495 31.0583074,4.02785379 32.1064453,3.63847655 C32.1947011,3.57843295 32.3106895,3.57843295 32.3989453,3.63847655 C32.4728678,3.67228575 32.5281479,3.73693636 32.5500653,3.81521295 C32.5719828,3.89348954 32.5583127,3.97744618 32.5126953,4.04472656 L32.5126953,4.04472656 Z" id="路径"></path>
                        </g>
                    </g>
                </g>
            </g>
        </g>
    </g>
</svg>