<?xml version="1.0" encoding="UTF-8"?>
<svg width="37px" height="31px" viewBox="0 0 37 31" version="1.1" xmlns="http://www.w3.org/2000/svg" xmlns:xlink="http://www.w3.org/1999/xlink">
    <title>weixin</title>
    <g id="页面-1" stroke="none" stroke-width="1" fill="none" fill-rule="evenodd" opacity="0.5">
        <g id="crust-pc" transform="translate(-223.000000, -4869.000000)" fill="#FFFFFF" fill-rule="nonzero">
            <g id="Footer" transform="translate(-275.000000, 4299.000000)">
                <g id="编组-18" transform="translate(498.000000, 493.000000)">
                    <g id="weixin" transform="translate(0.000000, 77.000000)">
                        <path d="M10.6541053,0.237449063 C-0.203494687,2.17672406 -3.82269469,14.4436866 4.81375781,20.0585166 C5.28731531,20.3629116 5.28731531,20.3290791 4.57693031,22.4488266 L3.96814031,24.2639841 L6.15545531,23.0915466 L8.34277031,21.9190116 L9.50409281,22.2008841 C10.7216728,22.5052791 12.2776753,22.7194866 13.3148803,22.7194866 L13.9350778,22.7194866 L13.7207728,21.8963916 C12.0183253,15.6276291 17.9037178,9.41522156 25.5592228,9.41522156 L26.5966228,9.41522156 L26.3824153,8.67110156 C24.7023928,2.79682406 17.6106328,-1.00275094 10.6541053,0.237449063 Z M9.70699031,5.72825906 C10.8570028,6.50630906 10.9246678,8.18623406 9.81970031,8.90783156 C8.02706531,10.0803666 5.92993781,8.01707156 7.13630531,6.25817156 C7.66621781,5.46900656 8.94034781,5.20965656 9.70699031,5.72825906 Z M18.9523303,5.72825906 C20.8465603,7.00238906 19.4258878,9.94503656 17.3061403,9.13325156 C15.7728553,8.54698406 15.5923828,6.43864406 17.0242678,5.68321406 C17.5880128,5.37881906 18.4674628,5.40134156 18.9523303,5.72825906 Z M23.1352753,10.3735491 C17.7571753,11.3543991 14.0251678,15.4358466 14.2394728,20.1260841 C14.5213453,26.4062541 21.8837653,30.7356441 28.9530028,28.7964666 L29.7873103,28.5709491 L31.5462103,29.5181616 C32.5158478,30.0480741 33.3276328,30.4313466 33.3501553,30.3862041 C33.3727753,30.3298491 33.1811878,29.6532966 32.9330503,28.8754416 C32.3694028,27.1390641 32.3580928,27.2630841 33.1135228,26.7219591 C41.6145478,20.6221641 34.1507278,8.37791906 23.1352753,10.3735491 Z M22.9210678,15.4358466 C23.3944303,15.7515516 23.6425678,16.5408141 23.4395728,17.1157716 C23.0111578,18.3446616 21.1734778,18.4348491 20.6772028,17.2511016 C20.1135553,15.8868816 21.6695578,14.6240616 22.9210678,15.4358466 Z M30.4525528,15.5712741 C31.1966728,16.2814641 31.0726528,17.4879291 30.2045128,17.9388666 C28.8740278,18.6153216 27.4760728,17.2624116 28.1637403,15.9658566 C28.6147753,15.1314516 29.7760978,14.9285541 30.4525528,15.5712741 Z" id="形状"></path>
                    </g>
                </g>
            </g>
        </g>
    </g>
</svg>