<?xml version="1.0" encoding="UTF-8"?>
<svg width="33px" height="28px" viewBox="0 0 33 28" version="1.1" xmlns="http://www.w3.org/2000/svg" xmlns:xlink="http://www.w3.org/1999/xlink">
    <title>telegram</title>
    <g id="页面-1" stroke="none" stroke-width="1" fill="none" fill-rule="evenodd" opacity="0.5">
        <g id="crust-pc" transform="translate(-320.000000, -4872.000000)" fill="#FFFFFF" fill-rule="nonzero">
            <g id="Footer" transform="translate(-275.000000, 4299.000000)">
                <g id="编组-18" transform="translate(498.000000, 493.000000)">
                    <g id="编组-8" transform="translate(0.000000, 77.000000)">
                        <g id="telegram" transform="translate(97.000000, 3.000000)">
                            <path d="M12.1611445,25.4188086 L12.6616445,17.8576836 L26.3896445,5.48818359 C26.9973945,4.93405858 26.2645195,4.66593358 25.4601445,5.14855858 L8.51464453,15.8556836 L1.18589455,13.5319336 C-0.387105469,13.0850586 -0.404980483,11.9946836 1.54339453,11.2081836 L30.0897695,0.197183608 C31.3946445,-0.392691392 32.6458945,0.518933608 32.1453945,2.52093358 L27.2833945,25.4188086 C26.9437695,27.0454336 25.9606445,27.4386836 24.6021445,26.6879336 L17.2018945,21.2181836 L13.6447695,24.6680586 C13.2336445,25.0791836 12.8940195,25.4188086 12.1611445,25.4188086 Z" id="路径"></path>
                        </g>
                    </g>
                </g>
            </g>
        </g>
    </g>
</svg>