<?xml version="1.0" encoding="UTF-8"?>
<svg width="31px" height="25px" viewBox="0 0 31 25" version="1.1" xmlns="http://www.w3.org/2000/svg" xmlns:xlink="http://www.w3.org/1999/xlink">
    <title>medium</title>
    <g id="页面-1" stroke="none" stroke-width="1" fill="none" fill-rule="evenodd" opacity="0.5">
        <g id="crust-pc" transform="translate(-413.000000, -4875.000000)" fill="#FFFFFF" fill-rule="nonzero">
            <g id="Footer" transform="translate(-275.000000, 4299.000000)">
                <g id="编组-18" transform="translate(498.000000, 493.000000)">
                    <g id="编组-8" transform="translate(0.000000, 77.000000)">
                        <g id="medium" transform="translate(190.000000, 6.000000)">
                            <path d="M3.93711094,5.31247031 C3.97480346,4.93809604 3.83183436,4.56816887 3.55216875,4.31644688 L0.705260156,0.885360938 L0.705260156,0.373607813 L9.54595078,0.373607813 L16.380457,15.3625266 L22.3886508,0.373607813 L30.8186531,0.373607813 L30.8186531,0.885360938 L28.3825852,3.21945 C28.1729954,3.37971275 28.0689091,3.64252393 28.1119313,3.90283359 L28.1119313,21.0582023 C28.0693144,21.3181702 28.1733584,21.5804762 28.3825852,21.74055 L30.7585688,24.0746391 L30.7585688,24.5863922 L18.8003766,24.5863922 L18.8003766,24.0746391 L21.2621602,21.6833906 C21.5032898,21.4422609 21.5032898,21.3706898 21.5032898,21.000007 L21.5032898,7.13468438 L14.6534883,24.5292938 L13.7300414,24.5292938 L5.75563828,7.13468438 L5.75563828,18.7927594 C5.68950892,19.2828782 5.85218932,19.7762102 6.19688672,20.1308555 L9.39921328,24.0194297 L9.39921328,24.5302992 L0.319282031,24.5302992 L0.319282031,24.0183938 L3.52160859,20.1299719 C3.86462578,19.7762906 4.01721328,19.2787969 3.93619688,18.7927594 L3.93619688,5.31247031 L3.93711094,5.31247031 Z" id="路径"></path>
                        </g>
                    </g>
                </g>
            </g>
        </g>
    </g>
</svg>