<?xml version="1.0" encoding="UTF-8"?>
<svg width="32px" height="26px" viewBox="0 0 32 26" version="1.1" xmlns="http://www.w3.org/2000/svg" xmlns:xlink="http://www.w3.org/1999/xlink">
    <!-- Generator: Sketch 60 (88103) - https://sketch.com -->
    <title>logo (1)</title>
    <desc>Created with Sketch.</desc>
    <g id="页面-1" stroke="none" stroke-width="1" fill="none" fill-rule="evenodd">
        <g id="logo-(1)" transform="translate(-1.000000, 0.000000)">
            <path d="M16.1,5.2 C16.5,4.5 17.5,4.5 17.9,5.2 L21.4,11.2 C22.1,12.4 23.7,12.8 24.7,11.8 L24.7,11.8 C25.4,11.1 25.4,10 24.9,9.1 L23.6,6.8 L21.4,3.1 C19.4,-0.3 14.5,-0.3 12.5,3.1 L1.3,22.2 C0.7,23.2 1,24.5 2,25 C3,25.6 4.2,25.2 4.8,24.3 L16.1,5.2 Z M31.4,20 C30.8,19 29.4,18.8 28.4,19.5 L28.4,19.5 C27.6,20.1 27.3,21.2 27.8,22.1 L29.1,24.3 C29.7,25.3 30.9,25.6 31.9,25 C32.9,24.4 33.2,23.2 32.6,22.2 L31.4,20 Z" id="形状" fill="#8f8f8f"></path>
            <path d="M28.4,14.8 C27.7,13.6 26,13.5 25,14.3 C22.8,16 20.1,17 17.1,17 C15.8,17 14.5,16.8 13.3,16.4 C12.3,16.1 11.1,16.4 10.5,17.4 L10.5,17.4 C9.9,18.4 10.3,19.8 11.4,20.1 C13.2,20.7 15,21 17,21 C21.2,21 25.1,19.5 28,17 C28.7,16.6 28.8,15.6 28.4,14.8 L28.4,14.8 Z" id="路径" fill="#8f8f8f"></path>
        </g>
    </g>
</svg>
