<?xml version="1.0" encoding="UTF-8"?>
<svg width="32px" height="32px" viewBox="0 0 32 32" version="1.1" xmlns="http://www.w3.org/2000/svg" xmlns:xlink="http://www.w3.org/1999/xlink">
    <!-- Generator: Sketch 53 (72520) - https://sketchapp.com -->
    <title>discord</title>
    <desc>Created with Sketch.</desc>
    <g id="discord" stroke="none" stroke-width="1" fill="none" fill-rule="evenodd">
        <g transform="translate(2.000000, 0.000000)" fill-rule="nonzero" id="形状">
            <path d="M17.0878118,13.456 C16.1758118,13.456 15.4558118,14.24 15.4558118,15.216 C15.4558118,16.192 16.1918118,16.976 17.0878118,16.976 C17.9998118,16.976 18.7198118,16.192 18.7198118,15.216 C18.7198118,14.24 17.9838118,13.456 17.0878118,13.456 Z M11.2478118,13.456 C10.3358118,13.456 9.61581176,14.24 9.61581176,15.216 C9.61581176,16.192 10.3518118,16.976 11.2478118,16.976 C12.1598118,16.976 12.8798118,16.192 12.8798118,15.216 C12.8958118,14.24 12.1598118,13.456 11.2478118,13.456 Z" fill="#8E8F8F"></path>
            <path d="M24.8638118,0.143956706 L3.42384,0.143956706 C1.61584,0.143956706 0.143841882,1.61595294 0.143841882,3.42395294 L0.143841882,24.864 C0.143841882,26.672 1.61584,28.144 3.42384,28.144 L21.5678118,28.144 L20.7198118,25.216 L22.7678118,27.104 L24.7038118,28.88 L28.1598118,31.872 L28.1598118,3.42395294 C28.1438118,1.61595294 26.6718118,0.143956706 24.8638118,0.143956706 Z M18.6878118,20.864 C18.6878118,20.864 18.1118118,20.176 17.6318118,19.584 C19.7278118,18.992 20.5278118,17.696 20.5278118,17.696 C19.8718118,18.128 19.2478118,18.432 18.6878118,18.64 C17.8878118,18.976 17.1198118,19.184 16.3678118,19.328 C14.8318118,19.616 13.4238118,19.536 12.2238118,19.312 C11.3118118,19.136 10.5278118,18.896 9.87181176,18.624 C9.50381176,18.48 9.10384,18.304 8.70384,18.08 C8.65584,18.048 8.60784,18.032 8.55984,18 C8.52784,17.984 8.51184,17.968 8.49584,17.968 C8.20784,17.808 8.04784,17.696 8.04784,17.696 C8.04784,17.696 8.81584,18.96 10.8478118,19.568 C10.3678118,20.176 9.77581176,20.88 9.77581176,20.88 C6.23984,20.768 4.89584,18.464 4.89584,18.464 C4.89584,13.36 7.19984,9.21595294 7.19984,9.21595294 C9.50381176,7.50395294 11.6798118,7.55195294 11.6798118,7.55195294 L11.8398118,7.74395294 C8.95984,8.55995294 7.64784,9.824 7.64784,9.824 C7.64784,9.824 7.99984,9.632 8.59184,9.37595294 C10.3038118,8.62395294 11.6638118,8.43195294 12.2238118,8.36795294 C12.3198118,8.35195294 12.3998118,8.33595294 12.4958118,8.33595294 C13.4718118,8.20795294 14.5758118,8.17595294 15.7278118,8.30395294 C17.2478118,8.47995294 18.8798118,8.92795294 20.5438118,9.824 C20.5438118,9.824 19.2798118,8.62395294 16.5598118,7.80795294 L16.7838118,7.55195294 C16.7838118,7.55195294 18.9758118,7.50395294 21.2638118,9.21595294 C21.2638118,9.21595294 23.5678118,13.36 23.5678118,18.464 C23.5678118,18.448 22.2238118,20.752 18.6878118,20.864 Z" fill="#8F8F8F"></path>
        </g>
    </g>
</svg>