<?xml version="1.0" encoding="UTF-8"?>
<svg width="31px" height="30px" viewBox="0 0 31 30" version="1.1" xmlns="http://www.w3.org/2000/svg" xmlns:xlink="http://www.w3.org/1999/xlink">
    <title>Icon-huaban88</title>
    <g id="页面-1" stroke="none" stroke-width="1" fill="none" fill-rule="evenodd" opacity="0.5">
        <g id="crust-pc" transform="translate(-597.000000, -4870.000000)" fill="#FFFFFF" fill-rule="nonzero">
            <g id="Footer" transform="translate(-275.000000, 4299.000000)">
                <g id="编组-18" transform="translate(498.000000, 493.000000)">
                    <g id="编组-8" transform="translate(0.000000, 77.000000)">
                        <g id="Icon-huaban88" transform="translate(374.000000, 1.000000)">
                            <path d="M30.459,15.444 C30.4876992,18.6207296 29.4784679,21.7199735 27.5847,24.270675 C25.7606885,26.8188091 23.172384,28.7196539 20.195175,29.697525 C19.9299925,29.7714774 19.6455514,29.72012 19.422975,29.5581 C19.2621396,29.4052427 19.1759769,29.1898357 19.187025,28.968225 L19.187025,24.849825 C19.2737176,23.8189454 18.9008466,22.8023815 18.16815,22.07205 C18.8405369,22.0061332 19.5072435,21.891431 20.163,21.72885 C20.8066473,21.5561963 21.423681,21.2963927 21.996975,20.95665 C22.5976817,20.6290084 23.1322801,20.1926017 23.57355,19.66965 C24.0582018,19.0573453 24.4221508,18.3585633 24.64605,17.61045 C24.9306278,16.6536695 25.0680488,15.6591755 25.0536,14.661075 C25.0870799,13.1676184 24.5279684,11.7216403 23.498475,10.6392 C23.9823178,9.34246486 23.9282649,7.90620031 23.348325,6.6495 C22.8133515,6.5519563 22.2612178,6.62707653 21.77175,6.864 C21.1442241,7.08963942 20.5406614,7.37705021 19.96995,7.722 L19.229925,8.183175 C16.7744956,7.49675216 14.1778544,7.49675216 11.722425,8.183175 C11.507925,8.033025 11.2398,7.87215 10.8966,7.65765 C10.3623577,7.3462424 9.80264897,7.08073955 9.2235,6.864 C8.70421172,6.60031612 8.11517947,6.50652118 7.539675,6.595875 C6.96140617,7.86489744 6.91124935,9.31172889 7.40025,10.61775 C6.38512547,11.7170686 5.83209173,13.1649417 5.85585,14.661075 C5.84055767,15.6521866 5.97801936,16.6397403 6.2634,17.589 C6.49611976,18.3335028 6.85926285,19.0307375 7.3359,19.6482 C7.76739384,20.1866155 8.30376416,20.6317664 8.912475,20.95665 C9.49329351,21.2812209 10.1083967,21.5402117 10.74645,21.72885 C11.4056768,21.8921694 12.076003,22.0068776 12.752025,22.07205 C12.190673,22.6006871 11.846521,23.3195824 11.786775,24.08835 C11.5046288,24.2226712 11.2049549,24.3165449 10.8966,24.3672 C10.5430229,24.4336959 10.1838683,24.4660198 9.8241,24.463725 C9.33138091,24.4668737 8.8504918,24.3128389 8.4513,24.024 C8.00681117,23.7018421 7.64030248,23.2840222 7.3788,22.80135 C7.14212518,22.3970666 6.82002227,22.0493418 6.435,21.782475 C6.14807394,21.5621616 5.81983912,21.4016912 5.46975,21.310575 L5.08365,21.310575 C4.89027207,21.2993791 4.69668282,21.3286002 4.515225,21.396375 C4.407975,21.460725 4.3758,21.5358 4.4187,21.6216 C4.46947211,21.7173825 4.53061392,21.807297 4.601025,21.889725 C4.67870811,21.9800216 4.76490592,22.0626279 4.858425,22.1364 L4.99785,22.2222 C5.33446085,22.4032568 5.62732458,22.6558518 5.85585,22.962225 C6.09521805,23.2676935 6.30022804,23.5985869 6.467175,23.948925 L6.660225,24.399375 C6.8123931,24.8831638 7.11247915,25.3070353 7.518225,25.6113 C7.90415125,25.8910278 8.34740597,26.0815174 8.81595,26.169 C9.2603768,26.2620151 9.71324395,26.3087395 10.1673,26.308425 C10.5263125,26.3150017 10.8852049,26.2898792 11.2398,26.23335 L11.69025,26.158275 L11.69025,28.968225 C11.6943814,29.1929394 11.6004045,29.4083031 11.43285,29.5581 C11.2057351,29.7190277 10.9186324,29.7701556 10.649925,29.697525 C7.68194159,28.7071213 5.10795643,26.7944812 3.3033,24.2385 C1.39978035,21.7051211 0.389042267,18.6125642 0.429,15.444 C0.413337529,12.8056619 1.10992427,10.2119879 2.4453,7.9365 C3.75679717,5.65186821 5.65186821,3.75679717 7.9365,2.4453 C10.2119879,1.10992427 12.8056619,0.413337529 15.444,0.428741587 C18.0823381,0.413337529 20.6760121,1.10992427 22.9515,2.4453 C25.2361318,3.75679717 27.1312028,5.65186821 28.4427,7.9365 C29.7790651,10.2115735 30.4757263,12.8055248 30.459,15.444 Z" id="路径"></path>
                        </g>
                    </g>
                </g>
            </g>
        </g>
    </g>
</svg>