<?xml version="1.0" encoding="UTF-8"?>
<svg width="641px" height="400px" viewBox="0 0 641 400" version="1.1" xmlns="http://www.w3.org/2000/svg" xmlns:xlink="http://www.w3.org/1999/xlink">
    <!-- Generator: Sketch 60 (88103) - https://sketch.com -->
    <title>Group 15</title>
    <desc>Created with Sketch.</desc>
    <defs>
        <linearGradient x1="50%" y1="30.603006%" x2="28.6517387%" y2="73.620377%" id="linearGradient-1">
            <stop stop-color="#F5FDF9" offset="0%"></stop>
            <stop stop-color="#F1FCF6" offset="19.5787584%"></stop>
            <stop stop-color="#8CBAA3" offset="46.2151605%"></stop>
            <stop stop-color="#EBFAF3" offset="67.6652238%"></stop>
            <stop stop-color="#62A181" offset="80.3790118%"></stop>
            <stop stop-color="#E7F9F0" offset="100%"></stop>
        </linearGradient>
    </defs>
    <g id="Page-1" stroke="none" stroke-width="1" fill="none" fill-rule="evenodd" opacity="0.9">
        <g id="crust_home_EN" transform="translate(-400.000000, -232.000000)">
            <g id="Group-15" transform="translate(401.000000, 233.000000)">
                <g id="Group-13" opacity="0.681687128">
                    <g id="Group-12">
                        <path d="M573.287234,382.441785 L504.917547,398 L435.06383,235.851852 L573.287234,382.441785 L573.001292,383.259259 L620.87234,341.11525 L435.06383,235.851852 L573.001292,383.259259 L639,287.557939 L621.029197,341.304843 L435.06383,235.851852 L639,287.557939 L639,288.011396 L634.208854,223.378917 L435.06383,236.166297 L639,288.011396 L598.479692,167.817664 L634.468085,223.136158 L435.06383,235.851852 L598.479692,167.817664 L598.212766,168.092043 L549.1079,141.737892 L435.06383,235.851852 L549,142 L519,98 L451,138 L549.494681,141.655232 L435.06383,235.851852 L416,171 L296,197 L435.06383,235.851852 L451,138 L519,98 L490.556366,45.3561254 L519,98 L365,76 L490.579787,45.9928857 L435.06383,11.3390313 L365,0 L435.06383,10.8087364 L365,76 L365,0 L290.042553,27.6160807 L365,76 L290.042553,27.2136752 L315,104 L235,152 L289.667706,27.2136752 L235,76 L235,152 L160.882979,78.2393162 L235,76 M31.2291168,335.406097 L57.7819149,383.259259 L0,305.019943 L31.2291168,335.406097 L30.5904255,335.635328 L111,249 L0,305.254078 L30.5904255,335.635328 L0,305 L111,249 L33.5496278,179.135503 L105,95 L160,78 L111,249 L235,297 L111,249 L235,233 L235,297 L111,249 L160.312245,78.2393162 L235,152 L111,249 L0,236.533672 L33.9893617,179.156695 L111,249 L0,236.533672 L0,236.985755 L0,305.019943 L111,249 L160,78 L0,236.985755 L31.1184508,335.635328 L235,297 L111,249 L31.1184508,335.635328 L235,297 L111,249 L105,95 L111,249 L235,297 L57.0453069,383.259259 L111,249 L117.862678,398 L235,297 L57.7819149,382.399492 L117.862678,398 L117.829787,398 L235,297 L229.994681,398 L117.829787,398 L326.297872,398 L298,335 L229.994681,398 C263.228723,398 295.329787,398 326.297872,398 C357.265957,398 388.234043,398 419.202128,398 L326,398 L369,372 L419,398 L505,398 L453,315 L435,237 M416,278 L435,236 L296,197 L296,261 L435,236 L365,301" id="Shape" stroke="url(#linearGradient-1)" stroke-width="0.5" fill-opacity="0" fill="#FFFFFF" stroke-linejoin="bevel"></path>
                        <path d="" id="Path-2" stroke="#979797"></path>
                        <line x1="160" y1="78" x2="235" y2="220" id="Path-3" stroke="#979797"></line>
                    </g>
                    <path d="M295.519505,197 C295.839835,239.666667 296,261 296,261 L359.044493,299.62069 C363.142879,301.965517 368.060943,301.965517 372.15933,299.62069 L408.225129,278.655172 C413.416419,275.62069 419.837224,276.586207 424.072223,280.724138 L449.208993,306.103448 C454.263669,311.206896 454.263669,319.62069 449.208993,324.724138 C448.389315,325.689655 447.433025,326.37931 446.476735,326.931034 L372.15933,370.241379 C368.060943,372.586207 363.14288,372.586207 359.044493,370.241379 L235,297 L235,232.448276 L235,232.448276 L295.519505,197 Z M372.297069,77.7423487 L446.415606,120.515302 C452.70611,124.068327 454.894111,132.130961 451.201859,138.417082 C450.654859,139.373665 449.971108,140.330249 449.150608,141.150178 L424.125345,166.294662 C419.886093,170.530961 413.45884,171.35089 408.262337,168.344484 L372.433819,147.709609 C368.331317,145.386477 363.134815,145.386477 359.032312,147.709609 L235,220 L235,152 L235,152 L359.169062,77.7423487 C363.271564,75.4192171 368.194567,75.4192171 372.297069,77.7423487 Z" id="Combined-Shape" stroke="#FFFFFF" fill-opacity="0.1" fill="#62380A" fill-rule="nonzero"></path>
                </g>
            </g>
        </g>
    </g>
</svg>