<svg xmlns="http://www.w3.org/2000/svg" viewBox="0 0 216.16 78.21"><defs><style>.cls-1{fill:#172981;}.cls-2{fill:#fabe00;}</style></defs><title>DFG</title><g id="图层_2" data-name="图层 2"><g id="图层_1-2" data-name="图层 1"><path class="cls-1" d="M129.71,54.84a22.44,22.44,0,0,0,.17-31.46c-4.17-4-9.9-6.1-16.57-6.11H94.89l-.07,29.17h8.84l0-21.94h9.39c8.19,0,14.12,6.2,14.1,14.69a15.06,15.06,0,0,1-3.9,10.46,13.35,13.35,0,0,1-9.82,4H94.81v7.22h18C119.64,60.92,125.48,58.78,129.71,54.84Z"/><rect class="cls-1" x="161.95" y="33.91" width="7.16" height="13.05" transform="translate(124.69 205.86) rotate(-89.86)"/><polygon class="cls-1" points="142.98 17.34 142.87 60.97 151.71 60.99 151.79 24.46 173.89 24.51 173.96 17.41 142.98 17.34"/><polygon class="cls-1" points="208.83 53.87 187.83 53.83 187.9 24.46 216.09 24.51 216.16 17.41 180.77 17.34 180.67 60.9 180.67 60.92 180.67 60.92 180.67 60.97 187.81 60.99 187.81 60.93 216.05 60.99 216.16 36.99 208.92 40.27 208.83 53.87"/><path class="cls-2" d="M51.43,45.89,54,43.29c2.13-2.13,2.1-5.29-.22-7.63a5.32,5.32,0,0,0-7.51-.45,3.83,3.83,0,0,0-.29.28L43.54,38Z"/><polygon class="cls-1" points="55.84 16.73 55.9 27.96 67.04 39.17 50.23 55.89 55.81 61.49 78.21 39.2 55.84 16.73"/><polygon class="cls-1" points="39.2 0 0 39.01 39.01 78.21 44.61 72.64 11.17 39.04 44.69 5.66 39.2 0"/><polygon class="cls-2" points="55.81 61.49 33.52 39.09 50.31 22.37 44.74 16.78 22.34 39.07 50.21 67.06 55.81 61.49"/></g></g></svg>