<svg xmlns="http://www.w3.org/2000/svg" viewBox="0 0 1152.9 113.31"><title>HASH</title><g id="图层_2" data-name="图层 2"><g id="Layer_3" data-name="Layer 3"><polygon points="518.67 46.01 519.99 30.01 498.86 30.01 500.6 9.16 484.76 9.13 483.04 30.01 458.9 30.01 460.65 9.11 444.74 9.1 443.06 30.01 422.75 30.01 421.43 45.76 481.74 45.91 479.78 69.82 419.43 69.82 418.11 85.57 438.4 85.63 436.7 106.75 452.4 106.76 454.16 85.67 478.46 85.74 476.71 107.05 492.4 107.1 494.19 85.78 515.4 85.84 516.71 69.82 495.52 69.82 497.52 45.95 518.67 46.01"/><path d="M80.71,1.61V111.69H75.56V56.77H5.15v54.92H0V1.61H5.15V51.78H75.56V1.61Z"/><path d="M181.22,79.81H120.63L107,111.69h-5.51L148.23,1.61h4.44l48,110.08h-5.59ZM122.64,75h56.53L150.54,9.09Z"/><path d="M209.81,79.34H215c0,17.34,13.33,28.58,33.38,28.58,18.28,0,31.1-10.46,31.1-25.87,0-17.46-15.46-20.8-31.92-24.45-17.11-3.73-35.39-7.82-35.39-28.23,0-17.65,14-29,35.39-29,20.75,0,34.28,12.14,34.28,30.62h-5.11c0-15.57-11.76-25.63-29.25-25.63-18.17,0-30.16,9.39-30.16,23.9,0,16.67,15.57,20,31.77,23.55,17.42,3.89,35.66,8,35.66,29.26,0,18.7-15.14,31-36.33,31C225.26,113,209.81,99.67,209.81,79.34Z"/><path d="M390.87,1.61V111.69h-5.15V56.77H315.31v54.92h-5.16V1.61h5.16V51.78h70.41V1.61Z"/><path d="M544.72,56.77C544.72,23.86,568.12,0,600.83,0,625,0,644,13.29,651.54,34.75H646.2c-7.32-18.52-24-29.68-45.37-29.68C571.26,5.07,550,26.65,550,56.77s21.19,51.46,50.88,51.46c22,0,39-11.8,46.31-31.61h5.23c-7.43,22.81-26.74,36.69-51.54,36.69C568,113.31,544.72,89.67,544.72,56.77Z"/><path d="M740.14,79.8H679.55l-13.61,31.89h-5.5L707.15,1.61h4.44l48,110.08H754ZM681.55,75h56.53L709.45,9.08Z"/><path d="M852,34.67c0,19-14.79,33.19-34.56,33.19H785.51v43.83h-5.15V1.61h37.08C837.06,1.61,852,15.76,852,34.67Zm-5.23,0c0-16-12.58-28-29.53-28H785.51V62.83h31.73C834.19,62.83,846.77,50.79,846.77,34.67Z"/><path d="M874.57,1.61h5.16V111.69h-5.16Z"/><path d="M977,6.53h-35.9V111.69H936V6.53H900.1V1.61H977V6.53Z"/><path d="M1053.75,79.8H993.16l-13.6,31.89h-5.5l46.7-110.08h4.44l48,110.08h-5.58ZM995.17,75h56.53L1023.07,9.08Z"/><path d="M1152.9,106.78v4.91H1094V1.61h5.16V106.78Z"/></g></g></svg>