<svg xmlns="http://www.w3.org/2000/svg" viewBox="0 0 1117.16 515"><defs><style>.cls-1{fill:#ff604b;}</style></defs><title>IOSG</title><g id="图层_2" data-name="图层 2"><g id="图层_1-2" data-name="图层 1"><path class="cls-1" d="M.16,94h60V358H.16Z"/><path class="cls-1" d="M166.16,144h60V345.6h-60Z"/><path class="cls-1" d="M771.16,154h60V354h-60Z"/><path class="cls-1" d="M316.16,144h60V345.6h-60Z"/><path class="cls-1" d="M921.16,254h60v40h-60Z"/><path class="cls-1" d="M462.16,154h60v40h-60Z"/><path class="cls-1" d="M612.16,254h60v40h-60Z"/><path class="cls-1" d="M166.16,154V94h210v60Z"/><path class="cls-1" d="M771.16,154V94h210v60Z"/><path class="cls-1" d="M462.16,154V94h210v60Z"/><path class="cls-1" d="M462.16,254V194h210v60Z"/><path class="cls-1" d="M462.16,354V294h210v60Z"/><path class="cls-1" d="M871.16,254V194h110v60Z"/><path class="cls-1" d="M166.16,358V298h210v60Z"/><path class="cls-1" d="M771.16,354V294h210v60Z"/><path d="M96.4,402.9H80.85L48.51,500.09H48.2l-32-97.19H0L39.56,515h17ZM144.49,515h77.87V502.44h-63V463.66h58.24V451.1H159.41V415.46h62.48V402.9h-77.4ZM310.1,469.23v-13.1h13.11v13.1ZM297,456.13V443.05H310.1v13.08ZM270.85,515V403.8H284V430H297v13.07H284V515Zm65.43,0V482.3H323.21V469.23h13.07V403.8h13.07V515Zm93.38,0h14.91V415.46h37.37V402.9H392.29v12.56h37.37Zm108.2,0V501.93h52.32V515Zm-13.1-13.07V403.8h13.1v98.13Zm65.42,0V403.8h13.08v98.13ZM717.83,515V501.93H730.9V515Zm-13.07-13.07V488.86h13.07v13.07Zm-13.11-13.07V475.75h13.11v13.11Zm26.18-39.25V416.88H730.9v32.73ZM652.4,515V403.8h65.43v13.08H665.51v32.73h52.32v13.07H691.65v13.07H678.58V462.68H665.51V515Zm133.37,0h77.87V502.44H800.69V463.66h58.24V451.1H800.69V415.46h62.48V402.9h-77.4Zm132.92,0V501.93h58.87V515Zm58.87-13.07V462.68h13.07v39.25Zm-52.32-39.25V449.61h52.32v13.07Zm-13.11-13.07V416.88h13.11v32.73Zm13.11-32.73V403.8h58.87v13.08Z"/><rect x="951.16" y="94" width="30" height="30"/><rect x="951.16" y="194" width="30" height="30"/><rect x="642.16" y="94" width="30" height="30"/><rect x="346.16" y="274" width="30" height="30"/><rect x="921.16" y="124" width="30" height="30"/><rect x="921.16" y="224" width="30" height="30"/><rect x="612.16" y="124" width="30" height="30"/><rect x="891.16" y="94" width="30" height="30"/><rect x="346.16" y="214" width="30" height="30"/><rect x="30.16" y="214" width="30" height="30"/><rect x="552.16" y="124" width="30" height="30"/><rect x="491.16" y="124" width="30" height="30"/><rect x="582.16" y="94" width="30" height="30"/><rect x="0.16" y="184" width="30" height="30"/><rect x="801.16" y="124" width="30" height="30"/><rect x="861.16" y="124" width="30" height="30"/><rect x="891.16" y="195" width="30" height="30"/><rect x="951.16" y="254" width="30" height="30"/><rect x="196.16" y="124" width="30" height="30"/><rect x="226.16" y="94" width="30" height="30"/><rect x="256.16" y="124" width="30" height="30"/><rect x="316.16" y="124" width="30" height="30"/><rect x="346.16" y="154" width="30" height="30"/><rect x="316.16" y="184" width="30" height="30"/><rect x="316.16" y="245" width="30" height="30"/><rect x="166.16" y="94" width="30" height="30"/><rect x="642.16" y="225" width="30" height="30"/><rect x="582.16" y="224" width="30" height="30"/><rect x="612.16" y="254" width="30" height="30"/><rect x="642.16" y="284" width="30" height="30"/><rect x="831.16" y="94" width="30" height="30"/><rect x="522.16" y="94" width="30" height="30"/><rect x="30.16" y="154" width="30" height="30"/><rect x="0.16" y="124" width="30" height="30"/><rect x="462.16" y="94" width="30" height="30"/><rect x="346.16" y="94" width="30" height="30"/><rect x="30.16" y="94" width="30" height="30"/><rect x="286.16" y="94" width="30" height="30"/><rect x="612.16" y="195" width="30" height="30"/><rect x="552.16" y="194" width="30" height="30"/><rect class="cls-1" x="506.16" width="30" height="30"/><rect class="cls-1" x="431.16" y="34" width="30" height="30"/><rect class="cls-1" x="86.16" y="4" width="30" height="30"/><rect class="cls-1" x="626.16" y="19" width="30" height="30"/><rect class="cls-1" x="1021.16" y="179" width="30" height="30"/><rect class="cls-1" x="1087.16" y="271" width="30" height="30"/><rect class="cls-1" x="1012.16" y="322" width="30" height="30"/></g></g></svg>