<svg xmlns="http://www.w3.org/2000/svg" viewBox="0 0 218.24 68.58"><defs><style>.cls-1{fill:#0e3460;}</style></defs><title>NGC</title><g id="图层_2" data-name="图层 2"><g id="图层_1-2" data-name="图层 1"><path class="cls-1" d="M103.94,54.27h1.55l3.7,9.87,3.73-9.87h1.55l-4.53,11.3h-1.47Z"/><path class="cls-1" d="M126,65.77A5.13,5.13,0,0,1,122,64.16a6,6,0,0,1-1.51-4.25,5.84,5.84,0,0,1,1.55-4.24,5.28,5.28,0,0,1,4-1.61,5.07,5.07,0,0,1,5.35,5.26,7.87,7.87,0,0,1-.08,1.12H122a4.51,4.51,0,0,0,1.18,3.06A3.77,3.77,0,0,0,126,64.62a4,4,0,0,0,2.22-.6,3.13,3.13,0,0,0,1.28-1.58H131A5.09,5.09,0,0,1,126,65.77Zm3.95-6.47a4,4,0,0,0-1.13-3,4.08,4.08,0,0,0-5.57,0,4.38,4.38,0,0,0-1.21,3Z"/><path class="cls-1" d="M138.91,54.27v1.84a4,4,0,0,1,3.75-2,4.32,4.32,0,0,1,3.14,1.23,4.75,4.75,0,0,1,1.26,3.55v6.73h-1.42V59.11a4,4,0,0,0-.9-2.83,3.59,3.59,0,0,0-4.93,0,4,4,0,0,0-.9,2.83v6.46h-1.45V54.27Z"/><path class="cls-1" d="M159.26,55.41h-3.12V62.9a1.71,1.71,0,0,0,.33,1.19,1.6,1.6,0,0,0,1.18.34h1.61v1.14h-1.92a2.35,2.35,0,0,1-2.65-2.67V55.41h-1.57V54.27h1.57V51.43h1.45v2.84h3.12Z"/><path class="cls-1" d="M173.47,54.27h1.45v11.3h-1.45V63.73a4,4,0,0,1-3.75,2,4.32,4.32,0,0,1-3.14-1.23A4.7,4.7,0,0,1,165.31,61V54.27h1.43v6.46a4,4,0,0,0,.9,2.83,3.62,3.62,0,0,0,4.93,0,4,4,0,0,0,.9-2.83Z"/><path class="cls-1" d="M182.42,54.27v1.86a3.47,3.47,0,0,1,3.49-2.07v1.51h-.41a3.08,3.08,0,0,0-2.29.81,3.89,3.89,0,0,0-.79,2.77v6.42H181V54.27Z"/><path class="cls-1" d="M197.41,65.77a5.11,5.11,0,0,1-3.93-1.61A5.94,5.94,0,0,1,192,59.91a5.83,5.83,0,0,1,1.54-4.24,5.3,5.3,0,0,1,4-1.61,5.07,5.07,0,0,1,5.35,5.26,7.87,7.87,0,0,1-.08,1.12h-9.31a4.42,4.42,0,0,0,1.18,3.06,3.73,3.73,0,0,0,2.77,1.12,4,4,0,0,0,2.22-.6,3.13,3.13,0,0,0,1.28-1.58h1.55a5.09,5.09,0,0,1-5.05,3.33Zm4-6.47a4,4,0,0,0-1.13-3,3.82,3.82,0,0,0-2.79-1.11,3.76,3.76,0,0,0-2.77,1.09,4.33,4.33,0,0,0-1.21,3Z"/><path class="cls-1" d="M208.9,57.39A3,3,0,0,1,210.06,55a4.5,4.5,0,0,1,3-1,4,4,0,0,1,2.81.94,3.7,3.7,0,0,1,1.1,2.6h-1.49a2.35,2.35,0,0,0-2.54-2.38,2.7,2.7,0,0,0-1.85.58,1.79,1.79,0,0,0-.68,1.4,1.72,1.72,0,0,0,.5,1.29,2.53,2.53,0,0,0,1.25.64c.51.11,1,.24,1.64.39s1.13.32,1.63.49a2.5,2.5,0,0,1,1.25.93,2.79,2.79,0,0,1,.5,1.73A2.7,2.7,0,0,1,216,64.91a4.78,4.78,0,0,1-3,.86,4.25,4.25,0,0,1-2.93-1,3.61,3.61,0,0,1-1.18-2.58h1.49a2.38,2.38,0,0,0,.75,1.71,2.67,2.67,0,0,0,1.93.67,3.11,3.11,0,0,0,1.92-.53,1.65,1.65,0,0,0,.68-1.36,1.69,1.69,0,0,0-.5-1.3,2.59,2.59,0,0,0-1.25-.65c-.5-.12-1-.25-1.63-.41s-1.13-.31-1.64-.47a2.52,2.52,0,0,1-1.75-2.51Z"/><path class="cls-1" d="M127.14,8.53h8.68V44.27h-8.68L112.62,21.78V44.27h-8.68V8.53h8.68L127.14,31Z"/><path class="cls-1" d="M147.05,39.42a17.45,17.45,0,0,1-5.3-13.07,17.45,17.45,0,0,1,5.3-13.07,17.9,17.9,0,0,1,13-5.16,18.3,18.3,0,0,1,10.56,3.15A16.43,16.43,0,0,1,177,20H166.67a6.83,6.83,0,0,0-6.5-3.91,9.09,9.09,0,0,0-7,2.8,10.59,10.59,0,0,0-2.56,7.46,10.59,10.59,0,0,0,2.56,7.46A8.9,8.9,0,0,0,160,36.6a7.83,7.83,0,0,0,5-1.55,7.43,7.43,0,0,0,2.62-4.13H157.64v-6.6H177v6.6A17.34,17.34,0,0,1,171.7,40a15.89,15.89,0,0,1-5.16,3.3A16.8,16.8,0,0,1,160,44.57,17.9,17.9,0,0,1,147.05,39.42Z"/><path class="cls-1" d="M188.26,39.42A17.45,17.45,0,0,1,183,26.35a17.45,17.45,0,0,1,5.3-13.07,17.9,17.9,0,0,1,13-5.16,18.3,18.3,0,0,1,10.56,3.15A16.43,16.43,0,0,1,218.24,20H207.88a6.82,6.82,0,0,0-6.49-3.91,9.1,9.1,0,0,0-7,2.8,10.64,10.64,0,0,0-2.56,7.46,10.64,10.64,0,0,0,2.56,7.46,9.09,9.09,0,0,0,7,2.79,6.81,6.81,0,0,0,6.49-3.91h10.36a16.42,16.42,0,0,1-6.45,8.74,18.37,18.37,0,0,1-10.56,3.14A17.9,17.9,0,0,1,188.26,39.42Z"/><polygon class="cls-1" points="10.67 6.16 0 0 0 56.27 10.67 62.42 21.34 68.58 21.34 12.32 10.67 6.16"/><polygon class="cls-1" points="42.67 6.16 32 0 32 56.27 42.67 62.42 53.34 68.58 53.34 12.32 42.67 6.16"/><polygon class="cls-1" points="74.67 6.16 64 0 64 56.27 74.67 62.42 85.34 68.58 85.34 12.32 74.67 6.16"/></g></g></svg>