<svg xmlns="http://www.w3.org/2000/svg" xmlns:xlink="http://www.w3.org/1999/xlink" viewBox="0 0 239.51 65.2"><defs><style>.cls-1,.cls-2,.cls-3,.cls-4,.cls-5,.cls-6,.cls-7{fill-rule:evenodd;}.cls-1{fill:url(#GradientFill_1);}.cls-2{fill:url(#GradientFill_2);}.cls-3{fill:url(#GradientFill_2-2);}.cls-4{fill:#472f8e;}.cls-5{fill:#9e9f9e;}.cls-6{fill:#d4c8b8;}.cls-7{fill:#e2bf91;}</style><linearGradient id="GradientFill_1" x1="26.85" y1="45.99" x2="39.98" y2="3.39" gradientUnits="userSpaceOnUse"><stop offset="0" stop-color="#904a99"/><stop offset="1" stop-color="#422f8e"/></linearGradient><linearGradient id="GradientFill_2" x1="31.56" y1="-5.7" x2="6.11" y2="39.3" gradientUnits="userSpaceOnUse"><stop offset="0" stop-color="#f1b92c"/><stop offset="1" stop-color="#ed7300"/></linearGradient><linearGradient id="GradientFill_2-2" x1="32.09" y1="2.34" x2="2.48" y2="55.37" xlink:href="#GradientFill_2"/></defs><title>SevenX</title><g id="图层_2" data-name="图层 2"><g id="_" data-name="ͼ"><path class="cls-1" d="M44.79,8.85c-2.6,3.92-5.21,7.83-7.75,11.79h0c-.66,1-1,1.07-1.69,0h0c-1.87-2.87-3.91-5.64-5.72-8.55h0a2,2,0,0,0-2-1.1h0C18.46,11,9.29,11,.12,11h0c1.39,2.82,3.38,5.26,5.08,7.88h0a10.7,10.7,0,0,0,2.21,3h0c4.48,0,9,0,13.44-.07h0c.87,0,1.21.48,1.61,1.06h0c2.13,3.18,4.28,6.34,6.42,9.5h0c0,.61-.38,1-.68,1.46h0L14.5,54.29h0l6.21,9.47h0a3.23,3.23,0,0,1,.7,1.3h0c.69,0,.82-.65,1.11-1.07h0q3.21-4.71,6.4-9.46h0c2.18-3.78,4.82-7.26,7.25-11.09h0c2.13,3.16,4.15,6.15,6.16,9.16h0q3.73,5.57,7.44,11.15h0A3.05,3.05,0,0,1,50.46,65h0c.51,0,.67-.35.89-.67h0q6.7-10,13.41-20h0a1.24,1.24,0,0,0,0-1.61h0c-2.27-3.32-4.5-6.66-6.74-10h0q-3,4.52-6.07,9h0c-1.22,1.84-1.23,1.86-2.44.07h0c-1.86-2.75-3.69-5.53-5.53-8.29h0c-.19-.29-.45-.54-.37-.94h0l3.27-5.25h0q5.34-7.91,10.69-15.8h0a1.1,1.1,0,0,0-.1-1.45h0C55.73,7.5,54,4.86,52.23,2.25h0c-.49-.71-.76-1.63-1.64-2h0C48.66,3.09,46.71,6,44.79,8.85Z"/><path class="cls-2" d="M6.48.94c-2,3-4,6-6,9h0C.3,10.2-.24,10.47.12,11h0c9.17,0,18.34,0,27.52,0h0a2,2,0,0,1,2,1.1h0c1.81,2.91,3.85,5.68,5.72,8.55h0c.68,1.05,1,1,1.69,0h0c2.54-4,5.15-7.87,7.75-11.79h0C46.71,6,48.66,3.09,50.59.2h0A1.77,1.77,0,0,0,49.44,0h0Q28.8,0,8.15,0h0A1.76,1.76,0,0,0,6.48.94Z"/><path class="cls-3" d="M20.85,21.79c-4.48.06-9,.05-13.44.07h0c0,.6.46,1,.75,1.42h0c1.84,2.78,3.69,5.57,5.59,8.31h0a1.5,1.5,0,0,1,0,2h0c-1.68,2.41-3.3,4.87-4.93,7.32h0Q4.43,47.56.05,54.25l14.45,0h0L28.2,33.81h0c.3-.45.71-.85.68-1.46h0c-2.14-3.16-4.29-6.32-6.42-9.5h0c-.39-.58-.74-1.06-1.58-1.06h0Z"/><path class="cls-4" d="M96.15,11.4c3.34,0,6.69,0,10,0,.88,0,1.2.18,1.21,1.14,0,4,.09,4-3.89,4-4.39,0-8.79,0-13.18,0-1.32,0-2.12.34-2.09,1.83s.37,1.81,2.07,1.81h13.77c2.39,0,3.29.89,3.29,3.23q0,6.51,0,13c0,2.15-.94,3.1-3.11,3.1-6.64,0-13.28,0-19.92,0-.87,0-1.2-.17-1.22-1.14-.06-4-.1-4,3.91-4h13c1.87,0,2.21-.33,2.22-2.14s0-3.39,0-5.09c0-1.41-.59-2-2-2-4.64,0-9.29,0-13.93,0-2.39,0-3.23-.84-3.24-3.23s0-5,0-7.48c0-2.16.94-3.08,3.13-3.08C89.56,11.39,92.86,11.4,96.15,11.4Z"/><path class="cls-4" d="M174.6,25.21h-5.53c-.73,0-1.48,0-1.51,1s.71,1.05,1.46,1.05h10.76c.75,0,1.5-.08,1.53-1s-.72-1.06-1.48-1.06Zm-.15-5.1h8.83c2.25,0,3.17.95,3.18,3.21,0,1.89,0,3.79,0,5.68,0,2.48-.86,3.35-3.3,3.36-4.54,0-9.08,0-13.63,0-.77,0-1.94-.35-1.94,1s1.2,1.05,2,1.06c2.7,0,5.39,0,8.08,0,.89,0,1.2.22,1.21,1.16.07,4,.11,4-3.79,4h-9.59c-2.19,0-3.12-.91-3.14-3.07q0-6.59,0-13.17c0-2.25.94-3.14,3.23-3.15Z"/><path class="cls-4" d="M121.73,25.21h-5.38c-.76,0-1.47.15-1.45,1.09s.7,1,1.4,1h10.91c.76,0,1.47-.1,1.44-1.07s-.7-1-1.39-1c-1.84,0-3.68,0-5.53,0Zm8.86-5.1c2.29,0,3.18.9,3.2,3.16,0,2,0,4,0,6,0,2.21-.88,3.1-3.07,3.11H116.64c-.8,0-1.77-.11-1.73,1.07s1,1,1.71,1c2.85,0,5.69,0,8.54,0,.85,0,1.08.25,1.1,1.1.09,4,.12,4-3.87,4H113c-2.28,0-3.19-.91-3.19-3.17,0-4.39,0-8.78,0-13.17,0-2.07.95-3,3-3C115.77,20.09,127.65,20.1,130.59,20.11Z"/><path class="cls-4" d="M215.37,11.4c1.74,0,3.18,0,4.61,0,.68,0,1,.34,1.29.81,1.59,2.3,3.18,4.59,4.79,6.87,1,1.43,1.73,1.44,2.74,0,1.56-2.2,3.13-4.39,4.61-6.63a2,2,0,0,1,2.07-1.07c1.23.09,2.48,0,4,0-.68,1-1.25,1.86-1.83,2.7-1.4,2-2.76,4-4.21,6a2.57,2.57,0,0,0-.32,2.76c1.94,4.91,3.8,9.85,5.69,14.77.21.55.4,1.12.66,1.87-1.65,0-3.17,0-4.69,0-.79,0-.82-.6-1-1.08q-2.12-5.51-4.22-11c-.38-1-.71-2-2.07-2s-1.71.95-2.09,2c-1.39,3.68-2.83,7.34-4.2,11-.31.81-.69,1.21-1.62,1.13a17.56,17.56,0,0,0-3,0c-1.12.09-1.09-.34-.76-1.19,2-5.1,3.92-10.22,5.93-15.32a2.82,2.82,0,0,0-.36-3C219.38,17.25,217.49,14.44,215.37,11.4Z"/><path class="cls-4" d="M200.84,20.12c2.94,0,5.88,0,8.82,0,2.3,0,3.18.87,3.19,3.15,0,5,0,10,0,14.95,0,.93-.18,1.29-1.22,1.3-3.91,0-3.91.06-3.91-3.82,0-2.89,0-5.78,0-8.67,0-1.28-.53-1.84-1.77-1.84-3.44,0-6.88,0-10.32,0-1.26,0-1.77.58-1.76,1.84,0,3.74,0,7.48,0,11.22,0,1-.25,1.26-1.24,1.26-3.89,0-3.89.06-3.89-3.83,0-4.14,0-8.28,0-12.42,0-2.27.89-3.13,3.19-3.14C195,20.11,197.89,20.12,200.84,20.12Z"/><path class="cls-4" d="M160.05,20.11a4.39,4.39,0,0,1-.09.66q-3.36,8.79-6.72,17.58a1.61,1.61,0,0,1-1.7,1.15H144.8a1.56,1.56,0,0,1-1.67-1c-2.33-6.08-4.65-12.16-7-18.41,1.66,0,3.15,0,4.63,0,.86,0,.92.59,1.12,1.12,1.45,3.76,2.9,7.52,4.32,11.3.37,1,.8,1.89,2,1.88s1.62-1,2-1.92c1.41-3.73,2.86-7.44,4.23-11.18a1.47,1.47,0,0,1,1.71-1.19C157.4,20.18,158.69,20.11,160.05,20.11Z"/><path class="cls-5" d="M231.46,48.84h6c1.87,0,2,.18,2,2.06,0,3,0,3-3,3-1.75,0-3.49,0-5.24,0-.69,0-1.63.41-1.65-1s.83-1.08,1.58-1.08c1.6,0,3.19,0,4.79,0,.46,0,1.24.23,1.27-.39S236.43,51,236,51c-1.6,0-3.19,0-4.79,0-1.11,0-1.61-.34-1.63-1.54-.05-3.55-.09-3.55,3.44-3.55,1.75,0,3.49,0,5.24,0,.82,0,1.28.11,1.27,1.12s-.34,1.2-1.23,1.17c-1.69,0-3.39,0-5.08,0A1.72,1.72,0,0,0,231.46,48.84Z"/><path class="cls-5" d="M110.26,48.83h2.25c.25,0,.52-.08.51-.39s-.25-.42-.52-.42c-1.44,0-2.89,0-4.33,0-.31,0-.62.12-.59.5s.35.32.59.32c.7,0,1.39,0,2.09,0Zm.91,2.11c-.84,0-1.69,0-2.54,0-.36,0-.95-.13-.91.46s.6.39,1,.4c.8,0,1.6,0,2.4,0s1.11.28,1.1,1.12-.29,1-1,1c-1.45,0-2.89,0-4.34,0a1.28,1.28,0,0,1-1.48-1.45c0-1.7,0-3.39,0-5.09a1.3,1.3,0,0,1,1.44-1.5h7c1,0,1.52.52,1.6,1.55.28,3.2,0,3.52-3.17,3.52Z"/><path class="cls-5" d="M212.13,48.82h2.24c.27,0,.53-.11.49-.41a.54.54,0,0,0-.38-.37c-1.54,0-3.09,0-4.63,0a.4.4,0,0,0-.41.49c0,.25.26.29.45.29.75,0,1.5,0,2.24,0Zm0-3c1.14,0,2.29,0,3.44,0a1.45,1.45,0,0,1,1.65,1.65v.15c.13,3.17,0,3.27-3.11,3.27h-3.74c-.34,0-.8-.05-.83.41s.45.44.78.45c.9,0,1.8,0,2.7,0s1,.31,1,1.06-.16,1.1-1,1.07c-1.49,0-3,0-4.48,0a1.24,1.24,0,0,1-1.39-1.39c0-1.74,0-3.49,0-5.23,0-1,.56-1.43,1.53-1.42C209.84,45.88,211,45.87,212.14,45.87Z"/><path class="cls-5" d="M132.7,45.87h3.44c.89,0,1.43.42,1.44,1.34,0,1.95,0,3.89,0,5.83,0,.94-.57.86-1.19.89s-1.14-.13-1.1-1c.05-1.14,0-2.29,0-3.43s-.26-1.39-1.34-1.41c-4.18-.06-4.19-.1-4.19,4.21,0,1,0,1.79-1.36,1.63-.73-.09-.94-.34-.93-1,0-1.8,0-3.59,0-5.38,0-1.16.51-1.75,1.74-1.7S131.55,45.87,132.7,45.87Z"/><path class="cls-5" d="M172.38,53.92c-1.14,0-2.29,0-3.43,0s-1.61-.4-1.61-1.48c0-1.89,0-3.78,0-5.67,0-.91.53-.89,1.17-.91s1.16.09,1.12,1c0,1.24,0,2.49,0,3.73,0,.86.26,1.31,1.19,1.27,1.1,0,2.19,0,3.29,0,.77,0,1.07-.36,1.06-1.09,0-1.25,0-2.5,0-3.74,0-.82.23-1.17,1.1-1.14s1.23.1,1.2,1c-.06,1.84,0,3.69,0,5.53,0,1.06-.53,1.53-1.58,1.5S173.53,53.92,172.38,53.92Z"/><path class="cls-5" d="M88.12,53.88c-1.58.45-2.18-.34-2.55-1.71-.59-2.16-1.36-4.27-2-6.42-.12-.41-.81-1.1.06-1.32.72-.17,1.68-.44,2,.82.48,1.78,1.1,3.52,1.7,5.26.13.4.12,1,.67,1.05s.68-.59.83-1.06c.53-1.66,1.15-3.29,1.59-5a1.4,1.4,0,0,1,1.72-1.18c.67,0,.88.21.65.91-.86,2.59-1.7,5.2-2.5,7.82C89.92,54.4,88.86,53.73,88.12,53.88Z"/><path class="cls-5" d="M151.88,53.9c-.8.13-1.08-.22-1-1,0-1,0-2.09,0-3.13,0-.65.25-1.4-.68-1.76-.43-.17-.25-.72-.25-1.09,0-.92,1.24-2.53,1.93-2.55s1.11,0,1.16.77.55.77,1.08.72c.82-.07,1,.36,1,1.08s-.12,1.28-1,1.2-1.09.48-1.08,1.23c0,1.15,0,2.3,0,3.44C153,53.63,152.75,54.06,151.88,53.9Z"/><path class="cls-5" d="M189.5,50.18V47.34c0-.81.34-1.4,1.19-1.44,1.14-.06,2.29,0,3.44,0,.88,0,.67.69.69,1.2s.06,1-.69,1.06-1.66-.36-2.14.27-.15,1.74-.21,2.62a11.36,11.36,0,0,0,0,1.65c.06.82-.12,1.28-1.12,1.27s-1.24-.34-1.17-1.23S189.5,51,189.5,50.18Z"/><path class="cls-6" d="M29.11,54.41c2.19-3.78,4.82-7.26,7.26-11.09,2.12,3.15,4.15,6.15,6.16,9.15L50,63.62a3,3,0,0,1,.7,1.3.92.92,0,0,1-.82.25c-4.18,0-8.35,0-12.53,0a1.79,1.79,0,0,1-1.62-1Q32.42,59.27,29.11,54.41Z"/><path class="cls-6" d="M.24,54.13l14.45,0,6.22,9.47a3,3,0,0,1,.69,1.3c-.32.34-.74.23-1.12.23H8.4a1.55,1.55,0,0,1-1.53-.66C4.71,61.25,2.5,58,.3,54.78.16,54.57,0,54.37.24,54.13Z"/><path class="cls-7" d="M58.24,32.63c-2,3-4.06,6-6.07,9-1.22,1.84-1.22,1.86-2.43.07-1.86-2.75-3.69-5.53-5.54-8.29-.19-.29-.45-.54-.37-.94,4.26,0,8.53,0,12.79,0C57.16,32.52,57.7,32.59,58.24,32.63Z"/></g></g></svg>