<svg xmlns="http://www.w3.org/2000/svg" viewBox="0 0 4188.53 1703.27"><defs><style>.cls-1{fill:#0e6fb8;}.cls-2{fill:#8fc320;}.cls-3{fill:#0e6eb7;}</style></defs><title>无极链</title><g id="图层_2" data-name="图层 2"><g id="图层_1-2" data-name="图层 1"><polygon class="cls-1" points="0 203.53 336.33 538.3 336.33 1218.53 537.19 1004.28 537.19 800.75 896.05 474.02 896.05 1148.9 341.69 1703.27 0 1363.15 0 203.53"/><polygon class="cls-2" points="541.88 597.21 890.03 285.22 890.03 0 541.88 326.73 541.88 597.21"/><polygon class="cls-2" points="1112.98 401.71 1461.13 83.02 1461.13 1148.9 903.56 1696.57 899.54 1190.41 1112.05 1018.61 1112.98 401.71"/><path class="cls-3" d="M4188.53,343.77q-63.48-.4-126.95-.8c-23.07-.11-23.13,0-30.51,22.29-13.08,39.59-25.83,79.29-39.3,118.74-2.67,7.84,0,8.95,6.48,8.86,9-.13,18.08-.56,27.05.13,8.56.65,11.52-1.81,11.32-10.93-.62-27.83,0-55.68-.4-83.52-.12-8,1.81-10.89,10.31-10.7,24.7.55,49.43.68,74.11,0,9.46-.28,10.87,3.26,10.73,11.5-.45,27.44.14,54.9-.35,82.34-.15,8.74,2.45,11.87,11.32,11.36,11.72-.68,23.53.17,35.28-.3,6.31-.25,8,1.93,7.87,8-.39,15.29-.48,30.6,0,45.88.23,7-2.47,8.47-8.81,8.24-12.14-.43-24.33.33-36.46-.25-7.52-.36-9.29,2.54-9.18,9.49.36,22.35.43,44.71,0,67-.13,7.46,1.72,10.54,9.71,10.12,11.73-.62,23.53.19,35.28-.29,6.77-.28,9.86,1,9.48,8.82-.68,14.09-.5,28.24-.05,42.34.21,6.55-1.62,9-8.43,8.63-10.95-.52-22,.55-32.92-.31-10.06-.79-13.49,1.91-13.2,12.7.81,30.57,0,61.17.48,91.76.13,8.3-1.31,11.43-10.65,11.29-38.82-.61-77.65-.52-116.47-.09-8.15.09-10.6-1.89-10.47-10.26.51-31.36-.1-62.75.4-94.11.14-8.71-2.19-11.5-11.12-11.3-25.48.58-51,0-76.46.37-7.08.11-9.61-1.55-9.28-9,.63-14.09.53-28.24,0-42.34-.25-6.82,2-8.57,8.62-8.47,25.48.35,51-.14,76.47.3,8.3.14,12-1.67,11.76-11-.61-21.95-.49-43.92,0-65.88.17-7.79-2.44-9.93-10-9.82-27.44.39-54.9-.1-82.35.32-7.24.11-9.4-1.86-9.19-9.16.52-18.42-1.82-37.14.73-55.21,2.61-18.52,9.46-36.47,14.86-54.55,7.95-26.61,16.31-53.1,24.4-79.67,3.93-12.87,3.52-13.31-10.7-13.36-9.8,0-19.61-.2-29.41.08-4.95.14-6.94-1.31-6.84-6.6.29-15.29.32-30.59,0-45.88-.14-5.77,1.91-7.32,7.42-7.23,17.25.28,34.51-.18,51.76.21,7.08.16,11-1.92,12-9.33.57-4.13,2.61-8.05,3.88-12.1,8.08-25.76,8.07-25.76,35.31-25.76,22.74,0,45.49.09,68.23-.06,6.23,0,9.57,0,6.25,8.27-4.88,12.11-7.94,25-11.94,38h129.9Z"/><path class="cls-3" d="M4188.53,910.87c-4.28-.27-8.55-.78-12.83-.78q-221.14-.06-442.29.25c-10.75,0-12.59-3-12.57-13,.35-130.57.12-261.14.44-391.71,0-10.35-1.08-16.82-13.48-14.5-6.66,1.25-8.71-1.85-8.54-8.48q.63-24.69,0-49.4c-.15-6.42,1.43-8.87,8.38-8.83,49.79.27,99.6.44,149.39-.11,9.93-.11,8.3,5.34,8.3,11.09q0,197,0,394.07c0,18.5-2.25,16.25,16.25,16.27q147.63.11,295.25,0c3.89,0,7.78-.51,11.66-.78Z"/><path class="cls-3" d="M1850.06,910.06c20.16-49.82,40.69-97.86,58.94-146.76,9.89-26.51,19.38-53.17,30-79.38q23.42-57.55,47.15-115c5.81-14.11,5.84-14.19-9.84-14.2-39.6,0-79.21-.2-118.81.18-7.73.07-10-2.11-9.74-9.82.58-16.44.7-33,0-49.39-.38-8.65,2.69-10.13,10.61-10.08,49,.36,98-.1,147,.4,9,.09,13.36-3,16.49-10.93,18.68-47.55,37.72-95,56.52-142.46,4.74-12,3.81-13.19-9.16-13.2-63.92,0-127.83-.2-191.75.2-8.85.06-11.41-2.17-10.93-11a407.41,407.41,0,0,0,0-43.51c-.45-8.63,2.62-10.51,10.59-10.13,13.3.64,26.65.18,40,.18h642.31c16.34,0,16.34,0,16.34,16.91,0,12.16-.58,24.35.19,36.46.55,8.66-1.79,11.19-10.82,11.11-54.89-.46-109.79-.23-164.69-.23-38.82,0-77.64.18-116.46-.2-8.51-.08-13.16,2-16.39,10.75-17.87,48.24-36,96.38-55.21,144.11-4.49,11.15-1.7,11.86,8.13,11.84,121.17-.21,242.33,0,363.5-.43,11.08,0,13.78,3.17,13.15,13.57a373.54,373.54,0,0,0,0,43.5c.53,9.47-1.71,12.62-11.94,12.45-39.59-.68-79.21,0-118.8-.5-9.82-.13-13.36,1.69-13.29,12.61q.74,133.51.08,267c0,9.06,2.13,12,11.59,11.91,40-.53,80-.07,120-.41,7.33-.06,10.34,1.35,10,9.49-.66,16.45-.44,32.94-.07,49.4.14,6.1-1.6,8-7.87,8q-150-.28-300,.1c-9.89,0-8.32-5.36-8.32-11.12q0-165.87,0-331.74c0-17,2.07-15-15-15-23.92-.07-47.84.16-71.76-.13-6.41-.08-9.44,1.89-11.89,8.22-25.83,66.8-53.41,132.95-77.78,200.26-16.88,46.63-35.95,92.35-53,138.87-1.95,5.34-3.88,8.27-10.42,8.24C1976.39,910,1914.05,910.06,1850.06,910.06Z"/><path class="cls-3" d="M2652.75,656.76c0-76.45.35-152.9-.34-229.35-.12-12.77,3.77-15.2,15.49-14.86,29,.84,58-.09,87,.49,9,.18,11.42-2.66,11-11.3a321,321,0,0,1,0-40c.75-10.41-3.39-12.12-12.68-12-33.71.53-67.44-.19-101.14.46-9.66.19-11.74-3-11.31-11.82.69-14.08.64-28.24,0-42.32-.36-8,1.69-10.71,10.22-10.58,33.71.52,67.43-.14,101.14.43,10.23.18,15.08-1.8,13.75-13.26-1.07-9.29,0-18.8-.31-28.2-.21-5.67.85-8.36,7.54-8.32q67,.44,134.08,0c6.7,0,7.72,2.67,7.54,8.33-.34,10.57.24,21.18-.22,31.75-.31,6.92,1.63,10.5,9.11,9.52a31.1,31.1,0,0,1,5.87,0c10.44.69,24.71-4.57,30.27,2.16,5.28,6.38,2,20.13,1.84,30.64-.13,10.09,4.33,23.21-1.75,29.46s-19.3,1.69-29.37,1.9c-15.87.32-15.86.08-15.85,16.24,0,12.16.3,24.32-.14,36.46-.27,7.41,1.94,10.58,9.89,10.41,9.68-.21,22.53-4.39,28.27,1.62,6.2,6.49,1.34,19.37,2,29.44,0,.39,0,.78,0,1.17-.24,10.92,3.45,24.74-1.86,31.92-5.09,6.9-19.74,2-30.16,2.06-7.45,0-8.09,3.72-8.05,9.55.17,23.92.07,47.84.07,71.75,0,113.31-.14,226.61.23,339.92,0,9.78-2.31,12.33-12.14,12.19q-62.91-.88-125.84,0c-9.44.12-11.44-2.71-11.42-11.7.29-136.05.08-272.09.44-408.14,0-10.57-2.44-13.95-13.43-13.65-28.43.75-28.44.2-28.44,29.15,0,126.64-.15,253.27.27,379.91,0,10.53-2.66,13.26-12.88,12.67a435.4,435.4,0,0,0-48.2,0c-9.32.51-10.73-2.86-10.7-11.23C2652.88,812,2652.75,734.39,2652.75,656.76Z"/><path class="cls-3" d="M3483.41,782.9c0-39.22-.29-78.44.21-117.65.12-9.43-2.71-12.37-12-11.89-11.26.59-26.47,4-32.89-1.71-7.42-6.63-2.1-22.11-2.26-33.72-.36-26.26-.12-26.27,25.7-26.27,21.25,0,21.25,0,21.25-21,0-27.05-.2-54.12.15-81.17.1-7.59-2.21-10.59-10-10.13-9.38.55-18.82-.11-28.22.21-5.16.18-6.78-1.65-6.7-6.74.25-16.08.32-32.16,0-48.23-.13-5.91,2.17-7.12,7.54-7.11q108.24.21,216.47-.05c6.71,0,7.64,2.69,7.53,8.33-.28,15.29-.37,30.59,0,45.88.16,6.2-1.77,8.18-7.95,7.95-11.75-.42-23.53.17-35.29-.22-6.62-.22-8.84,2.14-8.79,8.79q.39,47.64,0,95.29c-.07,7.06,2.76,8.53,9.05,8.36,13.71-.35,27.45.15,41.17-.21,6.16-.16,9.19.91,8.93,8.14-.56,15.28-.61,30.6,0,45.87.27,7.32-2.78,8.26-8.94,8.09-13.71-.38-27.45.15-41.17-.2-6.32-.16-9,1.42-9,8.42q.35,92.94,0,185.88c0,6.73,2.05,8.84,8.72,8.67,16.06-.4,32.16.22,48.22-.28,7.33-.23,9.5,2.24,9.22,9.36-.49,12.92-.54,25.89,0,38.81.31,7.14-2.62,8.23-8.87,8.21q-91.17-.3-182.35,0c-7.56,0-9.92-1.84-9.84-9.67C3483.63,862.9,3483.42,822.9,3483.41,782.9Z"/><path class="cls-3" d="M2107,1398.68c6.92-17.94,8.06-34.19,11.42-49.84,8.66-40.35,16.66-80.83,24.87-121.27,2.07-10.17,4.4-20.33,5.77-30.61.93-6.89,3-10.35,10.81-10.11,16.45.51,32.91.16,49.71.16-4,26-11.87,50.62-16.71,76-7.58,39.76-17.87,79-27.19,118.44-7.53,31.88-15.42,63.68-22.89,95.58-1.64,7-4.59,10.11-12.44,9.77-16-.71-32.16-.38-48.23-.12-5.49.08-7.46-1.11-8.81-7.3-10.36-47.77-21.41-95.4-32.39-143-5.59-24.26-11.48-48.45-18.08-76.2-7.41,19.23-11,35.86-13.83,52.32-9.75,56-26.52,110.27-38.15,165.78-1.21,5.81-3.95,8.9-11.13,8.59-17.22-.75-34.51-.41-51.76-.15-5.5.08-7.44-1.15-8.79-7.31-10.31-47-21.52-93.91-32.18-140.88s-20.66-94.14-31.79-141c-2.19-9.18-.33-10.83,8.17-10.58,15.68.45,31.38.36,47.06,0,6.25-.14,9,2,10.1,8.26,10.84,63.18,21.93,126.33,32.82,189.5.51,2.94,1.66,5,5.19,8,5.23-19.77,10.24-38.78,15.3-57.77q18.87-70.94,37.74-141.88c1.21-4.59,3.81-6.13,8.44-6.08,17.25.18,34.51.23,51.76,0,5.31-.07,7.6,2,8.71,7.07,13.6,63,31.95,124.88,42.31,188.59C2103.53,1387.08,2105.08,1391.42,2107,1398.68Z"/><path class="cls-3" d="M3940.7,1249.64c-3.6,5.86-2.35,10.21-2.36,14.32-.08,70.56-.21,141.12.14,211.67,0,8.47-1.53,11.59-10.75,11.19-18.39-.82-36.84-.47-55.26-.12-6.1.12-8-1.62-8-7.87q.27-141.7,0-283.4c0-6.65,1.77-8.67,8.51-8.58,27.43.37,54.87.31,82.31,0,5.49-.06,8.45,1.78,10.81,6.62,10.9,22.35,21.85,44.67,33.25,66.75q37.93,73.51,76.36,146.76c.27.51,1.22.66,3.07,1.59v-24.8c0-61.93.14-123.86-.22-185.79,0-8.36,1.35-11.66,10.68-11.25,19.17.83,38.41.49,57.61.15,6-.11,8.07,1.44,8,7.78q-.28,142.29,0,284.58c0,5.54-1.52,7.46-7.23,7.4-25.48-.26-51-.31-76.43.07-5.65.08-7-3.18-9-7-37.09-67.84-72.89-136.36-108-205.24C3950.14,1266.63,3945.74,1258.93,3940.7,1249.64Z"/><path class="cls-3" d="M2528.76,1337c0,46.27-.25,92.55.22,138.82.09,8.77-2.07,11-10.94,11q-128.82-.55-257.64,0c-8.47,0-10.24-2.42-10.22-10.47q.42-139.41,0-278.82c0-7.74,1.21-11,10-10.67,21.55.7,43.16.89,64.68-.06,10.24-.46,11.09,3.71,11.06,12-.25,80,.07,160-.4,240-.06,11.27,3,14.73,14.35,14.4,27-.81,54.12-.69,81.16,0,10,.24,12.5-3,12.46-12.63-.35-80.39.05-160.78-.5-241.17-.08-10.82,3.1-12.94,13-12.57,20.36.76,40.78.64,61.16,0,8.81-.25,11.93,1.67,11.81,11.35C2528.44,1244.43,2528.76,1290.71,2528.76,1337Z"/><path class="cls-3" d="M2854,1337.45c0,46.27-.2,92.54.18,138.81.07,8.12-2,10.54-10.33,10.51q-129.4-.46-258.8-.06c-7.08,0-10.39-1-10.16-9.33.63-22.73.38-45.49.12-68.22-.07-5.87,1.26-8.28,7.75-8.17,21.95.39,43.91.32,65.87,0,5.69-.08,7.46,1.8,7.31,7.37-.33,12.15.16,24.32-.2,36.46-.18,6.09,1.84,8.21,8,8.16,31-.24,62-.41,92.93,0,10.08.15,9-5.89,9-12.27,0-80.38.18-160.77-.27-241.15,0-10.12,2-13.39,12.67-12.93,21.53.94,43.14.84,64.68,0,9.73-.36,11.46,3.07,11.38,11.9C2853.77,1244.91,2854,1291.18,2854,1337.45Z"/><path class="cls-3" d="M3042.1,1337.12c0-46.23.28-92.47-.23-138.7-.1-9.47,2.78-11.85,11.84-11.61,23.1.59,46.24.71,69.34-.06,9.35-.31,10.68,3,10.65,11.27-.31,80.72,0,161.43-.43,242.14-.05,10.24,2.32,13.13,12.86,13,54.46-.59,108.93,0,163.38-.49,9.32-.08,12.89,1.51,12.53,11.84-.77,22-.13,22-22,22-81.89,0-163.78-.17-245.67.22-9.58,0-12.61-2.1-12.48-12.15C3042.42,1428.81,3042.1,1383,3042.1,1337.12Z"/><path class="cls-3" d="M2987.62,1339.65c0,47-.27,94,.23,141,.1,9.07-2.59,11-11.14,10.79-22.31-.6-44.66-.45-67-.06-7.17.13-10.13-1.12-10.1-9.37q.47-142.8,0-285.6c0-8,2.47-9.75,9.91-9.6,22.72.44,45.46.58,68.16-.06,8.66-.24,10.14,2.8,10.08,10.65C2987.44,1244.84,2987.62,1292.25,2987.62,1339.65Z"/><path class="cls-3" d="M3455.89,1339.65c0,47-.28,94,.24,141,.1,9.11-2.59,11-11.15,10.79-22.31-.62-44.66-.46-67-.06-7.18.12-10.11-1.15-10.08-9.39q.47-142.82,0-285.63c0-8,2.46-9.72,9.91-9.57,22.72.47,45.46.64,68.17,0,8.72-.25,10.12,2.79,10.06,10.62C3455.72,1244.83,3455.89,1292.24,3455.89,1339.65Z"/><path class="cls-3" d="M3434.76,343c13.35-34.85,26.41-68.78,39.29-102.78,1.77-4.67,5.36-3.8,8.7-3.8,32.5,0,65,.19,97.49-.14,8.1-.08,8.14,2.47,5.35,8.76-3.61,8.1-6.48,16.55-9.31,25-1.94,5.77-1,9,6.69,8.9,27.4-.45,54.82.14,82.22-.35,7.8-.14,10,2.16,9.71,9.78-.56,15.25-.6,30.56,0,45.8.3,7.5-2.25,9-9.28,9C3589.29,342.86,3513,343,3434.76,343Z"/><path class="cls-3" d="M3853.32,354.72c-41,0-80.52-.14-120,.16-5.4.05-7.91-1.84-9-6.55-7.55-34.2-14.93-68.43-22.69-102.58-1.72-7.57.62-9.56,8-9.5q52.83.41,105.67,0c5.2,0,6.9,1.33,8.27,6.67C3833,279.8,3843.09,316.54,3853.32,354.72Z"/><path class="cls-3" d="M3392.47,803.31c0-5.31-2-8.73-5.58-12.11-16-15-31.65-30.31-47.76-45.16-4.91-4.53-6.67-9.45-5.28-15.66,14.4-64.28,29-128.52,43.21-192.86,6.83-31,15.54-61.66,13.23-94-.55-7.71-2.35-10-9.95-9.63-12.52.61-25.12-.42-37.62.35-9.92.61-11.32-3-8.4-11.41,9-25.91,18.52-51.71,26.52-77.94,8.2-26.86,21.14-52.73,17.7-82.34-.84-7.22-1.73-10.24-9.73-9.88-14.47.67-29,.19-43.51.19q-163.47,0-327-.19c-9,0-12.25,1.91-11.67,11.43a423.59,423.59,0,0,1,0,43.5c-.34,7.79,2.1,10.7,9.78,9.56,7.1-1.07,9.82.7,9.57,9.34-1.34,46.67-4.65,93.23-7.09,139.84-1.56,29.91-3.41,59.83-4.66,89.74-1.93,46.28-4.77,92.49-7.1,138.73-1.47,29.13-3.81,58.25-4.54,87.35-1,40.15-5.12,80.14-5.42,120.32-.06,8.53,2.57,10.27,10.56,10.17,33.71-.44,67.43-.18,101.14-.19,14.84,0,15.76-1,16.34-16.41.56-14.78,1-29.57,1.75-44.33,2.33-46.65,5.13-93.28,7.16-139.94,1-23.35,4-46.69,2.91-70.16-.11-2.46-1.39-5.86,1.91-7.26s5.08,1.48,6.86,3.39c8.27,8.87,15.32,19.26,24.79,26.52,18.17,13.94,32.54,31.64,49.58,46.6,4.1,3.59,6.61,7.62,5.32,13.28-2.75,12-5.56,24-8.21,36-10.6,48.1-20.91,96.27-31.95,144.28-1.65,7.2-.49,8.18,6.29,8.13q57.63-.4,115.26,0c6.88,0,10.05-1.39,11.57-9.21,4.58-23.43,10.8-46.53,15.87-69.87,1.61-7.4,4.19-6.6,7.92-2,20.41,24.91,47.83,42.66,70,70.73C3392.33,866.65,3392.2,835,3392.47,803.31Zm-142.19-295.2c-5.58,26-11.18,51.94-17.22,77.81-3.23,13.82-2.69,28.32-7.7,42.75-2.07-1.48-3.8-2.35-5.07-3.66-23.7-24.45-48.69-47.53-73.87-70.44-7.18-6.54-13-14.57-19.64-21.72-3.42-3.68-2.62-8-2.65-12.22-.29-38.59,4.21-77,5.16-115.55.63-25.94,4.1-51.88,4.07-77.92,0-7.48,2-10.35,9.9-10.25,29,.37,58,.18,87,.1,7.27,0,8.81,1.43,6.75,9.69-11.46,45.86-29.9,89.36-44,134.32-.81,2.57-2,5-2.62,7.64-2.2,9.25-3.62,19.84.13,27.53,2.78,5.7,13.69,1.62,20.94,2a285.61,285.61,0,0,0,30.55-.06C3250.23,497.59,3251.62,501.83,3250.28,508.11Z"/><path class="cls-3" d="M3788.12,1392.73c-9.88-28.11-22.13-55.39-33.38-83-15.63-38.38-31.41-76.69-46.82-115.16-2.18-5.42-4.74-7.77-10.85-7.69-25.1.34-50.21.51-75.29-.09-7.06-.16-9.59,2.8-11.35,8.5-3,9.64-5.58,19.46-9.37,28.78-23,56.75-45.95,113.55-69.77,170-12.79,30.31-22.64,61.62-35,92.56,22.93,0,44.89-.22,66.84.14,6.48.1,9.36-1.74,11.58-8.25,9.37-27.49,19.88-54.58,29.27-82.06,2.12-6.2,5.65-6.37,10.55-6.36,29.41.06,58.82.2,88.23-.07,6.56-.06,9.47,2.16,11.62,8.52,9,26.77,18.71,53.32,28.31,79.9,1.69,4.67,3.52,8.56,10.44,8.38,23.43-.6,46.89-.23,71-.23C3812.73,1454.61,3799.17,1424.17,3788.12,1392.73Zm-94.43-31.53c-23.49-.2-47-.06-70.45-.09-4.7,0-8.32.41-5.54-7,13.46-36.16,26.18-72.6,39.24-108.91.34-1,1.65-1.56,4-3.64,8.51,24.28,16.77,47.53,24.81,70.85,4.66,13.49,10.78,26.44,14.28,40.38C3701.59,1359.13,3700.28,1361.26,3693.69,1361.2Z"/></g></g></svg>