<svg xmlns="http://www.w3.org/2000/svg" xmlns:xlink="http://www.w3.org/1999/xlink" viewBox="0 0 1490.01 329"><defs><style>.cls-1{fill:none;}.cls-2{clip-path:url(#clip-path);}.cls-3{fill:url(#未命名的渐变);}.cls-4{fill:url(#未命名的渐变_2);}.cls-5{fill:url(#未命名的渐变_3);}.cls-6{fill:url(#未命名的渐变_4);}.cls-7{fill:url(#未命名的渐变_5);}</style><clipPath id="clip-path" transform="translate(-5 -6)"><rect class="cls-1" width="1500" height="340"/></clipPath><linearGradient id="未命名的渐变" x1="453.54" y1="589.63" x2="448.47" y2="589.63" gradientTransform="matrix(299.46, 0, 0, -328.48, -134286.1, 193851.65)" gradientUnits="userSpaceOnUse"><stop offset="0" stop-color="#b6509e"/><stop offset="0.48" stop-color="#7483b1"/><stop offset="1" stop-color="#2ebac6"/></linearGradient><linearGradient id="未命名的渐变_2" x1="452.36" y1="589.61" x2="445.78" y2="589.61" gradientTransform="matrix(226.86, 0, 0, -323.76, -101128.57, 191061.86)" gradientUnits="userSpaceOnUse"><stop offset="0" stop-color="#b6509e"/><stop offset="0.48" stop-color="#7583b1"/><stop offset="1" stop-color="#2ebac6"/></linearGradient><linearGradient id="未命名的渐变_3" x1="454.44" y1="589.63" x2="449.36" y2="589.63" gradientTransform="matrix(299.76, 0, 0, -328.48, -134690.69, 193852.25)" gradientUnits="userSpaceOnUse"><stop offset="0" stop-color="#b6509e"/><stop offset="0.51" stop-color="#7980b0"/><stop offset="1" stop-color="#2ebac6"/></linearGradient><linearGradient id="未命名的渐变_4" x1="455.47" y1="589.59" x2="450.5" y2="589.63" gradientTransform="matrix(299.76, 0, 0, -328.48, -135032.87, 193852.25)" gradientUnits="userSpaceOnUse"><stop offset="0" stop-color="#b6509e"/><stop offset="0.49" stop-color="#7880b0"/><stop offset="1" stop-color="#2ebac6"/></linearGradient><linearGradient id="未命名的渐变_5" x1="450.99" y1="589.63" x2="444.4" y2="589.63" gradientTransform="matrix(225.16, 0, 0, -328.96, -100051.57, 194133.18)" gradientUnits="userSpaceOnUse"><stop offset="0" stop-color="#b6509e"/><stop offset="0.47" stop-color="#7682b1"/><stop offset="1" stop-color="#2ebac6"/></linearGradient></defs><title>AAVE</title><g id="图层_2" data-name="图层 2"><g id="图层_1-2" data-name="图层 1"><g class="cls-2"><path class="cls-3" d="M734.23,313.09,619.68,35.27a24.31,24.31,0,0,1-1.41-7.88c0-6.47,2-11.54,5.63-15.48S632.62,6,639.1,6a20.54,20.54,0,0,1,11.82,3.94c3.66,2.53,6.19,6.19,8.16,10.42L768,292.26,876.92,20.36c2-4.23,4.5-7.89,8.16-10.42A20.54,20.54,0,0,1,896.9,6q9.72,0,15.2,5.91c3.66,3.94,5.63,9,5.63,15.48a24.31,24.31,0,0,1-1.41,7.88L801.77,313.09c-6.47,14.36-16,21.39-28.71,21.39H762.93c-12.66,0-22.23-7-28.7-21.39Z" transform="translate(-5 -6)"/><path class="cls-4" d="M966.42,326a20.39,20.39,0,0,1-5.91-14.92V29.64a21.53,21.53,0,0,1,5.91-15.2,19.58,19.58,0,0,1,14.92-6.19h186a18.52,18.52,0,0,1,14.08,5.91,19,19,0,0,1,5.91,14.08A17.93,17.93,0,0,1,1181.45,42a19.78,19.78,0,0,1-14.08,5.63H1002.73V150.12h148a18.46,18.46,0,0,1,14.07,5.91,19.37,19.37,0,0,1,5.91,14.07,17.86,17.86,0,0,1-5.91,13.79,19.77,19.77,0,0,1-14.07,5.63h-148v103h164.64a18.52,18.52,0,0,1,14.08,5.91,19,19,0,0,1,5.91,14.08,17.93,17.93,0,0,1-5.91,13.79,19.78,19.78,0,0,1-14.08,5.63h-186A18.39,18.39,0,0,1,966.42,326Z" transform="translate(-5 -6)"/><path class="cls-5" d="M645.57,305.21,531,27.39C524.55,13,515,6,502.32,6H492.18c-12.66,0-22.23,7-28.7,21.39l-49.82,121H376A20.66,20.66,0,0,0,355.4,169v.28A20.66,20.66,0,0,0,376,189.8h20.26L348.65,305.21a24.31,24.31,0,0,0-1.41,7.88c0,6.47,2,11.54,5.63,15.48s8.72,5.91,15.2,5.91a20.54,20.54,0,0,0,11.82-3.94c3.66-2.53,6.19-6.19,8.16-10.41L440.4,189.8h36A20.67,20.67,0,0,0,497,169.25v-.56a20.67,20.67,0,0,0-20.55-20.55H457l40.25-99.92L606.17,320.13c2,4.22,4.5,7.88,8.16,10.41a20.47,20.47,0,0,0,11.82,3.94q9.72,0,15.2-5.91c3.66-3.94,5.63-9,5.63-15.48a18.49,18.49,0,0,0-1.41-7.88Z" transform="translate(-5 -6)"/><path class="cls-6" d="M303.33,305.21,188.78,27.39C182.31,13,172.74,6,160.08,6H149.94c-12.66,0-22.23,7-28.7,21.39l-49.82,121H33.71A20.66,20.66,0,0,0,13.16,169v.28A20.66,20.66,0,0,0,33.71,189.8H54L6.41,305.21A24.31,24.31,0,0,0,5,313.09c0,6.47,2,11.54,5.63,15.48s8.72,5.91,15.2,5.91a20.54,20.54,0,0,0,11.82-3.94c3.66-2.53,6.19-6.19,8.16-10.41L98.16,189.8h36.31A20.66,20.66,0,0,0,155,169.25v-.56a20.66,20.66,0,0,0-20.54-20.55H115.05l40-99.92L263.93,320.13c2,4.22,4.5,7.88,8.16,10.41a20.47,20.47,0,0,0,11.82,3.94q9.72,0,15.2-5.91c3.66-3.94,5.63-9,5.63-15.48a18.49,18.49,0,0,0-1.41-7.88Z" transform="translate(-5 -6)"/><path class="cls-7" d="M1482.15,334.7a12.52,12.52,0,0,1-12.5-12.5V285.81a12.49,12.49,0,1,0-25,0v17.27a12.49,12.49,0,0,1-25,0V285.81a12.49,12.49,0,1,0-25-.23v4.93a12.5,12.5,0,0,1-25,0v-4.7a12.49,12.49,0,1,0-25-.23v17.5a12.49,12.49,0,0,1-25,0V285.81a12.49,12.49,0,1,0-25,0V322.2a12.48,12.48,0,1,1-25,.63q0-.31,0-.63V116A112.6,112.6,0,0,1,1495,116a.81.81,0,0,1-.37.79V322.2A12.5,12.5,0,0,1,1482.15,334.7ZM1369.6,148.77c-3.17,0-4.46,1.23-4.46,4.26,0,7.38,8.16,13.37,18.17,13.37s18.15-6,18.15-13.37c0-3-1.29-4.25-4.45-4.25a38.74,38.74,0,0,0-5,.51l-.16,0a47.25,47.25,0,0,1-17,0,39.5,39.5,0,0,0-5.21-.55ZM1424,88.09c-11.06,0-20,10.3-20,23s9,22.93,20,22.93,20-10.28,20-22.93-9-23-20-23Zm-83.09,0c-11,0-20,10.3-20,23s9,22.93,20,22.93,20-10.28,20-22.93-9-23-20-23Z" transform="translate(-5 -6)"/></g></g></g></svg>