<svg xmlns="http://www.w3.org/2000/svg" viewBox="0 0 306.66 70.8"><defs><style>.cls-1{fill:#293147;}.cls-2{fill:#2eb6ea;}.cls-3{fill:#1542cd;}.cls-4{fill:#745ddf;fill-rule:evenodd;}</style></defs><title>Liquity</title><g id="图层_2" data-name="图层 2"><g id="图层_1-2" data-name="图层 1"><path class="cls-1" d="M105.66,55.15h26.69V48.23H113.57V9.46h-7.91Z"/><path class="cls-1" d="M146.27,21.08h-7.68V55.15h7.68Zm-3.8-5.62a4.86,4.86,0,0,0,4.81-4.77,4.85,4.85,0,0,0-9.7,0A4.88,4.88,0,0,0,142.47,15.46Z"/><path class="cls-1" d="M185.65,22.85a35.18,35.18,0,0,0-13-2.54c-12.18,0-19.78,6.92-19.78,17.84,0,11.31,7.6,17.77,18.69,17.77a19.14,19.14,0,0,0,6.52-1.07V69h7.6Zm-7.6,25.38A16.37,16.37,0,0,1,172,49.31c-6.91,0-11.41-4.39-11.41-11.16,0-7.07,4.58-11.07,12-11.07a18.76,18.76,0,0,1,5.43.84Z"/><path class="cls-1" d="M222.58,21.08H215V49.15a41,41,0,0,1-5.9.47c-5,0-8.15-1.85-8.15-6.93V21.08h-7.6V43.23c0,9.54,6,12.69,15.91,12.69a60.76,60.76,0,0,0,13.34-1.54Z"/><path class="cls-1" d="M240.1,21.08h-7.68V55.15h7.68Zm-3.8-5.62a4.86,4.86,0,0,0,4.81-4.77,4.85,4.85,0,0,0-9.7,0A4.88,4.88,0,0,0,236.3,15.46Z"/><path class="cls-1" d="M245.92,27.46h5.2V45.38c0,7.77,4.73,10.54,10.32,10.54a18.14,18.14,0,0,0,8.3-1.84V47.23a12,12,0,0,1-6.28,1.92c-2.95,0-4.73-1.38-4.73-5.46V27.46h9.77V21.08h-9.77V12.77h-7.61v8.31h-5.2Z"/><path class="cls-1" d="M279.35,21.08h-8.22l14.2,35.61L280.52,69H288l18.62-47.92h-7.91l-9.62,26.84Z"/><circle class="cls-2" cx="35.44" cy="35.38" r="35.38"/><path class="cls-3" d="M35.25,70.76c-35.19,0-49.08-46.29-18-65.8-3.69,38.69,16,39.54,34.21,38.69C82,42.21,82.06,70.76,82.06,70.76Z"/><path class="cls-4" d="M68.88,47A37.46,37.46,0,0,1,35.05,70.78l1.09,0H82.66S82.65,54.07,68.88,47Z"/></g></g></svg>