<svg xmlns="http://www.w3.org/2000/svg" viewBox="0 0 427.93 98.9"><title>Polkadot</title><g id="图层_2" data-name="图层 2"><g id="Layer_1" data-name="Layer 1"><path d="M103.2,41.5c-8.5,0-15.5,3.5-21.1,10.6a38.4,38.4,0,0,0-8.4,24.6c0,6.4,1.8,11.6,5.3,15.6s8.2,6,14.1,6c7.9,0,14.6-3.3,20.2-9.9,3.7-4.8,5.2-7.7,6-9.8a41.06,41.06,0,0,0,3.1-15.7c0-6.3-1.5-11.4-4.5-15.4S109.9,41.5,103.2,41.5Zm.3,42.2a14,14,0,0,1-10.1,4.4,8.19,8.19,0,0,1-6.7-3c-1.6-2-2.4-4.8-2.4-8.3,0-7,1.7-12.9,5.2-17.7s7.8-7.2,13.1-7.2c6,0,8.9,3.6,8.9,10.9A29.48,29.48,0,0,1,103.5,83.7Zm321-15.9a5.1,5.1,0,0,0-6.3,2.9C413.6,82.2,407.9,88,400.9,88c-3.6,0-5.4-3.1-5.4-9.2,0-3.4,1-10.1,3-20l1.5-7h14.2a5,5,0,0,0,5-4.1,5.14,5.14,0,0,0-5-6.2H402.3l2.5-11.6a5.32,5.32,0,0,0-10.4-2.2l-3,13.8H358.2c-8.5,0-15.5,3.5-21.1,10.6a38.4,38.4,0,0,0-8.4,24.6,26.54,26.54,0,0,0,.9,7.1q-4.05,4.2-8.7,4.2-3.15,0-4.5-1.8c-.9-1.2-1.4-3.2-1.4-6,0-4,.8-9.9,2.5-17.7l8.7-40.2a5.29,5.29,0,0,0-5.2-6.4,5.35,5.35,0,0,0-5.2,4.2l-5.2,24.5A22.94,22.94,0,0,0,299,41.5a27.38,27.38,0,0,0-21.6,10c-5.7,6.7-8.6,15.1-8.6,25.2a28.83,28.83,0,0,0,1.2,8.6,11.17,11.17,0,0,1-7.3,2.8,6,6,0,0,1-4.7-1.8q-1.5-1.8-1.5-6a67.1,67.1,0,0,1,1.6-11.9,5.45,5.45,0,0,0-10.6-2.5c-2,6.9-4.5,12.2-7.3,15.8-3.4,4.3-7.1,6.5-11,6.5a6.69,6.69,0,0,1-5.7-3.3,15.88,15.88,0,0,1-2.1-8.6c0-7.1,1.7-13,5.2-17.5a16.29,16.29,0,0,1,13.6-6.9,21.14,21.14,0,0,1,8,1.6,5.2,5.2,0,0,0,4.7-.3,5.12,5.12,0,0,0-.6-9.1,19.18,19.18,0,0,0-4.1-1.3,34.92,34.92,0,0,0-7.8-1.1,27.62,27.62,0,0,0-21.4,10A33.77,33.77,0,0,0,212.2,64h0c-5,16.2-11.6,24.3-19.5,24.3-2.7,0-4.7-.9-5.9-2.6a10.44,10.44,0,0,1-1.9-6.5,12.17,12.17,0,0,1,.1-2.1,27.26,27.26,0,0,0,12.1-9.2,22.76,22.76,0,0,0,4.6-13.6c0-8.3-4.5-12.4-13.6-12.4a24.32,24.32,0,0,0-17,6.9l5.6-26.2a5.21,5.21,0,1,0-10.2-2.1l-15.4,72a5.2,5.2,0,0,0,5.1,6.3h0a5.16,5.16,0,0,0,5.1-4.1l4.8-22a43.09,43.09,0,0,1,3.4-8.5,25.68,25.68,0,0,1,7-8A15.81,15.81,0,0,1,187,52.4c2.6,0,3.9,1.3,3.9,4,0,3-1.7,6-5,8.8a21.86,21.86,0,0,1-10.7,5.2c-.3,3.2-.5,5.4-.5,6.8q0,10,4.5,15.9c3,3.9,7.4,5.8,13.3,5.8,6.9,0,12.9-3,18-8.9.7-.8,1.3-1.6,2-2.5a18.49,18.49,0,0,0,3.1,5.3,16.31,16.31,0,0,0,13.3,6c7.1,0,13.1-3.4,18-10.3,2.1,6.9,7.2,10.3,15.5,10.3a20.4,20.4,0,0,0,12.8-4.5,16.46,16.46,0,0,0,11.9,4.5c7.1,0,13.1-3.4,18-10.3,2.1,6.9,7.2,10.3,15.5,10.3a20.75,20.75,0,0,0,14.1-5.4,17.85,17.85,0,0,0,13.5,5.4c7.9,0,14.6-3.3,20.2-9.9,3.7-4.8,5.2-7.7,6-9.8a41.06,41.06,0,0,0,3.1-15.7,29.31,29.31,0,0,0-2-11.1h13.7l-1.3,6q-3.3,15.45-3.3,21c0,13,5.3,19.5,15.8,19.5,11.7,0,20.7-7.9,27.1-23.8A5.35,5.35,0,0,0,424.5,67.8ZM306.9,61.4c-1.9,9.1-4.7,15.8-8.2,20.1S291.4,88,287.4,88a6.69,6.69,0,0,1-5.7-3.3,15.88,15.88,0,0,1-2.1-8.6c0-7.1,1.7-13,5.2-17.5a16.29,16.29,0,0,1,13.6-6.9c3,0,6.2,1.3,9.7,4ZM364.7,74s-3.1,6.7-6,9.7a14,14,0,0,1-10.1,4.4,8.19,8.19,0,0,1-6.7-3c-1.6-2-2.4-4.8-2.4-8.3,0-7,1.7-12.9,5.2-17.7s7.8-7.2,13.1-7.2c6,0,8.9,3.6,8.9,10.9A32.76,32.76,0,0,1,364.7,74ZM148.1,15.9a5.15,5.15,0,0,0-5.1,4.2l-15.4,72a5.22,5.22,0,0,0,10.2,2.2l15.5-72A5.29,5.29,0,0,0,148.1,15.9ZM37.8,0A37.83,37.83,0,0,0,0,37.8,39.6,39.6,0,0,0,2,50.1a5.33,5.33,0,0,0,6.7,3.3A5.33,5.33,0,0,0,12,46.7,26.63,26.63,0,0,1,10.5,37,27.31,27.31,0,1,1,39.4,65s-5.3.3-7.9.7c-1.3.2-2.3.4-3,.5a.4.4,0,0,1-.5-.5l.9-4.4,4.8-22.5a5.22,5.22,0,1,0-10.2-2.2s-11.8,55-11.9,55.6a5.22,5.22,0,1,0,10.2,2.2c.1-.6,1.7-7.9,1.7-7.9A13.28,13.28,0,0,1,34.7,76.1c1.2-.2,5.9-.5,5.9-.5A37.86,37.86,0,0,0,37.8,0Z"/></g></g></svg>