<svg xmlns="http://www.w3.org/2000/svg" viewBox="0 0 299.34 66.04"><defs><style>.cls-1{fill:#ff007a;fill-rule:evenodd;}</style></defs><title>UNISWAP</title><g id="图层_2" data-name="图层 2"><g id="图层_1-2" data-name="图层 1"><path class="cls-1" d="M24.35,28.71a3.56,3.56,0,0,1-.58,1.19,4.63,4.63,0,0,1-1.9,1.46,7.32,7.32,0,0,1-2.11.56l-.46,0h0a2.15,2.15,0,0,0-1.27.47,2.19,2.19,0,0,0-.74,1.14,5.1,5.1,0,0,0-.13.68c0,.34-.06.7-.08,1.08s0,.56-.06.87a11.66,11.66,0,0,1-1.09,3.65c-.11.24-.23.48-.34.7h0a6.73,6.73,0,0,0-1,3.84,4.48,4.48,0,0,0,1.49,2.71,8.47,8.47,0,0,0,1.37,1c1.42.94,3,2,2.47,4.59-.42,2.12-3.92,4.35-8.84,5.12.48-.07-.57-1.87-.69-2.07h0l-.42-.63h0a14.73,14.73,0,0,1-1.11-1.88A9.61,9.61,0,0,1,8,47.58a9.93,9.93,0,0,1,2.54-4.44h0c.18-.22.35-.44.53-.65a14.9,14.9,0,0,0,3.34-6.6c0-.21.06-.43.09-.67,0-.43.1-.89.18-1.35a7.69,7.69,0,0,1,.73-2.28,4.89,4.89,0,0,1,1-1.25,1.24,1.24,0,0,0,.38-.71,1.34,1.34,0,0,0-.14-.81L8.75,14.66,20,28.62a1.43,1.43,0,0,0,.47.38,1.56,1.56,0,0,0,.6.15,1.48,1.48,0,0,0,.59-.12,1.52,1.52,0,0,0,.5-.37.9.9,0,0,0,.22-.59.93.93,0,0,0-.19-.61q-.79-1-1.62-2h0l-.65-.82L17.1,21.08l-5.69-7L0,0,12.14,13.42l6.05,6.72,3,3.37.83.94c.73.81,1.45,1.62,2.18,2.48l.16.2,0,.32A3.81,3.81,0,0,1,24.35,28.71Zm28.94,4.74h0a11.8,11.8,0,0,0-2.8-6.36l0-.06a17.83,17.83,0,0,0-1.88-2l-.4-.36a15.68,15.68,0,0,0-2.82-2l-.07,0A17.92,17.92,0,0,0,32.89,21a24.68,24.68,0,0,0-2.21-2.36A12.59,12.59,0,0,0,26.52,16a10.72,10.72,0,0,0-4.8-.59,12.34,12.34,0,0,1,4.49,1.29,13.43,13.43,0,0,1,3.61,2.83,43.44,43.44,0,0,1,3,3.67l.23.3h0A27.55,27.55,0,0,0,35.94,27,10.23,10.23,0,0,0,38,28.46l.6.29.59.23a11.64,11.64,0,0,0,1.18.39,21.45,21.45,0,0,0,4.85.71l.67,0h0c.57,0,1.14.05,1.7.1a11.77,11.77,0,0,1,2.27.35,5,5,0,0,1,2.78,1.9A8.19,8.19,0,0,1,53.29,33.45Zm125.28-9.69c-5.27,1.33-7.74,5.46-6.24,10.44.64,2.13,2.62,4.29,5.41,5.9,5,2.9,6.51,4.07,7.37,5.84a3.73,3.73,0,0,1,.41,3.31,6.08,6.08,0,0,1-6.23,4.88c-3.24,0-5.51-1.82-6-4.81-.21-1.2-.46-1.59-1-1.59s-.76.32-.76,3.37v3.36l2.1.72a16.45,16.45,0,0,0,10.76-.31c5.43-2.51,7.52-7.5,5.08-12.16-.92-1.75-3.21-3.69-7.13-6.06-4.12-2.49-6-4.3-6.23-6.14-.42-2.82,2.13-5.16,5.6-5.15,2.72,0,3.89.65,4.85,2.68.61,1.26,1,1.68,1.76,1.69s.9-.13.7-.88a14.25,14.25,0,0,1-.24-2.76c0-1.29-.2-1.92-.63-2.09C186.92,23.56,180.08,23.38,178.57,23.76ZM72.81,25c0,.58.27.8,1,.8,1.94,0,2,.56,2.26,12.15.18,10.13.25,10.93,1.06,12.43A10.31,10.31,0,0,0,82.23,55c1.66.75,2.71.91,6,.92,3.59,0,4.25-.11,6.31-1.12a12.62,12.62,0,0,0,3.5-2.58c2.28-2.76,2.53-4.1,2.79-15.39.25-10.88.28-11.06,2.14-11.07a.71.71,0,0,0,.7-.81c0-.75-.27-.8-4.81-.8s-4.82.06-4.82.78.33.8,1.3.9c2.13.2,2.3,1,2.31,10.94s-.34,12-2.49,14a8,8,0,0,1-6.33,2.54c-3.91,0-6.69-1.83-7.6-5-.31-1.07-.42-5-.34-11.79L81,26.35l1.4-.45c.78-.25,1.47-.74,1.54-1.1.11-.57-.53-.65-5.52-.65C73.08,24.15,72.81,24.19,72.81,25Zm37.3,0c0,.62.26.8,1.18.8,2,0,3.19.79,3.65,2.5.27,1,.38,5.61.3,12.24-.14,11.84-.3,12.61-2.75,13.1-.8.16-1.18.47-1.18,1,0,.69.39.74,5.61.74s5.62-.06,5.62-.71-.52-.86-1.79-1.19c-1.57-.42-1.83-.65-2.2-2-.48-1.71-.59-19.71-.12-19.66a34,34,0,0,1,3.45,3.7c1.74,2,6.49,7.3,10.56,11.75,6.37,7,7.56,8.09,8.56,8.09h1.16l.11-14.16c.09-10.06.25-14.3.58-14.63a4.44,4.44,0,0,1,1.81-.74c.78-.16,1.34-.51,1.34-.85s-1-.61-5.52-.7c-5.3-.1-5.51-.08-5.51.7,0,.59.26.81,1,.81a4.06,4.06,0,0,1,2.11,1l1.12,1,.13,9.63c.07,5.43,0,9.62-.23,9.62a15.33,15.33,0,0,1-2.72-2.69c-1.3-1.49-5-5.58-8.23-9.1s-6.76-7.41-7.84-8.66l-2-2.26-4.11,0C110.36,24.16,110.11,24.2,110.11,25Zm42.1,0c0,.61.27.8,1.13.8a3.83,3.83,0,0,1,1.91.57c.73.53.78,1.22.9,12.29.15,13.81,0,14.59-2.35,15-1.19.19-1.59.43-1.59,1s.41.74,6,.74,6,0,6-.79c0-.57-.27-.8-.93-.8a3.38,3.38,0,0,1-1.7-.57c-.74-.54-.79-1.23-.9-13.17-.11-12.24-.09-12.63.7-13.42a3,3,0,0,1,1.82-.82c.74,0,1-.21,1-.8,0-.76-.27-.8-6-.8S152.21,24.19,152.21,25Zm42,0a1.06,1.06,0,0,0,1.09.8,3,3,0,0,1,1.77.93c.49.52,3.23,7.09,6.21,14.89l5.34,14,1.4.12,1.4.12,3.74-9.91c2.07-5.45,4-10.34,4.23-10.87.46-.9.56-.76,1.76,2.4l4.16,10.85,2.88,7.49h1.27c.7,0,1.37-.23,1.48-.53L235,44.7l5.27-13.48c1.72-4.42,2.07-5,3.45-5.44.61-.21,1.11-.66,1.11-1,0-.52-.73-.62-4.82-.62-4.54,0-4.81.05-4.81.8,0,.58.27.8,1,.8,1.56,0,2.24.42,2.24,1.39,0,.81-7.64,21.54-8.11,22-.29.29-7.19-19-7.44-20.76s.51-2.64,2.19-2.64c.66,0,.93-.23.93-.8,0-.76-.27-.8-6.22-.8s-6.22,0-6.22.8c0,.46.27.8.63.8a4.12,4.12,0,0,1,3.33,2.43c.62,1.75.15,3.52-3.46,13.12L211,49.45l-.66-1.56C210,47,208.1,42,206.15,36.66c-3.82-10.45-3.87-10.91-1.35-10.91.89,0,1.15-.18,1.15-.8s-.26-.8-6-.8S194,24.18,194.21,25Zm81.22.27a3.42,3.42,0,0,0,.06.7c.07.15.5.21.5.21l.77.19c1.21.3,2.06.52,2.4,1.31.23.54.24,2.41.25,12.43,0,10.56,0,11.86-.29,12.56-.35.86-1,1.32-2.57,1.76a3.22,3.22,0,0,0-.86.36,1,1,0,0,0-.22.55.83.83,0,0,0,.14.52c.16.17.58.09.58.09h4l6.66.05a.47.47,0,0,0,.41-.14.92.92,0,0,0,.11-.53.9.9,0,0,0-.18-.55,2.78,2.78,0,0,0-.85-.33c-1.51-.37-2.28-.85-2.62-1.63-.25-.59-.28-2.16-.32-5.43V42.56a4.9,4.9,0,0,1,.48.31h0c.76.54,1.72,1.21,5.31,1.31a9.37,9.37,0,0,0,8.52-4,11.23,11.23,0,0,0,1-9.54c-1.14-3.76-4.49-6-9.2-6.27-2.45-.13-6,0-8,.09H281c-1.81.08-4,.25-5.07.36h0c-.29,0-.32,0-.41.13A.51.51,0,0,0,275.43,25.22ZM293.1,40c1.75-1.65,1.78-4.22,1.78-5.86-.18-2.58-1.21-7.53-7.09-7.53-1.38-.07-4.19.16-4.27,2.07-.09.34-.12,2.69-.1,6.31l0,5.77.6.32,0,0a4.9,4.9,0,0,0,1.49.53C287.91,42.05,291.35,41.6,293.1,40ZM256.3,24.65l.73-.27s.65-.27.86,0c.06.08.3.69.88,2.2l0,0,.13.34.24.62,2.78,7.17c.66,1.69,2,5,2.9,7.45S267,47.68,267.51,49a22.79,22.79,0,0,0,1.4,3.05c.09.12.18.28.29.45h0a3.08,3.08,0,0,0,2.07,1.77,3.9,3.9,0,0,1,1,.28.81.81,0,0,1,.16.39v.46a.61.61,0,0,1-.09.22c-.07.1-.33.07-.33.07h-6.68l-4.74,0a.39.39,0,0,1-.27-.07.63.63,0,0,1-.15-.28v-.35a.67.67,0,0,1,.15-.49c.19-.23.95-.25.95-.25a2.92,2.92,0,0,0,2.31-2h0l.06-.12c.31-.66.2-1.08-1.22-4.56-.93-2.3-1.25-2.95-1.48-3s-2.64,0-5.52,0l-5.23,0-.31.86c-.9,2.49-1.71,5-1.83,5.63-.24,1.35.1,2.87,2.1,3.13a3.28,3.28,0,0,1,.94.25,1,1,0,0,1,.26.53v.35a.5.5,0,0,1-.17.28c-.14.12-.49.08-.49.08h-5l-4.83,0a.9.9,0,0,1-.36-.08.4.4,0,0,1-.18-.25v-.33a.68.68,0,0,1,.25-.49,2.15,2.15,0,0,1,1-.33c1.32-.21,2.07-1.62,2.5-2.43l.09-.17c.17-.31.94-2.15,1.71-4.08s1.63-4.09,1.92-4.8c1-2.41,1.9-4.72,3.3-8.24.76-1.93,1.9-4.78,2.52-6.33l1.13-2.83Zm-.41,6.86.83,2.05L258,36.78l1.39,3.41c.26.61.47,1.15.47,1.18s-1.92.07-4.27.07a28.28,28.28,0,0,1-4.28-.14,3.41,3.41,0,0,1,.2-.68c.18-.48,1.06-3,3-8.56.3-.86.58-1.62.62-1.68C255.28,30.15,255.45,30.4,255.89,31.51ZM28.78,33.63c1.3,2.3-1.6,3-3,3.14-2.07.2-2.49-1-2.09-2.49a2.68,2.68,0,0,1,2.32-2,2.9,2.9,0,0,1,1.56.3A2.93,2.93,0,0,1,28.78,33.63Zm17.84,6.23c-5.16-2.1-10.55-4.3-9.75-10.47,1.73,1.85,4.43,2.24,7.37,2.66,2.66.38,5.52.79,8,2.34a9.67,9.67,0,0,1,3,13.39C55.48,43.47,51.14,41.7,46.62,39.86Zm2-14.83-.25-.23-.15-.14.12.11Zm-23.12-6.4A5.65,5.65,0,0,0,22,16.93a7.93,7.93,0,0,0-.09,1,11.52,11.52,0,0,0,2.75,7.73,6.73,6.73,0,0,0,2.1,1.61c.46.23,1.68.79,2.13.29a.33.33,0,0,0,.07-.16.32.32,0,0,0,0-.17,2.18,2.18,0,0,0-.36-.6h0c-.1-.14-.2-.28-.28-.42L28,25.76A6.92,6.92,0,0,1,27.6,25,12.64,12.64,0,0,1,27,22.61h0c0-.16-.06-.32-.1-.48A7.4,7.4,0,0,0,25.46,18.63ZM43.7,40.19c-1.33,3.72.81,6.85,2.93,10,2.38,3.49,4.74,7,2.22,11.17a10.16,10.16,0,0,0,5.18-13c-1.28-3.08-4.36-4.75-7.22-6.29h0A33.17,33.17,0,0,1,43.7,40.19ZM29.36,49.06a10.77,10.77,0,0,0-2.49,1.42,17.87,17.87,0,0,1,5.41-1.07l1,0h0c.59,0,1.19-.06,1.8-.11a11.24,11.24,0,0,0,2.92-.6A7.17,7.17,0,0,0,40.65,47a5.9,5.9,0,0,0,1.53-2.76,6.3,6.3,0,0,0-.09-3,6.09,6.09,0,0,0-1.48-2.6,9.5,9.5,0,0,1,.62,2.68,6.22,6.22,0,0,1-.35,2.53,5,5,0,0,1-1.33,2,6.63,6.63,0,0,1-2.1,1.31,15,15,0,0,1-3.56.8h0c-.58.09-1.17.17-1.76.28A14.68,14.68,0,0,0,29.36,49.06ZM44.72,64.39l-.08.06c-.22.18-.45.36-.7.53a7.23,7.23,0,0,1-1,.55,5.06,5.06,0,0,1-2.27.51c-2.13,0-3.64-1.63-4.52-3.43-.23-.48-.43-1-.64-1.45a15.9,15.9,0,0,0-1.09-2.28,5.12,5.12,0,0,0-4.81-2.77,2.83,2.83,0,0,0-2.08,1.21,2.8,2.8,0,0,0,2.76,4.18,2.73,2.73,0,0,0,.56-.15,2.48,2.48,0,0,0,.49-.3,2.34,2.34,0,0,0,.77-2.24,1.7,1.7,0,0,0-.72-1.07,1.84,1.84,0,0,1,.94,1,2.72,2.72,0,0,1,.13,1.44,2.82,2.82,0,0,1-.64,1.35,3,3,0,0,1-.6.52,3.06,3.06,0,0,1-.71.33,3.48,3.48,0,0,1-1.57.17,4.18,4.18,0,0,1-2-.88l-.3-.26a7.56,7.56,0,0,1-1.09-1.17l-.44-.46A8.55,8.55,0,0,0,22.63,58a9.54,9.54,0,0,0-2-.62,9.19,9.19,0,0,0-1.05-.17l-.2,0h0c-.29-.05-.77-.13-.85-.05A21.69,21.69,0,0,1,22,54.42a17.43,17.43,0,0,1,4.14-1.78,11.86,11.86,0,0,1,4.63-.35,8.81,8.81,0,0,1,2.32.6,7.23,7.23,0,0,1,2.13,1.32,6.76,6.76,0,0,1,1.48,2.07,10.76,10.76,0,0,1,.71,2.28c.08.42.15.88.21,1.36h0c.29,2.19.63,4.71,3.13,5.15a3.93,3.93,0,0,0,.48.06l.5,0a8.35,8.35,0,0,0,1-.15,11.07,11.07,0,0,0,2-.7l0,0Zm-19.06-4,.24.26-.11-.12h0Z"/></g></g></svg>