<svg xmlns="http://www.w3.org/2000/svg" viewBox="0 0 48 48"><defs><style>.cls-1,.cls-3{fill:#fdf7f3;}.cls-2{fill:#ee752b;}.cls-3{stroke:#ee752b;stroke-miterlimit:10;stroke-width:1.5px;}</style></defs><title>Decentralization</title><g id="图层_2" data-name="图层 2"><g id="图层_1-2" data-name="图层 1"><circle class="cls-1" cx="24" cy="24" r="23"/><path class="cls-2" d="M24,48A24,24,0,1,1,48,24,24,24,0,0,1,24,48ZM24,2A22,22,0,1,0,46,24,22,22,0,0,0,24,2Z"/><path class="cls-2" d="M41,39.76c-4.22-2.55-10.41-4-17-4s-12.76,1.46-17,4L6,38.05c4.53-2.74,11.1-4.3,18-4.3s13.49,1.56,18,4.3Z"/><path class="cls-2" d="M24,14.26c-6.93,0-13.5-1.58-18-4.32L7,8.23c4.22,2.56,10.41,4,17,4s12.77-1.47,17-4l1,1.71C37.5,12.68,30.93,14.26,24,14.26Z"/><path class="cls-2" d="M27.62,47.06C33,44.2,36.84,35.1,36.84,24c0-10.9-3.7-19.88-8.93-22.91H20.09c-5.23,3-8.93,12-8.93,22.91,0,11.1,3.84,20.2,9.22,23.06ZM13.16,24c0-11.92,5-22,10.84-22S34.84,12.08,34.84,24,29.87,46,24,46,13.16,35.92,13.16,24Z"/><rect class="cls-2" x="1" y="23" width="46" height="2"/><rect class="cls-2" x="23" y="1" width="2" height="46"/><circle class="cls-3" cx="34.11" cy="35.95" r="3.67"/><path class="cls-3" d="M27.68,13.26A3.68,3.68,0,1,1,24,9.58,3.67,3.67,0,0,1,27.68,13.26Z"/><circle class="cls-3" cx="12.16" cy="24" r="3.67"/></g></g></svg>